<?xml version="1.0" encoding="UTF-8" standalone="no"?><svg xmlns="http://www.w3.org/2000/svg" xmlns:xlink="http://www.w3.org/1999/xlink" contentScriptType="application/ecmascript" contentStyleType="text/css" height="443px" preserveAspectRatio="none" style="width:300px;height:443px;" version="1.1" viewBox="0 0 300 443" width="300px" zoomAndPan="magnify"><defs><filter height="300%" id="fr2fp0k8v2ylu" width="300%" x="-1" y="-1"><feGaussianBlur result="blurOut" stdDeviation="2.0"/><feColorMatrix in="blurOut" result="blurOut2" type="matrix" values="0 0 0 0 0 0 0 0 0 0 0 0 0 0 0 0 0 0 .4 0"/><feOffset dx="4.0" dy="4.0" in="blurOut2" result="blurOut3"/><feBlend in="SourceGraphic" in2="blurOut3" mode="normal"/></filter></defs><g><!--MD5=[de2effd8dc5bf946a609466312d0f75f]
entity Player--><ellipse cx="28" cy="193.5" fill="#FEFECE" filter="url(#fr2fp0k8v2ylu)" rx="8" ry="8" style="stroke: #A80036; stroke-width: 1.5;"/><path d="M28,201.5 L28,228.5 M15,209.5 L41,209.5 M28,228.5 L15,243.5 M28,228.5 L41,243.5 " fill="none" filter="url(#fr2fp0k8v2ylu)" style="stroke: #A80036; stroke-width: 1.5;"/><text fill="#000000" font-family="sans-serif" font-size="14" lengthAdjust="spacingAndGlyphs" textLength="44" x="6" y="261.9951">Player</text><ellipse cx="199.163" cy="20.5236" fill="#FEFECE" filter="url(#fr2fp0k8v2ylu)" rx="29.163" ry="14.5236" style="stroke: #A80036; stroke-width: 1.5;"/><text fill="#000000" font-family="sans-serif" font-size="14" lengthAdjust="spacingAndGlyphs" textLength="37" x="180.663" y="25.1721">Start</text><ellipse cx="199.2318" cy="90.7464" fill="#FEFECE" filter="url(#fr2fp0k8v2ylu)" rx="89.2318" ry="20.2464" style="stroke: #A80036; stroke-width: 1.5;"/><text fill="#000000" font-family="sans-serif" font-size="14" lengthAdjust="spacingAndGlyphs" textLength="152" x="123.2318" y="95.3948">ProposeCombination</text><ellipse cx="198.9558" cy="160.5236" fill="#FEFECE" filter="url(#fr2fp0k8v2ylu)" rx="28.4558" ry="14.5236" style="stroke: #A80036; stroke-width: 1.5;"/><text fill="#000000" font-family="sans-serif" font-size="14" lengthAdjust="spacingAndGlyphs" textLength="36" x="180.9558" y="165.1721">Undo</text><ellipse cx="199.163" cy="224.5236" fill="#FEFECE" filter="url(#fr2fp0k8v2ylu)" rx="29.163" ry="14.5236" style="stroke: #A80036; stroke-width: 1.5;"/><text fill="#000000" font-family="sans-serif" font-size="14" lengthAdjust="spacingAndGlyphs" textLength="37" x="180.663" y="229.1721">Redo</text><ellipse cx="198.799" cy="288.5236" fill="#FEFECE" filter="url(#fr2fp0k8v2ylu)" rx="22.799" ry="14.5236" style="stroke: #A80036; stroke-width: 1.5;"/><text fill="#000000" font-family="sans-serif" font-size="14" lengthAdjust="spacingAndGlyphs" textLength="28" x="184.799" y="293.1721">Exit</text><ellipse cx="199.0416" cy="352.5236" fill="#FEFECE" filter="url(#fr2fp0k8v2ylu)" rx="27.0416" ry="14.5236" style="stroke: #A80036; stroke-width: 1.5;"/><text fill="#000000" font-family="sans-serif" font-size="14" lengthAdjust="spacingAndGlyphs" textLength="34" x="182.0416" y="357.1721">Save</text><ellipse cx="198.8051" cy="416.5236" fill="#FEFECE" filter="url(#fr2fp0k8v2ylu)" rx="43.3051" ry="14.5236" style="stroke: #A80036; stroke-width: 1.5;"/><text fill="#000000" font-family="sans-serif" font-size="14" lengthAdjust="spacingAndGlyphs" textLength="57" x="170.3051" y="421.1721">Resume</text><!--MD5=[39353cd92ba960c69c4d2a9385fee2c7]
link Player to Start--><path d="M38.5871,183.636 C49.6526,144.933 71.4787,87.654 110,52.5 C125.476,38.377 147.674,30.363 165.903,25.888 " fill="none" id="Player-to-Start" style="stroke: #A80036; stroke-width: 1.0;"/><polygon fill="#A80036" points="170.93,24.717,161.2571,22.8635,166.0604,25.8515,163.0724,30.6548,170.93,24.717" style="stroke: #A80036; stroke-width: 1.0;"/><!--MD5=[8dee72b7ea4194df32cfadea21530293]
link Player to ProposeCombination--><path d="M50.0135,192.65 C64.8184,172.171 86.1907,146.182 110,128.5 C120.261,120.879 132.286,114.411 144.093,109.09 " fill="none" id="Player-to-ProposeCombination" style="stroke: #A80036; stroke-width: 1.0;"/><polygon fill="#A80036" points="148.779,107.031,138.9302,106.9899,144.2015,109.0426,142.1488,114.3139,148.779,107.031" style="stroke: #A80036; stroke-width: 1.0;"/><!--MD5=[0380c48cc03698e9c08b2a5affc527cb]
link Player to Undo--><path d="M50.2559,215.918 C66.5579,209.381 89.642,200.221 110,192.5 C130.146,184.859 153.02,176.553 170.396,170.318 " fill="none" id="Player-to-Undo" style="stroke: #A80036; stroke-width: 1.0;"/><polygon fill="#A80036" points="175.145,168.617,165.3233,167.8856,170.4377,170.3028,168.0205,175.4172,175.145,168.617" style="stroke: #A80036; stroke-width: 1.0;"/><!--MD5=[714833a1def7c2d3f9278f33fd9da27b]
link Player to Redo--><path d="M50.0623,224.5 C78.7868,224.5 130.559,224.5 164.605,224.5 " fill="none" id="Player-to-Redo" style="stroke: #A80036; stroke-width: 1.0;"/><polygon fill="#A80036" points="169.911,224.5,160.911,220.5,164.911,224.5,160.911,228.5,169.911,224.5" style="stroke: #A80036; stroke-width: 1.0;"/><!--MD5=[8e8f658c86bf230e4048e4af0c39e552]
link Player to Exit--><path d="M50.2559,233.082 C66.5579,239.619 89.642,248.779 110,256.5 C131.535,264.668 156.187,273.596 173.91,279.942 " fill="none" id="Player-to-Exit" style="stroke: #A80036; stroke-width: 1.0;"/><polygon fill="#A80036" points="178.717,281.66,171.5882,274.8644,174.0087,279.9772,168.8958,282.3977,178.717,281.66" style="stroke: #A80036; stroke-width: 1.0;"/><!--MD5=[4b15e63cbdec9d7363171c88be305ecc]
link Player to Save--><path d="M50.0018,257.274 C64.6543,277.876 85.8595,303.651 110,320.5 C127.668,332.8318 150.63,340.9719 168.668,345.9552 " fill="none" id="Player-to-Save" style="stroke: #A80036; stroke-width: 1.0;"/><polygon fill="#A80036" points="173.616,347.2779,165.9545,341.0891,168.7857,345.9865,163.8882,348.8176,173.616,347.2779" style="stroke: #A80036; stroke-width: 1.0;"/><!--MD5=[5fec2ab2a197ce562aec9d83f689b0ce]
link Player to Resume--><path d="M40.2448,265.309 C52.1011,301.249 74.1264,352.6878 110,384.5 C122.786,395.8387 139.911,403.2612 155.654,408.0718 " fill="none" id="Player-to-Resume" style="stroke: #A80036; stroke-width: 1.0;"/><polygon fill="#A80036" points="160.49,409.4823,152.9717,403.1202,155.6904,408.081,150.7296,410.7996,160.49,409.4823" style="stroke: #A80036; stroke-width: 1.0;"/><!--MD5=[5e631763b1db0894443970c43fdce039]
@startuml
left to right direction
actor Player
usecase Start
usecase ProposeCombination
usecase Undo
usecase Redo
usecase Exit
usecase Save
usecase Resume

Player - -> Start
Player - -> ProposeCombination
Player - -> Undo
Player - -> Redo
Player - -> Exit
Player - -> Save
Player - -> Resume
@enduml

PlantUML version 1.2020.20beta11(Unknown compile time)
(GPL source distribution)
Java Runtime: Java(TM) SE Runtime Environment
JVM: Java HotSpot(TM) 64-Bit Server VM
Default Encoding: UTF-8
Language: en
Country: US
--></g></svg>