<?xml version="1.0" encoding="UTF-8" standalone="no"?><svg xmlns="http://www.w3.org/2000/svg" xmlns:xlink="http://www.w3.org/1999/xlink" contentScriptType="application/ecmascript" contentStyleType="text/css" height="500px" preserveAspectRatio="none" style="width:370px;height:500px;" version="1.1" viewBox="0 0 370 500" width="370px" zoomAndPan="magnify"><defs><filter height="300%" id="f9ic3ddgekciy" width="300%" x="-1" y="-1"><feGaussianBlur result="blurOut" stdDeviation="2.0"/><feColorMatrix in="blurOut" result="blurOut2" type="matrix" values="0 0 0 0 0 0 0 0 0 0 0 0 0 0 0 0 0 0 .4 0"/><feOffset dx="4.0" dy="4.0" in="blurOut2" result="blurOut3"/><feBlend in="SourceGraphic" in2="blurOut3" mode="normal"/></filter></defs><g><g id="State0"><rect fill="#FEFECE" filter="url(#f9ic3ddgekciy)" height="50" rx="12.5" ry="12.5" style="stroke: #A80036; stroke-width: 1.5;" width="50" x="200" y="87"/><line style="stroke: #A80036; stroke-width: 1.5;" x1="200" x2="250" y1="113.2969" y2="113.2969"/><text fill="#000000" font-family="sans-serif" font-size="14" lengthAdjust="spacingAndGlyphs" textLength="0" x="227" y="104.9951"/></g><g id="State1"><rect fill="#FEFECE" filter="url(#f9ic3ddgekciy)" height="50" rx="12.5" ry="12.5" style="stroke: #A80036; stroke-width: 1.5;" width="50" x="7" y="214"/><line style="stroke: #A80036; stroke-width: 1.5;" x1="7" x2="57" y1="240.2969" y2="240.2969"/><text fill="#000000" font-family="sans-serif" font-size="14" lengthAdjust="spacingAndGlyphs" textLength="0" x="34" y="231.9951"/></g><g id="State2"><rect fill="#FEFECE" filter="url(#f9ic3ddgekciy)" height="50" rx="12.5" ry="12.5" style="stroke: #A80036; stroke-width: 1.5;" width="50" x="147" y="341"/><line style="stroke: #A80036; stroke-width: 1.5;" x1="147" x2="197" y1="367.2969" y2="367.2969"/><text fill="#000000" font-family="sans-serif" font-size="14" lengthAdjust="spacingAndGlyphs" textLength="0" x="174" y="358.9951"/></g><ellipse cx="225" cy="16" fill="#000000" filter="url(#f9ic3ddgekciy)" rx="10" ry="10" style="stroke: none; stroke-width: 1.0;"/><ellipse cx="172" cy="478" fill="none" filter="url(#f9ic3ddgekciy)" rx="10" ry="10" style="stroke: #000000; stroke-width: 1.0;"/><ellipse cx="172.5" cy="478.5" fill="#000000" rx="6" ry="6" style="stroke: none; stroke-width: 1.0;"/><!--MD5=[6bf52256a5a3d79cde37855053ede169]
link *start to State0--><path d="M225,26.013 C225,38.698 225,62.409 225,81.57 " fill="none" id="*start-to-State0" style="stroke: #A80036; stroke-width: 1.0;"/><polygon fill="#A80036" points="225,86.84,229,77.84,225,81.84,221,77.84,225,86.84" style="stroke: #A80036; stroke-width: 1.0;"/><!--MD5=[a9c2f088fcd292d29c9f53cd9a680591]
link State0 to State1--><path d="M199.769,129.342 C164.225,152.362 99.5368,194.259 61.7133,218.756 " fill="none" id="State0-to-State1" style="stroke: #A80036; stroke-width: 1.0;"/><polygon fill="#A80036" points="57.2376,221.654,66.9661,220.1192,61.4344,218.9361,62.6175,213.4043,57.2376,221.654" style="stroke: #A80036; stroke-width: 1.0;"/><text fill="#000000" font-family="sans-serif" font-size="13" lengthAdjust="spacingAndGlyphs" textLength="31" x="142" y="180.0669">Start</text><!--MD5=[dcf63a51bdeb3e817e699e6130214cc7]
link State1 to State1--><path d="M57.2777,228.51 C74.7734,225.332 92,228.828 92,239 C92,248.139 78.0949,251.889 62.5823,250.252 " fill="none" id="State1-to-State1" style="stroke: #A80036; stroke-width: 1.0;"/><polygon fill="#A80036" points="57.2777,249.49,65.6176,254.729,62.2269,250.2009,66.755,246.8102,57.2777,249.49" style="stroke: #A80036; stroke-width: 1.0;"/><text fill="#000000" font-family="sans-serif" font-size="13" lengthAdjust="spacingAndGlyphs" textLength="133" x="98" y="243.5669">ProposeCombination</text><!--MD5=[dc702cd49c4e27e6abb2620dc4bb28d8]
link State1 to State2--><path d="M41.9166,264.264 C48.9145,279.13 59.4517,297.777 73,311 C92.7996,330.323 120.906,344.768 142.116,353.832 " fill="none" id="State1-to-State2" style="stroke: #A80036; stroke-width: 1.0;"/><polygon fill="#A80036" points="146.803,355.796,140.0481,348.6286,142.1915,353.8637,136.9564,356.0071,146.803,355.796" style="stroke: #A80036; stroke-width: 1.0;"/><text fill="#000000" font-family="sans-serif" font-size="13" lengthAdjust="spacingAndGlyphs" textLength="189" x="74" y="307.0669">[isWinner || isLooser]Resume</text><!--MD5=[5e39cec6328142e5e49f463209477919]
link State2 to State0--><path d="M197.167,358.646 C220.17,351.354 252.843,336.915 268,311 C299.57,257.02 266.558,182.529 243.435,142.044 " fill="none" id="State2-to-State0" style="stroke: #A80036; stroke-width: 1.0;"/><polygon fill="#A80036" points="240.669,137.28,241.7276,147.0718,243.179,141.6043,248.6465,143.0558,240.669,137.28" style="stroke: #A80036; stroke-width: 1.0;"/><text fill="#000000" font-family="sans-serif" font-size="13" lengthAdjust="spacingAndGlyphs" textLength="81" x="281" y="243.5669">[isResumed]</text><!--MD5=[37ebb224bae70bf8df0e6bab9d19d55b]
link State2 to *end--><path d="M172,391.14 C172,413.0338 172,444.5738 172,462.7062 " fill="none" id="State2-to-*end" style="stroke: #A80036; stroke-width: 1.0;"/><polygon fill="#A80036" points="172,467.8775,176,458.8775,172,462.8775,168,458.8775,172,467.8775" style="stroke: #A80036; stroke-width: 1.0;"/><text fill="#000000" font-family="sans-serif" font-size="13" lengthAdjust="spacingAndGlyphs" textLength="36" x="173" y="434.0669">[else]</text><!--MD5=[33ff0ffb07a3a24a57cba66904abcb66]
@startuml
state State0 as " "
state State1 as " "
state State2 as " "

[*] - -> State0
State0 - -> State1 : Start
State1 - -> State1 : ProposeCombination
State1 - -> State2 : [isWinner || isLooser]Resume
State2 - -> State0 : [isResumed]
State2 - -> [*] : [else]
@enduml

PlantUML version 1.2020.20beta11(Unknown compile time)
(GPL source distribution)
Java Runtime: Java(TM) SE Runtime Environment
JVM: Java HotSpot(TM) 64-Bit Server VM
Default Encoding: UTF-8
Language: en
Country: US
--></g></svg>