<?xml version="1.0" encoding="UTF-8" standalone="no"?><svg xmlns="http://www.w3.org/2000/svg" xmlns:xlink="http://www.w3.org/1999/xlink" contentScriptType="application/ecmascript" contentStyleType="text/css" height="187px" preserveAspectRatio="none" style="width:300px;height:187px;" version="1.1" viewBox="0 0 300 187" width="300px" zoomAndPan="magnify"><defs><filter height="300%" id="frxjlh1uch53t" width="300%" x="-1" y="-1"><feGaussianBlur result="blurOut" stdDeviation="2.0"/><feColorMatrix in="blurOut" result="blurOut2" type="matrix" values="0 0 0 0 0 0 0 0 0 0 0 0 0 0 0 0 0 0 .4 0"/><feOffset dx="4.0" dy="4.0" in="blurOut2" result="blurOut3"/><feBlend in="SourceGraphic" in2="blurOut3" mode="normal"/></filter></defs><g><!--MD5=[de2effd8dc5bf946a609466312d0f75f]
entity Player--><ellipse cx="28" cy="59.5" fill="#FEFECE" filter="url(#frxjlh1uch53t)" rx="8" ry="8" style="stroke: #A80036; stroke-width: 1.5;"/><path d="M28,67.5 L28,94.5 M15,75.5 L41,75.5 M28,94.5 L15,109.5 M28,94.5 L41,109.5 " fill="none" filter="url(#frxjlh1uch53t)" style="stroke: #A80036; stroke-width: 1.5;"/><text fill="#000000" font-family="sans-serif" font-size="14" lengthAdjust="spacingAndGlyphs" textLength="44" x="6" y="127.9951">Player</text><ellipse cx="199.163" cy="20.5236" fill="#FEFECE" filter="url(#frxjlh1uch53t)" rx="29.163" ry="14.5236" style="stroke: #A80036; stroke-width: 1.5;"/><text fill="#000000" font-family="sans-serif" font-size="14" lengthAdjust="spacingAndGlyphs" textLength="37" x="180.663" y="25.1721">Start</text><ellipse cx="199.2318" cy="90.7464" fill="#FEFECE" filter="url(#frxjlh1uch53t)" rx="89.2318" ry="20.2464" style="stroke: #A80036; stroke-width: 1.5;"/><text fill="#000000" font-family="sans-serif" font-size="14" lengthAdjust="spacingAndGlyphs" textLength="152" x="123.2318" y="95.3948">ProposeCombination</text><ellipse cx="198.8051" cy="160.5236" fill="#FEFECE" filter="url(#frxjlh1uch53t)" rx="43.3051" ry="14.5236" style="stroke: #A80036; stroke-width: 1.5;"/><text fill="#000000" font-family="sans-serif" font-size="14" lengthAdjust="spacingAndGlyphs" textLength="57" x="170.3051" y="165.1721">Resume</text><!--MD5=[39353cd92ba960c69c4d2a9385fee2c7]
link Player to Start--><path d="M50.0845,79.9711 C66.2968,72.032 89.3437,61.081 110,52.5 C129.761,44.291 152.465,36.064 169.862,30.008 " fill="none" id="Player-to-Start" style="stroke: #A80036; stroke-width: 1.0;"/><polygon fill="#A80036" points="174.621,28.359,164.8074,27.5264,169.8966,29.9962,167.4269,35.0854,174.621,28.359" style="stroke: #A80036; stroke-width: 1.0;"/><!--MD5=[8dee72b7ea4194df32cfadea21530293]
link Player to ProposeCombination--><path d="M50.0623,90.5 C64.2555,90.5 84.076,90.5 104.6046,90.5 " fill="none" id="Player-to-ProposeCombination" style="stroke: #A80036; stroke-width: 1.0;"/><polygon fill="#A80036" points="109.836,90.5,100.836,86.5,104.836,90.5,100.836,94.5,109.836,90.5" style="stroke: #A80036; stroke-width: 1.0;"/><!--MD5=[5fec2ab2a197ce562aec9d83f689b0ce]
link Player to Resume--><path d="M50.1398,100.6463 C66.381,108.3216 89.4399,118.9613 110,127.5 C127.48,134.7594 147.187,142.2156 163.514,148.1998 " fill="none" id="Player-to-Resume" style="stroke: #A80036; stroke-width: 1.0;"/><polygon fill="#A80036" points="168.466,150.0078,161.383,143.1644,163.7691,148.2934,158.6401,150.6795,168.466,150.0078" style="stroke: #A80036; stroke-width: 1.0;"/><!--MD5=[fabbf49073f4947cb678c74917ec46af]
@startuml
left to right direction

actor Player
usecase Start
usecase ProposeCombination
usecase Resume

Player - -> Start
Player - -> ProposeCombination
Player - -> Resume
@enduml

PlantUML version 1.2020.20beta11(Unknown compile time)
(GPL source distribution)
Java Runtime: Java(TM) SE Runtime Environment
JVM: Java HotSpot(TM) 64-Bit Server VM
Default Encoding: UTF-8
Language: en
Country: US
--></g></svg>