<?xml version="1.0" encoding="UTF-8" standalone="no"?><svg xmlns="http://www.w3.org/2000/svg" xmlns:xlink="http://www.w3.org/1999/xlink" contentScriptType="application/ecmascript" contentStyleType="text/css" height="627px" preserveAspectRatio="none" style="width:327px;height:627px;" version="1.1" viewBox="0 0 327 627" width="327px" zoomAndPan="magnify"><defs><filter height="300%" id="fficy7izj3ah1" width="300%" x="-1" y="-1"><feGaussianBlur result="blurOut" stdDeviation="2.0"/><feColorMatrix in="blurOut" result="blurOut2" type="matrix" values="0 0 0 0 0 0 0 0 0 0 0 0 0 0 0 0 0 0 .4 0"/><feOffset dx="4.0" dy="4.0" in="blurOut2" result="blurOut3"/><feBlend in="SourceGraphic" in2="blurOut3" mode="normal"/></filter></defs><g><g id="State0"><rect fill="#FEFECE" filter="url(#fficy7izj3ah1)" height="50" rx="12.5" ry="12.5" style="stroke: #A80036; stroke-width: 1.5;" width="50" x="187" y="87"/><line style="stroke: #A80036; stroke-width: 1.5;" x1="187" x2="237" y1="113.2969" y2="113.2969"/><text fill="#000000" font-family="sans-serif" font-size="14" lengthAdjust="spacingAndGlyphs" textLength="0" x="214" y="104.9951"/></g><g id="State1"><rect fill="#FEFECE" filter="url(#fficy7izj3ah1)" height="50" rx="12.5" ry="12.5" style="stroke: #A80036; stroke-width: 1.5;" width="50" x="7" y="214"/><line style="stroke: #A80036; stroke-width: 1.5;" x1="7" x2="57" y1="240.2969" y2="240.2969"/><text fill="#000000" font-family="sans-serif" font-size="14" lengthAdjust="spacingAndGlyphs" textLength="0" x="34" y="231.9951"/></g><g id="State2"><rect fill="#FEFECE" filter="url(#fficy7izj3ah1)" height="50" rx="12.5" ry="12.5" style="stroke: #A80036; stroke-width: 1.5;" width="50" x="72" y="341"/><line style="stroke: #A80036; stroke-width: 1.5;" x1="72" x2="122" y1="367.2969" y2="367.2969"/><text fill="#000000" font-family="sans-serif" font-size="14" lengthAdjust="spacingAndGlyphs" textLength="0" x="99" y="358.9951"/></g><g id="State3"><rect fill="#FEFECE" filter="url(#fficy7izj3ah1)" height="50" rx="12.5" ry="12.5" style="stroke: #A80036; stroke-width: 1.5;" width="50" x="176" y="468"/><line style="stroke: #A80036; stroke-width: 1.5;" x1="176" x2="226" y1="494.2969" y2="494.2969"/><text fill="#000000" font-family="sans-serif" font-size="14" lengthAdjust="spacingAndGlyphs" textLength="0" x="203" y="485.9951"/></g><ellipse cx="212" cy="16" fill="#000000" filter="url(#fficy7izj3ah1)" rx="10" ry="10" style="stroke: none; stroke-width: 1.0;"/><ellipse cx="201" cy="605" fill="none" filter="url(#fficy7izj3ah1)" rx="10" ry="10" style="stroke: #000000; stroke-width: 1.0;"/><ellipse cx="201.5" cy="605.5" fill="#000000" rx="6" ry="6" style="stroke: none; stroke-width: 1.0;"/><!--MD5=[6bf52256a5a3d79cde37855053ede169]
link *start to State0--><path d="M212,26.013 C212,38.698 212,62.409 212,81.57 " fill="none" id="*start-to-State0" style="stroke: #A80036; stroke-width: 1.0;"/><polygon fill="#A80036" points="212,86.84,216,77.84,212,81.84,208,77.84,212,86.84" style="stroke: #A80036; stroke-width: 1.0;"/><!--MD5=[a9c2f088fcd292d29c9f53cd9a680591]
link State0 to State1--><path d="M186.972,130.381 C154.018,153.265 96.1816,193.429 61.2485,217.689 " fill="none" id="State0-to-State1" style="stroke: #A80036; stroke-width: 1.0;"/><polygon fill="#A80036" points="57.1052,220.566,66.7792,218.7182,61.2121,217.7141,62.2162,212.1471,57.1052,220.566" style="stroke: #A80036; stroke-width: 1.0;"/><text fill="#000000" font-family="sans-serif" font-size="13" lengthAdjust="spacingAndGlyphs" textLength="31" x="134" y="180.0669">Start</text><!--MD5=[dcf63a51bdeb3e817e699e6130214cc7]
link State1 to State1--><path d="M57.2777,228.51 C74.7734,225.332 92,228.828 92,239 C92,248.139 78.0949,251.889 62.5823,250.252 " fill="none" id="State1-to-State1" style="stroke: #A80036; stroke-width: 1.0;"/><polygon fill="#A80036" points="57.2777,249.49,65.6176,254.729,62.2269,250.2009,66.755,246.8102,57.2777,249.49" style="stroke: #A80036; stroke-width: 1.0;"/><text fill="#000000" font-family="sans-serif" font-size="13" lengthAdjust="spacingAndGlyphs" textLength="133" x="98" y="243.5669">ProposeCombination</text><!--MD5=[dc702cd49c4e27e6abb2620dc4bb28d8]
link State1 to State2--><path d="M44.5327,264.101 C55.2783,284.766 70.7788,314.575 82.1461,336.435 " fill="none" id="State1-to-State2" style="stroke: #A80036; stroke-width: 1.0;"/><polygon fill="#A80036" points="84.5058,340.973,83.9018,331.1427,82.1987,336.5371,76.8043,334.834,84.5058,340.973" style="stroke: #A80036; stroke-width: 1.0;"/><text fill="#000000" font-family="sans-serif" font-size="13" lengthAdjust="spacingAndGlyphs" textLength="136" x="70" y="307.0669">[isWinner || isLooser]</text><!--MD5=[428d136baf6462f9e03ffacdcb621855]
link State2 to State3--><path d="M117.052,391.101 C134.389,411.939 159.462,442.074 177.689,463.982 " fill="none" id="State2-to-State3" style="stroke: #A80036; stroke-width: 1.0;"/><polygon fill="#A80036" points="181.009,467.973,178.3296,458.4956,177.8119,464.1287,172.1788,463.611,181.009,467.973" style="stroke: #A80036; stroke-width: 1.0;"/><text fill="#000000" font-family="sans-serif" font-size="13" lengthAdjust="spacingAndGlyphs" textLength="53" x="157" y="434.0669">Resume</text><!--MD5=[9ae992b0530e61ed3e0e3c2862fdeb00]
link State3 to State0--><path d="M210.273,467.846 C213.487,458.627 216.826,447.944 219,438 C221.61,426.064 246.671,282.467 238,214 C234.875,189.326 227.618,162.053 221.563,142.073 " fill="none" id="State3-to-State0" style="stroke: #A80036; stroke-width: 1.0;"/><polygon fill="#A80036" points="220.053,137.157,218.8725,146.9349,221.5214,141.9365,226.5198,144.5854,220.053,137.157" style="stroke: #A80036; stroke-width: 1.0;"/><text fill="#000000" font-family="sans-serif" font-size="13" lengthAdjust="spacingAndGlyphs" textLength="81" x="238" y="307.0669">[isResumed]</text><!--MD5=[0ea1e5ee684c4e9667d1229adf70964c]
link State3 to *end--><path d="M201,518.14 C201,540.0338 201,571.5738 201,589.7062 " fill="none" id="State3-to-*end" style="stroke: #A80036; stroke-width: 1.0;"/><polygon fill="#A80036" points="201,594.8775,205,585.8775,201,589.8775,197,585.8775,201,594.8775" style="stroke: #A80036; stroke-width: 1.0;"/><text fill="#000000" font-family="sans-serif" font-size="13" lengthAdjust="spacingAndGlyphs" textLength="36" x="202" y="561.0669">[else]</text><!--MD5=[8d2b3944cdd37a6f7b2ac4f77c91a914]
@startuml
state State0 as " "
state State1 as " "
state State2 as " "
state State3 as " "
[*] - -> State0
State0 - -> State1 : Start
State1 - -> State1 : ProposeCombination
State1 - -> State2 : [isWinner || isLooser]
State2 - -> State3 : Resume
State3 - -> State0 : [isResumed]
State3 - -> [*] : [else]
@enduml

PlantUML version 1.2020.20beta11(Unknown compile time)
(GPL source distribution)
Java Runtime: Java(TM) SE Runtime Environment
JVM: Java HotSpot(TM) 64-Bit Server VM
Default Encoding: UTF-8
Language: en
Country: US
--></g></svg>