<?xml version="1.0" encoding="UTF-8" standalone="no"?><svg xmlns="http://www.w3.org/2000/svg" xmlns:xlink="http://www.w3.org/1999/xlink" contentScriptType="application/ecmascript" contentStyleType="text/css" height="754px" preserveAspectRatio="none" style="width:785px;height:754px;" version="1.1" viewBox="0 0 785 754" width="785px" zoomAndPan="magnify"><defs><filter height="300%" id="f146j0ai2mdkoq" width="300%" x="-1" y="-1"><feGaussianBlur result="blurOut" stdDeviation="2.0"/><feColorMatrix in="blurOut" result="blurOut2" type="matrix" values="0 0 0 0 0 0 0 0 0 0 0 0 0 0 0 0 0 0 .4 0"/><feOffset dx="4.0" dy="4.0" in="blurOut2" result="blurOut3"/><feBlend in="SourceGraphic" in2="blurOut3" mode="normal"/></filter></defs><g><g id="State0"><rect fill="#FEFECE" filter="url(#f146j0ai2mdkoq)" height="50" rx="12.5" ry="12.5" style="stroke: #A80036; stroke-width: 1.5;" width="50" x="509" y="87"/><line style="stroke: #A80036; stroke-width: 1.5;" x1="509" x2="559" y1="113.2969" y2="113.2969"/><text fill="#000000" font-family="sans-serif" font-size="14" lengthAdjust="spacingAndGlyphs" textLength="0" x="536" y="104.9951"/></g><g id="State1"><rect fill="#FEFECE" filter="url(#f146j0ai2mdkoq)" height="50" rx="12.5" ry="12.5" style="stroke: #A80036; stroke-width: 1.5;" width="50" x="7" y="214"/><line style="stroke: #A80036; stroke-width: 1.5;" x1="7" x2="57" y1="240.2969" y2="240.2969"/><text fill="#000000" font-family="sans-serif" font-size="14" lengthAdjust="spacingAndGlyphs" textLength="0" x="34" y="231.9951"/></g><g id="State2"><rect fill="#FEFECE" filter="url(#f146j0ai2mdkoq)" height="50" rx="12.5" ry="12.5" style="stroke: #A80036; stroke-width: 1.5;" width="50" x="610" y="595"/><line style="stroke: #A80036; stroke-width: 1.5;" x1="610" x2="660" y1="621.2969" y2="621.2969"/><text fill="#000000" font-family="sans-serif" font-size="14" lengthAdjust="spacingAndGlyphs" textLength="0" x="637" y="612.9951"/></g><g id="State3"><rect fill="#FEFECE" filter="url(#f146j0ai2mdkoq)" height="50" rx="12.5" ry="12.5" style="stroke: #A80036; stroke-width: 1.5;" width="50" x="73" y="341"/><line style="stroke: #A80036; stroke-width: 1.5;" x1="73" x2="123" y1="367.2969" y2="367.2969"/><text fill="#000000" font-family="sans-serif" font-size="14" lengthAdjust="spacingAndGlyphs" textLength="0" x="100" y="358.9951"/></g><g id="State4"><rect fill="#FEFECE" filter="url(#f146j0ai2mdkoq)" height="50" rx="12.5" ry="12.5" style="stroke: #A80036; stroke-width: 1.5;" width="50" x="509" y="468"/><line style="stroke: #A80036; stroke-width: 1.5;" x1="509" x2="559" y1="494.2969" y2="494.2969"/><text fill="#000000" font-family="sans-serif" font-size="14" lengthAdjust="spacingAndGlyphs" textLength="0" x="536" y="485.9951"/></g><ellipse cx="534" cy="16" fill="#000000" filter="url(#f146j0ai2mdkoq)" rx="10" ry="10" style="stroke: none; stroke-width: 1.0;"/><ellipse cx="635" cy="732" fill="none" filter="url(#f146j0ai2mdkoq)" rx="10" ry="10" style="stroke: #000000; stroke-width: 1.0;"/><ellipse cx="635.5" cy="732.5" fill="#000000" rx="6" ry="6" style="stroke: none; stroke-width: 1.0;"/><!--MD5=[6bf52256a5a3d79cde37855053ede169]
link *start to State0--><path d="M534,26.013 C534,38.698 534,62.409 534,81.57 " fill="none" id="*start-to-State0" style="stroke: #A80036; stroke-width: 1.0;"/><polygon fill="#A80036" points="534,86.84,538,77.84,534,81.84,530,77.84,534,86.84" style="stroke: #A80036; stroke-width: 1.0;"/><!--MD5=[a9c2f088fcd292d29c9f53cd9a680591]
link State0 to State1--><path d="M508.762,119.284 C424.562,140.251 153.473,207.753 62.2661,230.464 " fill="none" id="State0-to-State1" style="stroke: #A80036; stroke-width: 1.0;"/><polygon fill="#A80036" points="57.2885,231.703,66.9884,233.4096,62.1403,230.4948,65.0552,225.6467,57.2885,231.703" style="stroke: #A80036; stroke-width: 1.0;"/><text fill="#000000" font-family="sans-serif" font-size="13" lengthAdjust="spacingAndGlyphs" textLength="31" x="315" y="180.0669">Start</text><!--MD5=[dcf63a51bdeb3e817e699e6130214cc7]
link State1 to State1--><path d="M57.2777,235.503 C74.7734,234.444 92,235.609 92,239 C92,242.046 78.0949,243.296 62.5823,242.751 " fill="none" id="State1-to-State1" style="stroke: #A80036; stroke-width: 1.0;"/><polygon fill="#A80036" points="57.2777,242.497,66.0761,246.9229,62.272,242.7361,66.4587,238.932,57.2777,242.497" style="stroke: #A80036; stroke-width: 1.0;"/><text fill="#000000" font-family="sans-serif" font-size="13" lengthAdjust="spacingAndGlyphs" textLength="133" x="98" y="243.5669">ProposeCombination</text><!--MD5=[dcf63a51bdeb3e817e699e6130214cc7]
link State1 to State1--><path d="M57.2272,234.789 C115.309,228.938 237,230.342 237,239 C237,247.405 122.335,248.973 62.4912,243.706 " fill="none" id="State1-to-State1-1" style="stroke: #A80036; stroke-width: 1.0;"/><polygon fill="#A80036" points="57.2272,243.211,65.8125,248.0372,62.2052,243.6798,66.5626,240.0725,57.2272,243.211" style="stroke: #A80036; stroke-width: 1.0;"/><text fill="#000000" font-family="sans-serif" font-size="13" lengthAdjust="spacingAndGlyphs" textLength="102" x="243" y="243.5669">[undoable]Undo</text><!--MD5=[dcf63a51bdeb3e817e699e6130214cc7]
link State1 to State1--><path d="M57.0607,234.051 C138.054,223.727 351,225.377 351,239 C351,252.344 146.699,254.2 62.2072,244.569 " fill="none" id="State1-to-State1-2" style="stroke: #A80036; stroke-width: 1.0;"/><polygon fill="#A80036" points="57.0607,243.949,65.5176,248.9969,62.0248,244.5471,66.4746,241.0543,57.0607,243.949" style="stroke: #A80036; stroke-width: 1.0;"/><text fill="#000000" font-family="sans-serif" font-size="13" lengthAdjust="spacingAndGlyphs" textLength="99" x="357" y="243.5669">[redoable]Redo</text><!--MD5=[98642968b161d6b5aa442c8e772df306]
link State1 to State3--><path d="M25.4298,264.19 C22.8584,278.498 21.9751,296.582 29,311 C37.2118,327.854 53.51,340.996 68.2049,350.094 " fill="none" id="State1-to-State3" style="stroke: #A80036; stroke-width: 1.0;"/><polygon fill="#A80036" points="72.7032,352.787,67.036,344.732,68.4133,350.2186,62.9266,351.5959,72.7032,352.787" style="stroke: #A80036; stroke-width: 1.0;"/><text fill="#000000" font-family="sans-serif" font-size="13" lengthAdjust="spacingAndGlyphs" textLength="24" x="30" y="307.0669">Exit</text><!--MD5=[98642968b161d6b5aa442c8e772df306]
link State1 to State3--><path d="M44.7255,264.101 C55.6365,284.766 71.3754,314.575 82.9176,336.435 " fill="none" id="State1-to-State3-1" style="stroke: #A80036; stroke-width: 1.0;"/><polygon fill="#A80036" points="85.3136,340.973,84.649,331.1466,82.9792,336.5514,77.5744,334.8816,85.3136,340.973" style="stroke: #A80036; stroke-width: 1.0;"/><text fill="#000000" font-family="sans-serif" font-size="13" lengthAdjust="spacingAndGlyphs" textLength="136" x="70" y="307.0669">[isWinner || isLooser]</text><!--MD5=[ba4168f70349cc0467fd74c2e3858fc7]
link State3 to State4--><path d="M123.007,374.17 C198.169,395.718 421.886,459.857 503.645,483.297 " fill="none" id="State3-to-State4" style="stroke: #A80036; stroke-width: 1.0;"/><polygon fill="#A80036" points="508.822,484.782,501.2716,478.4581,504.0154,483.405,499.0684,486.1487,508.822,484.782" style="stroke: #A80036; stroke-width: 1.0;"/><text fill="#000000" font-family="sans-serif" font-size="13" lengthAdjust="spacingAndGlyphs" textLength="32" x="344" y="434.0669">Save</text><!--MD5=[93b975ae79a95d342785a7ad49888945]
link State0 to State4--><path d="M533.272,137.077 C532.226,174.348 530.48,248.261 531,311 C531.444,364.617 532.629,427.159 533.37,462.916 " fill="none" id="State0-to-State4" style="stroke: #A80036; stroke-width: 1.0;"/><polygon fill="#A80036" points="533.476,467.994,537.2874,458.9125,533.3717,462.9951,529.2891,459.0794,533.476,467.994" style="stroke: #A80036; stroke-width: 1.0;"/><text fill="#000000" font-family="sans-serif" font-size="13" lengthAdjust="spacingAndGlyphs" textLength="136" x="532" y="307.0669">[isWinner || isLooser]</text><!--MD5=[5e39cec6328142e5e49f463209477919]
link State2 to State0--><path d="M654.646,594.791 C672.145,570.735 695,532.034 695,494 C695,238 695,238 695,238 C695,172.446 610.693,136.31 564.094,121.344 " fill="none" id="State2-to-State0" style="stroke: #A80036; stroke-width: 1.0;"/><polygon fill="#A80036" points="559.156,119.792,566.5416,126.3076,563.9257,121.2919,568.9414,118.6761,559.156,119.792" style="stroke: #A80036; stroke-width: 1.0;"/><text fill="#000000" font-family="sans-serif" font-size="13" lengthAdjust="spacingAndGlyphs" textLength="81" x="696" y="370.5669">[isResumed]</text><!--MD5=[7065fc78f72d7464487d94bfa1e5711f]
link State4 to State2--><path d="M553.474,518.101 C570.311,538.939 594.66,569.074 612.361,590.982 " fill="none" id="State4-to-State2" style="stroke: #A80036; stroke-width: 1.0;"/><polygon fill="#A80036" points="615.586,594.973,613.0435,585.458,612.4446,591.0831,606.8195,590.4842,615.586,594.973" style="stroke: #A80036; stroke-width: 1.0;"/><text fill="#000000" font-family="sans-serif" font-size="13" lengthAdjust="spacingAndGlyphs" textLength="53" x="591" y="561.0669">Resume</text><!--MD5=[37ebb224bae70bf8df0e6bab9d19d55b]
link State2 to *end--><path d="M635,645.14 C635,667.0338 635,698.5738 635,716.7062 " fill="none" id="State2-to-*end" style="stroke: #A80036; stroke-width: 1.0;"/><polygon fill="#A80036" points="635,721.8775,639,712.8775,635,716.8775,631,712.8775,635,721.8775" style="stroke: #A80036; stroke-width: 1.0;"/><text fill="#000000" font-family="sans-serif" font-size="13" lengthAdjust="spacingAndGlyphs" textLength="36" x="636" y="688.0669">[else]</text><!--MD5=[8435211c6f84b2f4c14c9978fa29e080]
@startuml
state State0 as " "
state State1 as " "
state State2 as " "
state State3 as " "
state State4 as " "
[*] - -> State0
State0 - -> State1 : Start
State1 - -> State1 : ProposeCombination
State1 - -> State1 : [undoable]Undo
State1 - -> State1 : [redoable]Redo
State1 - -> State3 : Exit
State3 - -> State4 : Save
State1 - -> State3 : [isWinner || isLooser]
State0 - -> State4 : [isWinner || isLooser]
State2 - -> State0 : [isResumed]
State4 - -> State2 : Resume
State2 - -> [*] : [else]
@enduml

PlantUML version 1.2020.20beta11(Unknown compile time)
(GPL source distribution)
Java Runtime: Java(TM) SE Runtime Environment
JVM: Java HotSpot(TM) 64-Bit Server VM
Default Encoding: UTF-8
Language: en
Country: US
--></g></svg>