<?xml version="1.0" encoding="UTF-8" standalone="no"?><svg xmlns="http://www.w3.org/2000/svg" xmlns:xlink="http://www.w3.org/1999/xlink" contentScriptType="application/ecmascript" contentStyleType="text/css" height="738px" preserveAspectRatio="none" style="width:1322px;height:738px;" version="1.1" viewBox="0 0 1322 738" width="1322px" zoomAndPan="magnify"><defs><filter height="300%" id="f5me3a2oi7tmx" width="300%" x="-1" y="-1"><feGaussianBlur result="blurOut" stdDeviation="2.0"/><feColorMatrix in="blurOut" result="blurOut2" type="matrix" values="0 0 0 0 0 0 0 0 0 0 0 0 0 0 0 0 0 0 .4 0"/><feOffset dx="4.0" dy="4.0" in="blurOut2" result="blurOut3"/><feBlend in="SourceGraphic" in2="blurOut3" mode="normal"/></filter></defs><g><!--MD5=[e2a75efa8a0f57c2afae8bf75386f79c]
cluster views--><polygon fill="#FFFFFF" filter="url(#f5me3a2oi7tmx)" points="370.5,6,421.5,6,428.5,28.2969,1087.5,28.2969,1087.5,627,370.5,627,370.5,6" style="stroke:#000000;stroke-width:1.5;"/><line style="stroke:#000000;stroke-width:1.5;" x1="370.5" x2="428.5" y1="28.2969" y2="28.2969"/><text fill="#000000" font-family="sans-serif" font-size="14" font-weight="bold" lengthAdjust="spacing" textLength="45" x="374.5" y="20.9951">views</text><!--MD5=[af194e474b2c37e443a340884399de77]
class PlayerView--><rect codeLine="2" fill="#FEFECE" filter="url(#f5me3a2oi7tmx)" height="48" id="PlayerView" style="stroke:#A80036;stroke-width:1.5;" width="97" x="623" y="41"/><ellipse cx="638" cy="57" fill="#ADD1B2" rx="11" ry="11" style="stroke:#A80036;stroke-width:1.0;"/><path d="M640.3438,52.6719 C639.4063,52.2344 638.8125,52.0938 637.9375,52.0938 C635.3125,52.0938 633.3125,54.1719 633.3125,56.8906 L633.3125,58.0156 C633.3125,60.5938 635.4219,62.4844 638.3125,62.4844 C639.5313,62.4844 640.6875,62.1875 641.4375,61.6406 C642.0156,61.2344 642.3438,60.7813 642.3438,60.3906 C642.3438,59.9375 641.9531,59.5469 641.4844,59.5469 C641.2656,59.5469 641.0625,59.625 640.875,59.8125 C640.4219,60.2969 640.4219,60.2969 640.2344,60.3906 C639.8125,60.6563 639.125,60.7813 638.3594,60.7813 C636.3125,60.7813 635.0156,59.6875 635.0156,57.9844 L635.0156,56.8906 C635.0156,55.1094 636.2656,53.7969 638,53.7969 C638.5781,53.7969 639.1875,53.9531 639.6563,54.2031 C640.1406,54.4844 640.3125,54.7031 640.4063,55.1094 C640.4688,55.5156 640.5,55.6406 640.6406,55.7656 C640.7813,55.9063 641.0156,56.0156 641.2344,56.0156 C641.5,56.0156 641.7656,55.875 641.9375,55.6563 C642.0469,55.5 642.0781,55.3125 642.0781,54.8906 L642.0781,53.4688 C642.0781,53.0313 642.0625,52.9063 641.9688,52.75 C641.8125,52.4844 641.5313,52.3438 641.2344,52.3438 C640.9375,52.3438 640.7344,52.4375 640.5156,52.75 L640.3438,52.6719 Z " fill="#000000"/><text fill="#000000" font-family="sans-serif" font-size="12" lengthAdjust="spacing" textLength="65" x="652" y="61.1543">PlayerView</text><line style="stroke:#A80036;stroke-width:1.5;" x1="624" x2="719" y1="73" y2="73"/><line style="stroke:#A80036;stroke-width:1.5;" x1="624" x2="719" y1="81" y2="81"/><!--MD5=[443c52daef265809fdf31be84fc8ae4a]
class StartView--><rect codeLine="3" fill="#FEFECE" filter="url(#f5me3a2oi7tmx)" height="60.8047" id="StartView" style="stroke:#A80036;stroke-width:1.5;" width="141" x="601" y="149"/><ellipse cx="639.4" cy="165" fill="#ADD1B2" rx="11" ry="11" style="stroke:#A80036;stroke-width:1.0;"/><path d="M641.7438,160.6719 C640.8063,160.2344 640.2125,160.0938 639.3375,160.0938 C636.7125,160.0938 634.7125,162.1719 634.7125,164.8906 L634.7125,166.0156 C634.7125,168.5938 636.8219,170.4844 639.7125,170.4844 C640.9313,170.4844 642.0875,170.1875 642.8375,169.6406 C643.4156,169.2344 643.7438,168.7813 643.7438,168.3906 C643.7438,167.9375 643.3531,167.5469 642.8844,167.5469 C642.6656,167.5469 642.4625,167.625 642.275,167.8125 C641.8219,168.2969 641.8219,168.2969 641.6344,168.3906 C641.2125,168.6563 640.525,168.7813 639.7594,168.7813 C637.7125,168.7813 636.4156,167.6875 636.4156,165.9844 L636.4156,164.8906 C636.4156,163.1094 637.6656,161.7969 639.4,161.7969 C639.9781,161.7969 640.5875,161.9531 641.0563,162.2031 C641.5406,162.4844 641.7125,162.7031 641.8063,163.1094 C641.8688,163.5156 641.9,163.6406 642.0406,163.7656 C642.1813,163.9063 642.4156,164.0156 642.6344,164.0156 C642.9,164.0156 643.1656,163.875 643.3375,163.6563 C643.4469,163.5 643.4781,163.3125 643.4781,162.8906 L643.4781,161.4688 C643.4781,161.0313 643.4625,160.9063 643.3688,160.75 C643.2125,160.4844 642.9313,160.3438 642.6344,160.3438 C642.3375,160.3438 642.1344,160.4375 641.9156,160.75 L641.7438,160.6719 Z " fill="#000000"/><text fill="#000000" font-family="sans-serif" font-size="12" lengthAdjust="spacing" textLength="57" x="658.6" y="169.1543">StartView</text><line style="stroke:#A80036;stroke-width:1.5;" x1="602" x2="741" y1="181" y2="181"/><line style="stroke:#A80036;stroke-width:1.5;" x1="602" x2="741" y1="189" y2="189"/><polygon fill="#4177AF" points="612,196,608,202,616,202" style="stroke:#1963A0;stroke-width:1.0;"/><text fill="#000000" font-family="sans-serif" font-size="11" lengthAdjust="spacing" textLength="115" x="621" y="203.2104">start(StartController)</text><!--MD5=[af548d7eeba3607a103157b84173e841]
class ProposeView--><rect codeLine="6" fill="#FEFECE" filter="url(#f5me3a2oi7tmx)" height="60.8047" id="ProposeView" style="stroke:#A80036;stroke-width:1.5;" width="180" x="777.5" y="149"/><ellipse cx="823.75" cy="165" fill="#ADD1B2" rx="11" ry="11" style="stroke:#A80036;stroke-width:1.0;"/><path d="M826.0938,160.6719 C825.1563,160.2344 824.5625,160.0938 823.6875,160.0938 C821.0625,160.0938 819.0625,162.1719 819.0625,164.8906 L819.0625,166.0156 C819.0625,168.5938 821.1719,170.4844 824.0625,170.4844 C825.2813,170.4844 826.4375,170.1875 827.1875,169.6406 C827.7656,169.2344 828.0938,168.7813 828.0938,168.3906 C828.0938,167.9375 827.7031,167.5469 827.2344,167.5469 C827.0156,167.5469 826.8125,167.625 826.625,167.8125 C826.1719,168.2969 826.1719,168.2969 825.9844,168.3906 C825.5625,168.6563 824.875,168.7813 824.1094,168.7813 C822.0625,168.7813 820.7656,167.6875 820.7656,165.9844 L820.7656,164.8906 C820.7656,163.1094 822.0156,161.7969 823.75,161.7969 C824.3281,161.7969 824.9375,161.9531 825.4063,162.2031 C825.8906,162.4844 826.0625,162.7031 826.1563,163.1094 C826.2188,163.5156 826.25,163.6406 826.3906,163.7656 C826.5313,163.9063 826.7656,164.0156 826.9844,164.0156 C827.25,164.0156 827.5156,163.875 827.6875,163.6563 C827.7969,163.5 827.8281,163.3125 827.8281,162.8906 L827.8281,161.4688 C827.8281,161.0313 827.8125,160.9063 827.7188,160.75 C827.5625,160.4844 827.2813,160.3438 826.9844,160.3438 C826.6875,160.3438 826.4844,160.4375 826.2656,160.75 L826.0938,160.6719 Z " fill="#000000"/><text fill="#000000" font-family="sans-serif" font-size="12" lengthAdjust="spacing" textLength="79" x="844.25" y="169.1543">ProposeView</text><line style="stroke:#A80036;stroke-width:1.5;" x1="778.5" x2="956.5" y1="181" y2="181"/><line style="stroke:#A80036;stroke-width:1.5;" x1="778.5" x2="956.5" y1="189" y2="189"/><polygon fill="#4177AF" points="788.5,196,784.5,202,792.5,202" style="stroke:#1963A0;stroke-width:1.0;"/><text fill="#000000" font-family="sans-serif" font-size="11" lengthAdjust="spacing" textLength="154" x="797.5" y="203.2104">propose(ProposeController)</text><!--MD5=[19088a99a8c1f36e582d33ac2f8fc6dd]
class ResumeView--><rect codeLine="9" fill="#FEFECE" filter="url(#f5me3a2oi7tmx)" height="60.8047" id="ResumeView" style="stroke:#A80036;stroke-width:1.5;" width="233" x="387" y="270"/><ellipse cx="460.75" cy="286" fill="#ADD1B2" rx="11" ry="11" style="stroke:#A80036;stroke-width:1.0;"/><path d="M463.0938,281.6719 C462.1563,281.2344 461.5625,281.0938 460.6875,281.0938 C458.0625,281.0938 456.0625,283.1719 456.0625,285.8906 L456.0625,287.0156 C456.0625,289.5938 458.1719,291.4844 461.0625,291.4844 C462.2813,291.4844 463.4375,291.1875 464.1875,290.6406 C464.7656,290.2344 465.0938,289.7813 465.0938,289.3906 C465.0938,288.9375 464.7031,288.5469 464.2344,288.5469 C464.0156,288.5469 463.8125,288.625 463.625,288.8125 C463.1719,289.2969 463.1719,289.2969 462.9844,289.3906 C462.5625,289.6563 461.875,289.7813 461.1094,289.7813 C459.0625,289.7813 457.7656,288.6875 457.7656,286.9844 L457.7656,285.8906 C457.7656,284.1094 459.0156,282.7969 460.75,282.7969 C461.3281,282.7969 461.9375,282.9531 462.4063,283.2031 C462.8906,283.4844 463.0625,283.7031 463.1563,284.1094 C463.2188,284.5156 463.25,284.6406 463.3906,284.7656 C463.5313,284.9063 463.7656,285.0156 463.9844,285.0156 C464.25,285.0156 464.5156,284.875 464.6875,284.6563 C464.7969,284.5 464.8281,284.3125 464.8281,283.8906 L464.8281,282.4688 C464.8281,282.0313 464.8125,281.9063 464.7188,281.75 C464.5625,281.4844 464.2813,281.3438 463.9844,281.3438 C463.6875,281.3438 463.4844,281.4375 463.2656,281.75 L463.0938,281.6719 Z " fill="#000000"/><text fill="#000000" font-family="sans-serif" font-size="12" lengthAdjust="spacing" textLength="77" x="481.25" y="290.1543">ResumeView</text><line style="stroke:#A80036;stroke-width:1.5;" x1="388" x2="619" y1="302" y2="302"/><line style="stroke:#A80036;stroke-width:1.5;" x1="388" x2="619" y1="310" y2="310"/><polygon fill="#4177AF" points="398,317,394,323,402,323" style="stroke:#1963A0;stroke-width:1.0;"/><text fill="#000000" font-family="sans-serif" font-size="11" lengthAdjust="spacing" textLength="207" x="407" y="324.2104">resume(ResumeController): boolean</text><!--MD5=[9b237e88d697a058bd530d6510c96c00]
class BoardView--><rect codeLine="12" fill="#FEFECE" filter="url(#f5me3a2oi7tmx)" height="60.8047" id="BoardView" style="stroke:#A80036;stroke-width:1.5;" width="117" x="693" y="270"/><ellipse cx="717" cy="286" fill="#ADD1B2" rx="11" ry="11" style="stroke:#A80036;stroke-width:1.0;"/><path d="M719.3438,281.6719 C718.4063,281.2344 717.8125,281.0938 716.9375,281.0938 C714.3125,281.0938 712.3125,283.1719 712.3125,285.8906 L712.3125,287.0156 C712.3125,289.5938 714.4219,291.4844 717.3125,291.4844 C718.5313,291.4844 719.6875,291.1875 720.4375,290.6406 C721.0156,290.2344 721.3438,289.7813 721.3438,289.3906 C721.3438,288.9375 720.9531,288.5469 720.4844,288.5469 C720.2656,288.5469 720.0625,288.625 719.875,288.8125 C719.4219,289.2969 719.4219,289.2969 719.2344,289.3906 C718.8125,289.6563 718.125,289.7813 717.3594,289.7813 C715.3125,289.7813 714.0156,288.6875 714.0156,286.9844 L714.0156,285.8906 C714.0156,284.1094 715.2656,282.7969 717,282.7969 C717.5781,282.7969 718.1875,282.9531 718.6563,283.2031 C719.1406,283.4844 719.3125,283.7031 719.4063,284.1094 C719.4688,284.5156 719.5,284.6406 719.6406,284.7656 C719.7813,284.9063 720.0156,285.0156 720.2344,285.0156 C720.5,285.0156 720.7656,284.875 720.9375,284.6563 C721.0469,284.5 721.0781,284.3125 721.0781,283.8906 L721.0781,282.4688 C721.0781,282.0313 721.0625,281.9063 720.9688,281.75 C720.8125,281.4844 720.5313,281.3438 720.2344,281.3438 C719.9375,281.3438 719.7344,281.4375 719.5156,281.75 L719.3438,281.6719 Z " fill="#000000"/><text fill="#000000" font-family="sans-serif" font-size="12" lengthAdjust="spacing" textLength="65" x="733" y="290.1543">BoardView</text><line style="stroke:#A80036;stroke-width:1.5;" x1="694" x2="809" y1="302" y2="302"/><line style="stroke:#A80036;stroke-width:1.5;" x1="694" x2="809" y1="310" y2="310"/><polygon fill="#4177AF" points="704,317,700,323,708,323" style="stroke:#1963A0;stroke-width:1.0;"/><text fill="#000000" font-family="sans-serif" font-size="11" lengthAdjust="spacing" textLength="91" x="713" y="324.2104">write(Controller)</text><!--MD5=[0523615cfa2fa70c8ab764401f29a299]
class ProposedCombinationView--><rect codeLine="15" fill="#FEFECE" filter="url(#f5me3a2oi7tmx)" height="73.6094" id="ProposedCombinationView" style="stroke:#A80036;stroke-width:1.5;" width="193" x="878" y="391"/><ellipse cx="893" cy="407" fill="#ADD1B2" rx="11" ry="11" style="stroke:#A80036;stroke-width:1.0;"/><path d="M895.3438,402.6719 C894.4063,402.2344 893.8125,402.0938 892.9375,402.0938 C890.3125,402.0938 888.3125,404.1719 888.3125,406.8906 L888.3125,408.0156 C888.3125,410.5938 890.4219,412.4844 893.3125,412.4844 C894.5313,412.4844 895.6875,412.1875 896.4375,411.6406 C897.0156,411.2344 897.3438,410.7813 897.3438,410.3906 C897.3438,409.9375 896.9531,409.5469 896.4844,409.5469 C896.2656,409.5469 896.0625,409.625 895.875,409.8125 C895.4219,410.2969 895.4219,410.2969 895.2344,410.3906 C894.8125,410.6563 894.125,410.7813 893.3594,410.7813 C891.3125,410.7813 890.0156,409.6875 890.0156,407.9844 L890.0156,406.8906 C890.0156,405.1094 891.2656,403.7969 893,403.7969 C893.5781,403.7969 894.1875,403.9531 894.6563,404.2031 C895.1406,404.4844 895.3125,404.7031 895.4063,405.1094 C895.4688,405.5156 895.5,405.6406 895.6406,405.7656 C895.7813,405.9063 896.0156,406.0156 896.2344,406.0156 C896.5,406.0156 896.7656,405.875 896.9375,405.6563 C897.0469,405.5 897.0781,405.3125 897.0781,404.8906 L897.0781,403.4688 C897.0781,403.0313 897.0625,402.9063 896.9688,402.75 C896.8125,402.4844 896.5313,402.3438 896.2344,402.3438 C895.9375,402.3438 895.7344,402.4375 895.5156,402.75 L895.3438,402.6719 Z " fill="#000000"/><text fill="#000000" font-family="sans-serif" font-size="12" lengthAdjust="spacing" textLength="161" x="907" y="411.1543">ProposedCombinationView</text><line style="stroke:#A80036;stroke-width:1.5;" x1="879" x2="1070" y1="423" y2="423"/><line style="stroke:#A80036;stroke-width:1.5;" x1="879" x2="1070" y1="431" y2="431"/><polygon fill="#4177AF" points="889,438,885,444,893,444" style="stroke:#1963A0;stroke-width:1.0;"/><text fill="#000000" font-family="sans-serif" font-size="11" lengthAdjust="spacing" textLength="136" x="898" y="445.2104">write(ProposeController)</text><polygon fill="#4177AF" points="889,450.8047,885,456.8047,893,456.8047" style="stroke:#1963A0;stroke-width:1.0;"/><text fill="#000000" font-family="sans-serif" font-size="11" lengthAdjust="spacing" textLength="107" x="898" y="458.0151">read(): List&lt;Color&gt;</text><!--MD5=[94936c1138d9bd95716606726ba703b1]
class SecretCombinationView--><rect codeLine="19" fill="#FEFECE" filter="url(#f5me3a2oi7tmx)" height="60.8047" id="SecretCombinationView" style="stroke:#A80036;stroke-width:1.5;" width="175" x="593" y="397.5"/><ellipse cx="608" cy="413.5" fill="#ADD1B2" rx="11" ry="11" style="stroke:#A80036;stroke-width:1.0;"/><path d="M610.3438,409.1719 C609.4063,408.7344 608.8125,408.5938 607.9375,408.5938 C605.3125,408.5938 603.3125,410.6719 603.3125,413.3906 L603.3125,414.5156 C603.3125,417.0938 605.4219,418.9844 608.3125,418.9844 C609.5313,418.9844 610.6875,418.6875 611.4375,418.1406 C612.0156,417.7344 612.3438,417.2813 612.3438,416.8906 C612.3438,416.4375 611.9531,416.0469 611.4844,416.0469 C611.2656,416.0469 611.0625,416.125 610.875,416.3125 C610.4219,416.7969 610.4219,416.7969 610.2344,416.8906 C609.8125,417.1563 609.125,417.2813 608.3594,417.2813 C606.3125,417.2813 605.0156,416.1875 605.0156,414.4844 L605.0156,413.3906 C605.0156,411.6094 606.2656,410.2969 608,410.2969 C608.5781,410.2969 609.1875,410.4531 609.6563,410.7031 C610.1406,410.9844 610.3125,411.2031 610.4063,411.6094 C610.4688,412.0156 610.5,412.1406 610.6406,412.2656 C610.7813,412.4063 611.0156,412.5156 611.2344,412.5156 C611.5,412.5156 611.7656,412.375 611.9375,412.1563 C612.0469,412 612.0781,411.8125 612.0781,411.3906 L612.0781,409.9688 C612.0781,409.5313 612.0625,409.4063 611.9688,409.25 C611.8125,408.9844 611.5313,408.8438 611.2344,408.8438 C610.9375,408.8438 610.7344,408.9375 610.5156,409.25 L610.3438,409.1719 Z " fill="#000000"/><text fill="#000000" font-family="sans-serif" font-size="12" lengthAdjust="spacing" textLength="143" x="622" y="417.6543">SecretCombinationView</text><line style="stroke:#A80036;stroke-width:1.5;" x1="594" x2="767" y1="429.5" y2="429.5"/><line style="stroke:#A80036;stroke-width:1.5;" x1="594" x2="767" y1="437.5" y2="437.5"/><polygon fill="#4177AF" points="604,444.5,600,450.5,608,450.5" style="stroke:#1963A0;stroke-width:1.0;"/><text fill="#000000" font-family="sans-serif" font-size="11" lengthAdjust="spacing" textLength="36" x="613" y="451.7104">write()</text><!--MD5=[a40873b740e53ca026148d30ccb3c321]
class ResultView--><rect codeLine="22" fill="#FEFECE" filter="url(#f5me3a2oi7tmx)" height="60.8047" id="ResultView" style="stroke:#A80036;stroke-width:1.5;" width="97" x="461" y="397.5"/><ellipse cx="476" cy="413.5" fill="#ADD1B2" rx="11" ry="11" style="stroke:#A80036;stroke-width:1.0;"/><path d="M478.3438,409.1719 C477.4063,408.7344 476.8125,408.5938 475.9375,408.5938 C473.3125,408.5938 471.3125,410.6719 471.3125,413.3906 L471.3125,414.5156 C471.3125,417.0938 473.4219,418.9844 476.3125,418.9844 C477.5313,418.9844 478.6875,418.6875 479.4375,418.1406 C480.0156,417.7344 480.3438,417.2813 480.3438,416.8906 C480.3438,416.4375 479.9531,416.0469 479.4844,416.0469 C479.2656,416.0469 479.0625,416.125 478.875,416.3125 C478.4219,416.7969 478.4219,416.7969 478.2344,416.8906 C477.8125,417.1563 477.125,417.2813 476.3594,417.2813 C474.3125,417.2813 473.0156,416.1875 473.0156,414.4844 L473.0156,413.3906 C473.0156,411.6094 474.2656,410.2969 476,410.2969 C476.5781,410.2969 477.1875,410.4531 477.6563,410.7031 C478.1406,410.9844 478.3125,411.2031 478.4063,411.6094 C478.4688,412.0156 478.5,412.1406 478.6406,412.2656 C478.7813,412.4063 479.0156,412.5156 479.2344,412.5156 C479.5,412.5156 479.7656,412.375 479.9375,412.1563 C480.0469,412 480.0781,411.8125 480.0781,411.3906 L480.0781,409.9688 C480.0781,409.5313 480.0625,409.4063 479.9688,409.25 C479.8125,408.9844 479.5313,408.8438 479.2344,408.8438 C478.9375,408.8438 478.7344,408.9375 478.5156,409.25 L478.3438,409.1719 Z " fill="#000000"/><text fill="#000000" font-family="sans-serif" font-size="12" lengthAdjust="spacing" textLength="65" x="490" y="417.6543">ResultView</text><line style="stroke:#A80036;stroke-width:1.5;" x1="462" x2="557" y1="429.5" y2="429.5"/><line style="stroke:#A80036;stroke-width:1.5;" x1="462" x2="557" y1="437.5" y2="437.5"/><polygon fill="#4177AF" points="472,444.5,468,450.5,476,450.5" style="stroke:#1963A0;stroke-width:1.0;"/><text fill="#000000" font-family="sans-serif" font-size="11" lengthAdjust="spacing" textLength="71" x="481" y="451.7104">write(int, int)</text><!--MD5=[5c0d2bf114541dffca76af5edd55a1b5]
class ColorView--><rect codeLine="25" fill="#FEFECE" filter="url(#f5me3a2oi7tmx)" height="73.6094" id="ColorView" style="stroke:#A80036;stroke-width:1.5;" width="96" x="797.5" y="531"/><ellipse cx="813.85" cy="547" fill="#ADD1B2" rx="11" ry="11" style="stroke:#A80036;stroke-width:1.0;"/><path d="M816.1938,542.6719 C815.2563,542.2344 814.6625,542.0938 813.7875,542.0938 C811.1625,542.0938 809.1625,544.1719 809.1625,546.8906 L809.1625,548.0156 C809.1625,550.5938 811.2719,552.4844 814.1625,552.4844 C815.3813,552.4844 816.5375,552.1875 817.2875,551.6406 C817.8656,551.2344 818.1938,550.7813 818.1938,550.3906 C818.1938,549.9375 817.8031,549.5469 817.3344,549.5469 C817.1156,549.5469 816.9125,549.625 816.725,549.8125 C816.2719,550.2969 816.2719,550.2969 816.0844,550.3906 C815.6625,550.6563 814.975,550.7813 814.2094,550.7813 C812.1625,550.7813 810.8656,549.6875 810.8656,547.9844 L810.8656,546.8906 C810.8656,545.1094 812.1156,543.7969 813.85,543.7969 C814.4281,543.7969 815.0375,543.9531 815.5063,544.2031 C815.9906,544.4844 816.1625,544.7031 816.2563,545.1094 C816.3188,545.5156 816.35,545.6406 816.4906,545.7656 C816.6313,545.9063 816.8656,546.0156 817.0844,546.0156 C817.35,546.0156 817.6156,545.875 817.7875,545.6563 C817.8969,545.5 817.9281,545.3125 817.9281,544.8906 L817.9281,543.4688 C817.9281,543.0313 817.9125,542.9063 817.8188,542.75 C817.6625,542.4844 817.3813,542.3438 817.0844,542.3438 C816.7875,542.3438 816.5844,542.4375 816.3656,542.75 L816.1938,542.6719 Z " fill="#000000"/><text fill="#000000" font-family="sans-serif" font-size="12" lengthAdjust="spacing" textLength="61" x="828.15" y="551.1543">ColorView</text><line style="stroke:#A80036;stroke-width:1.5;" x1="798.5" x2="892.5" y1="563" y2="563"/><line style="stroke:#A80036;stroke-width:1.5;" x1="798.5" x2="892.5" y1="571" y2="571"/><polygon fill="#4177AF" points="808.5,578,804.5,584,812.5,584" style="stroke:#1963A0;stroke-width:1.0;"/><text fill="#000000" font-family="sans-serif" font-size="11" lengthAdjust="spacing" textLength="65" x="817.5" y="585.2104">write(Color)</text><polygon fill="#4177AF" points="808.5,590.8047,804.5,596.8047,812.5,596.8047" style="stroke:#1963A0;stroke-width:1.0;"/><text fill="#000000" font-family="sans-serif" font-size="11" lengthAdjust="spacing" textLength="70" x="817.5" y="598.0151">read(): Color</text><!--MD5=[bea5b0d46523efab5ea1c1d339f396f0]
class Message--><rect codeLine="29" fill="#FEFECE" filter="url(#f5me3a2oi7tmx)" height="86.4141" id="Message" style="stroke:#A80036;stroke-width:1.5;" width="97" x="665" y="525"/><ellipse cx="684.5" cy="541" fill="#EB937F" rx="11" ry="11" style="stroke:#A80036;stroke-width:1.0;"/><path d="M683.2969,541.875 L684.75,541.875 L684.75,541.9844 C684.75,542.3906 684.7813,542.5469 684.8594,542.7031 C685.0156,542.9531 685.2969,543.1094 685.5938,543.1094 C685.8438,543.1094 686.1094,542.9688 686.2656,542.75 C686.3906,542.5938 686.4219,542.4375 686.4219,541.9844 L686.4219,540.0625 C686.4219,539.9063 686.4219,539.8594 686.4063,539.7031 C686.3438,539.2344 686.0313,538.9219 685.5781,538.9219 C685.3281,538.9219 685.0625,539.0625 684.8906,539.2813 C684.7813,539.4531 684.75,539.6094 684.75,540.0625 L684.75,540.1875 L683.2969,540.1875 L683.2969,537.7813 L687.2813,537.7813 L687.2813,538.6406 C687.2813,539.0469 687.3125,539.2188 687.3906,539.375 C687.5625,539.625 687.8438,539.7813 688.125,539.7813 C688.3906,539.7813 688.6563,539.6406 688.8281,539.4219 C688.9375,539.25 688.9688,539.1094 688.9688,538.6406 L688.9688,536.0938 L681.3438,536.0938 C680.9063,536.0938 680.7813,536.1094 680.625,536.2031 C680.375,536.3594 680.2188,536.6563 680.2188,536.9375 C680.2188,537.2188 680.3594,537.4688 680.5781,537.6406 C680.7344,537.75 680.9219,537.7813 681.3438,537.7813 L681.5938,537.7813 L681.5938,544.2969 L681.3438,544.2969 C680.9375,544.2969 680.7813,544.3125 680.625,544.4219 C680.375,544.5938 680.2188,544.8594 680.2188,545.1563 C680.2188,545.4219 680.3594,545.6719 680.5781,545.8281 C680.7188,545.9531 680.9531,546 681.3438,546 L689.3438,546 L689.3438,543.4219 C689.3438,542.9844 689.3125,542.8438 689.2344,542.6875 C689.0625,542.4375 688.7813,542.2813 688.5,542.2813 C688.2344,542.2813 687.9688,542.3906 687.7969,542.6406 C687.6875,542.7969 687.6563,542.9375 687.6563,543.4219 L687.6563,544.2969 L683.2969,544.2969 L683.2969,541.875 Z " fill="#000000"/><text fill="#000000" font-family="sans-serif" font-size="12" lengthAdjust="spacing" textLength="55" x="699.5" y="545.1543">Message</text><line style="stroke:#A80036;stroke-width:1.5;" x1="666" x2="761" y1="557" y2="557"/><line style="stroke:#A80036;stroke-width:1.5;" x1="666" x2="761" y1="565" y2="565"/><polygon fill="#4177AF" points="676,572,672,578,680,578" style="stroke:#1963A0;stroke-width:1.0;"/><text fill="#000000" font-family="sans-serif" font-size="11" lengthAdjust="spacing" textLength="36" x="685" y="579.2104">write()</text><polygon fill="#4177AF" points="676,584.8047,672,590.8047,680,590.8047" style="stroke:#1963A0;stroke-width:1.0;"/><text fill="#000000" font-family="sans-serif" font-size="11" lengthAdjust="spacing" textLength="50" x="685" y="592.0151">write(int)</text><polygon fill="#4177AF" points="676,597.6094,672,603.6094,680,603.6094" style="stroke:#1963A0;stroke-width:1.0;"/><text fill="#000000" font-family="sans-serif" font-size="11" lengthAdjust="spacing" textLength="71" x="685" y="604.8198">write(int, int)</text><!--MD5=[86cec68673cafdfc1c204348d5b2cca6]
class ErrorView--><rect codeLine="34" fill="#FEFECE" filter="url(#f5me3a2oi7tmx)" height="60.8047" id="ErrorView" style="stroke:#A80036;stroke-width:1.5;" width="91" x="929" y="537.5"/><ellipse cx="944" cy="553.5" fill="#ADD1B2" rx="11" ry="11" style="stroke:#A80036;stroke-width:1.0;"/><path d="M946.3438,549.1719 C945.4063,548.7344 944.8125,548.5938 943.9375,548.5938 C941.3125,548.5938 939.3125,550.6719 939.3125,553.3906 L939.3125,554.5156 C939.3125,557.0938 941.4219,558.9844 944.3125,558.9844 C945.5313,558.9844 946.6875,558.6875 947.4375,558.1406 C948.0156,557.7344 948.3438,557.2813 948.3438,556.8906 C948.3438,556.4375 947.9531,556.0469 947.4844,556.0469 C947.2656,556.0469 947.0625,556.125 946.875,556.3125 C946.4219,556.7969 946.4219,556.7969 946.2344,556.8906 C945.8125,557.1563 945.125,557.2813 944.3594,557.2813 C942.3125,557.2813 941.0156,556.1875 941.0156,554.4844 L941.0156,553.3906 C941.0156,551.6094 942.2656,550.2969 944,550.2969 C944.5781,550.2969 945.1875,550.4531 945.6563,550.7031 C946.1406,550.9844 946.3125,551.2031 946.4063,551.6094 C946.4688,552.0156 946.5,552.1406 946.6406,552.2656 C946.7813,552.4063 947.0156,552.5156 947.2344,552.5156 C947.5,552.5156 947.7656,552.375 947.9375,552.1563 C948.0469,552 948.0781,551.8125 948.0781,551.3906 L948.0781,549.9688 C948.0781,549.5313 948.0625,549.4063 947.9688,549.25 C947.8125,548.9844 947.5313,548.8438 947.2344,548.8438 C946.9375,548.8438 946.7344,548.9375 946.5156,549.25 L946.3438,549.1719 Z " fill="#000000"/><text fill="#000000" font-family="sans-serif" font-size="12" lengthAdjust="spacing" textLength="59" x="958" y="557.6543">ErrorView</text><line style="stroke:#A80036;stroke-width:1.5;" x1="930" x2="1019" y1="569.5" y2="569.5"/><line style="stroke:#A80036;stroke-width:1.5;" x1="930" x2="1019" y1="577.5" y2="577.5"/><polygon fill="#4177AF" points="940,584.5,936,590.5,944,590.5" style="stroke:#1963A0;stroke-width:1.0;"/><text fill="#000000" font-family="sans-serif" font-size="11" lengthAdjust="spacing" textLength="62" x="949" y="591.7104">write(Error)</text><!--MD5=[0b95e4ee8b160a2b3b0650a9b235c496]
class ProposeController--><rect codeLine="57" fill="#FEFECE" filter="url(#f5me3a2oi7tmx)" height="53.9375" id="ProposeController" style="stroke:#A80036;stroke-width:1.5;" width="141" x="1167" y="541"/><ellipse cx="1182" cy="559.9688" fill="#ADD1B2" rx="11" ry="11" style="stroke:#A80036;stroke-width:1.0;"/><path d="M1184.3438,555.6406 C1183.4063,555.2031 1182.8125,555.0625 1181.9375,555.0625 C1179.3125,555.0625 1177.3125,557.1406 1177.3125,559.8594 L1177.3125,560.9844 C1177.3125,563.5625 1179.4219,565.4531 1182.3125,565.4531 C1183.5313,565.4531 1184.6875,565.1563 1185.4375,564.6094 C1186.0156,564.2031 1186.3438,563.75 1186.3438,563.3594 C1186.3438,562.9063 1185.9531,562.5156 1185.4844,562.5156 C1185.2656,562.5156 1185.0625,562.5938 1184.875,562.7813 C1184.4219,563.2656 1184.4219,563.2656 1184.2344,563.3594 C1183.8125,563.625 1183.125,563.75 1182.3594,563.75 C1180.3125,563.75 1179.0156,562.6563 1179.0156,560.9531 L1179.0156,559.8594 C1179.0156,558.0781 1180.2656,556.7656 1182,556.7656 C1182.5781,556.7656 1183.1875,556.9219 1183.6563,557.1719 C1184.1406,557.4531 1184.3125,557.6719 1184.4063,558.0781 C1184.4688,558.4844 1184.5,558.6094 1184.6406,558.7344 C1184.7813,558.875 1185.0156,558.9844 1185.2344,558.9844 C1185.5,558.9844 1185.7656,558.8438 1185.9375,558.625 C1186.0469,558.4688 1186.0781,558.2813 1186.0781,557.8594 L1186.0781,556.4375 C1186.0781,556 1186.0625,555.875 1185.9688,555.7188 C1185.8125,555.4531 1185.5313,555.3125 1185.2344,555.3125 C1184.9375,555.3125 1184.7344,555.4063 1184.5156,555.7188 L1184.3438,555.6406 Z " fill="#000000"/><text fill="#000000" font-family="sans-serif" font-size="12" lengthAdjust="spacing" textLength="68" x="1216.5" y="557.1387">controllers.</text><text fill="#000000" font-family="sans-serif" font-size="12" lengthAdjust="spacing" textLength="109" x="1196" y="571.1074">ProposeController</text><line style="stroke:#A80036;stroke-width:1.5;" x1="1168" x2="1307" y1="578.9375" y2="578.9375"/><line style="stroke:#A80036;stroke-width:1.5;" x1="1168" x2="1307" y1="586.9375" y2="586.9375"/><!--MD5=[47c371471411cfedeee61b1a5bdaee47]
class StartController--><rect codeLine="58" fill="#FEFECE" filter="url(#f5me3a2oi7tmx)" height="53.9375" id="StartController" style="stroke:#A80036;stroke-width:1.5;" width="119" x="1104" y="273.5"/><ellipse cx="1119" cy="292.4688" fill="#ADD1B2" rx="11" ry="11" style="stroke:#A80036;stroke-width:1.0;"/><path d="M1121.3438,288.1406 C1120.4063,287.7031 1119.8125,287.5625 1118.9375,287.5625 C1116.3125,287.5625 1114.3125,289.6406 1114.3125,292.3594 L1114.3125,293.4844 C1114.3125,296.0625 1116.4219,297.9531 1119.3125,297.9531 C1120.5313,297.9531 1121.6875,297.6563 1122.4375,297.1094 C1123.0156,296.7031 1123.3438,296.25 1123.3438,295.8594 C1123.3438,295.4063 1122.9531,295.0156 1122.4844,295.0156 C1122.2656,295.0156 1122.0625,295.0938 1121.875,295.2813 C1121.4219,295.7656 1121.4219,295.7656 1121.2344,295.8594 C1120.8125,296.125 1120.125,296.25 1119.3594,296.25 C1117.3125,296.25 1116.0156,295.1563 1116.0156,293.4531 L1116.0156,292.3594 C1116.0156,290.5781 1117.2656,289.2656 1119,289.2656 C1119.5781,289.2656 1120.1875,289.4219 1120.6563,289.6719 C1121.1406,289.9531 1121.3125,290.1719 1121.4063,290.5781 C1121.4688,290.9844 1121.5,291.1094 1121.6406,291.2344 C1121.7813,291.375 1122.0156,291.4844 1122.2344,291.4844 C1122.5,291.4844 1122.7656,291.3438 1122.9375,291.125 C1123.0469,290.9688 1123.0781,290.7813 1123.0781,290.3594 L1123.0781,288.9375 C1123.0781,288.5 1123.0625,288.375 1122.9688,288.2188 C1122.8125,287.9531 1122.5313,287.8125 1122.2344,287.8125 C1121.9375,287.8125 1121.7344,287.9063 1121.5156,288.2188 L1121.3438,288.1406 Z " fill="#000000"/><text fill="#000000" font-family="sans-serif" font-size="12" lengthAdjust="spacing" textLength="68" x="1142.5" y="289.6387">controllers.</text><text fill="#000000" font-family="sans-serif" font-size="12" lengthAdjust="spacing" textLength="87" x="1133" y="303.6074">StartController</text><line style="stroke:#A80036;stroke-width:1.5;" x1="1105" x2="1222" y1="311.4375" y2="311.4375"/><line style="stroke:#A80036;stroke-width:1.5;" x1="1105" x2="1222" y1="319.4375" y2="319.4375"/><!--MD5=[1a47bbf44ccee225df9b18c5b6629853]
class ResumeController--><rect codeLine="59" fill="#FEFECE" filter="url(#f5me3a2oi7tmx)" height="53.9375" id="ResumeController" style="stroke:#A80036;stroke-width:1.5;" width="139" x="7" y="401"/><ellipse cx="22" cy="419.9688" fill="#ADD1B2" rx="11" ry="11" style="stroke:#A80036;stroke-width:1.0;"/><path d="M24.3438,415.6406 C23.4063,415.2031 22.8125,415.0625 21.9375,415.0625 C19.3125,415.0625 17.3125,417.1406 17.3125,419.8594 L17.3125,420.9844 C17.3125,423.5625 19.4219,425.4531 22.3125,425.4531 C23.5313,425.4531 24.6875,425.1563 25.4375,424.6094 C26.0156,424.2031 26.3438,423.75 26.3438,423.3594 C26.3438,422.9063 25.9531,422.5156 25.4844,422.5156 C25.2656,422.5156 25.0625,422.5938 24.875,422.7813 C24.4219,423.2656 24.4219,423.2656 24.2344,423.3594 C23.8125,423.625 23.125,423.75 22.3594,423.75 C20.3125,423.75 19.0156,422.6563 19.0156,420.9531 L19.0156,419.8594 C19.0156,418.0781 20.2656,416.7656 22,416.7656 C22.5781,416.7656 23.1875,416.9219 23.6563,417.1719 C24.1406,417.4531 24.3125,417.6719 24.4063,418.0781 C24.4688,418.4844 24.5,418.6094 24.6406,418.7344 C24.7813,418.875 25.0156,418.9844 25.2344,418.9844 C25.5,418.9844 25.7656,418.8438 25.9375,418.625 C26.0469,418.4688 26.0781,418.2813 26.0781,417.8594 L26.0781,416.4375 C26.0781,416 26.0625,415.875 25.9688,415.7188 C25.8125,415.4531 25.5313,415.3125 25.2344,415.3125 C24.9375,415.3125 24.7344,415.4063 24.5156,415.7188 L24.3438,415.6406 Z " fill="#000000"/><text fill="#000000" font-family="sans-serif" font-size="12" lengthAdjust="spacing" textLength="68" x="55.5" y="417.1387">controllers.</text><text fill="#000000" font-family="sans-serif" font-size="12" lengthAdjust="spacing" textLength="107" x="36" y="431.1074">ResumeController</text><line style="stroke:#A80036;stroke-width:1.5;" x1="8" x2="145" y1="438.9375" y2="438.9375"/><line style="stroke:#A80036;stroke-width:1.5;" x1="8" x2="145" y1="446.9375" y2="446.9375"/><!--MD5=[1d7ba1c7002d54515419844fbd155368]
class Controller--><rect codeLine="60" fill="#FEFECE" filter="url(#f5me3a2oi7tmx)" height="53.9375" id="Controller" style="stroke:#A80036;stroke-width:1.5;" width="99" x="181" y="401"/><ellipse cx="196" cy="419.9688" fill="#A9DCDF" rx="11" ry="11" style="stroke:#A80036;stroke-width:1.0;"/><path d="M198.0781,421.7813 L198.4688,422.7656 L198.0781,422.7656 C197.625,422.7656 197.5156,422.7813 197.3594,422.8906 C197.1094,423.0469 196.9531,423.3281 196.9531,423.625 C196.9531,423.8906 197.0938,424.1406 197.3125,424.2969 C197.4531,424.4219 197.6563,424.4688 198.0781,424.4688 L200.4375,424.4688 C200.7969,424.4688 201.0156,424.4375 201.1563,424.3438 C201.4063,424.2031 201.5625,423.9063 201.5625,423.625 C201.5625,423.3438 201.4219,423.0938 201.2031,422.9375 C201.0313,422.7969 200.875,422.7656 200.4063,422.7656 L197.0156,414.5625 L193.3438,414.5625 C192.8906,414.5625 192.7656,414.5781 192.6094,414.6719 C192.3594,414.8438 192.2031,415.125 192.2031,415.4063 C192.2031,415.6875 192.3438,415.9375 192.5625,416.1094 C192.7344,416.2188 192.9063,416.25 193.3438,416.25 L194.4219,416.25 L191.7813,422.7656 C191.3594,422.7656 191.2031,422.7813 191.0469,422.8906 C190.7969,423.0469 190.6406,423.3281 190.6406,423.625 C190.6406,424.1875 191.0156,424.4688 191.7656,424.4688 L194.0313,424.4688 C194.3906,424.4688 194.6094,424.4375 194.7344,424.3438 C195,424.2031 195.1406,423.9063 195.1406,423.625 C195.1406,423.3438 195.0156,423.0938 194.7969,422.9219 C194.625,422.7969 194.4844,422.7656 194.0313,422.7656 L193.6406,422.7656 L194.0313,421.7813 L198.0781,421.7813 Z M197.375,420.0781 L194.7031,420.0781 L196.0469,416.8125 L197.375,420.0781 Z " fill="#000000"/><text fill="#000000" font-family="sans-serif" font-size="12" font-style="italic" lengthAdjust="spacing" textLength="67" x="210" y="417.1387">controllers.</text><text fill="#000000" font-family="sans-serif" font-size="12" font-style="italic" lengthAdjust="spacing" textLength="58" x="214.5" y="431.1074">Controller</text><line style="stroke:#A80036;stroke-width:1.5;" x1="182" x2="279" y1="438.9375" y2="438.9375"/><line style="stroke:#A80036;stroke-width:1.5;" x1="182" x2="279" y1="446.9375" y2="446.9375"/><!--MD5=[18eee71c88ab61f27581b8cbdd3ef5ee]
class Color--><rect codeLine="61" fill="#FEFECE" filter="url(#f5me3a2oi7tmx)" height="53.9375" id="Color" style="stroke:#A80036;stroke-width:1.5;" width="69" x="577" y="671"/><ellipse cx="592" cy="689.9688" fill="#EB937F" rx="11" ry="11" style="stroke:#A80036;stroke-width:1.0;"/><path d="M590.7969,690.8438 L592.25,690.8438 L592.25,690.9531 C592.25,691.3594 592.2813,691.5156 592.3594,691.6719 C592.5156,691.9219 592.7969,692.0781 593.0938,692.0781 C593.3438,692.0781 593.6094,691.9375 593.7656,691.7188 C593.8906,691.5625 593.9219,691.4063 593.9219,690.9531 L593.9219,689.0313 C593.9219,688.875 593.9219,688.8281 593.9063,688.6719 C593.8438,688.2031 593.5313,687.8906 593.0781,687.8906 C592.8281,687.8906 592.5625,688.0313 592.3906,688.25 C592.2813,688.4219 592.25,688.5781 592.25,689.0313 L592.25,689.1563 L590.7969,689.1563 L590.7969,686.75 L594.7813,686.75 L594.7813,687.6094 C594.7813,688.0156 594.8125,688.1875 594.8906,688.3438 C595.0625,688.5938 595.3438,688.75 595.625,688.75 C595.8906,688.75 596.1563,688.6094 596.3281,688.3906 C596.4375,688.2188 596.4688,688.0781 596.4688,687.6094 L596.4688,685.0625 L588.8438,685.0625 C588.4063,685.0625 588.2813,685.0781 588.125,685.1719 C587.875,685.3281 587.7188,685.625 587.7188,685.9063 C587.7188,686.1875 587.8594,686.4375 588.0781,686.6094 C588.2344,686.7188 588.4219,686.75 588.8438,686.75 L589.0938,686.75 L589.0938,693.2656 L588.8438,693.2656 C588.4375,693.2656 588.2813,693.2813 588.125,693.3906 C587.875,693.5625 587.7188,693.8281 587.7188,694.125 C587.7188,694.3906 587.8594,694.6406 588.0781,694.7969 C588.2188,694.9219 588.4531,694.9688 588.8438,694.9688 L596.8438,694.9688 L596.8438,692.3906 C596.8438,691.9531 596.8125,691.8125 596.7344,691.6563 C596.5625,691.4063 596.2813,691.25 596,691.25 C595.7344,691.25 595.4688,691.3594 595.2969,691.6094 C595.1875,691.7656 595.1563,691.9063 595.1563,692.3906 L595.1563,693.2656 L590.7969,693.2656 L590.7969,690.8438 Z " fill="#000000"/><text fill="#000000" font-family="sans-serif" font-size="12" lengthAdjust="spacing" textLength="37" x="606" y="687.1387">types.</text><text fill="#000000" font-family="sans-serif" font-size="12" lengthAdjust="spacing" textLength="32" x="608.5" y="701.1074">Color</text><line style="stroke:#A80036;stroke-width:1.5;" x1="578" x2="645" y1="708.9375" y2="708.9375"/><line style="stroke:#A80036;stroke-width:1.5;" x1="578" x2="645" y1="716.9375" y2="716.9375"/><!--MD5=[b8cfd8c4119a3b0a7a46bfc5fc780f85]
class Error--><rect codeLine="62" fill="#FEFECE" filter="url(#f5me3a2oi7tmx)" height="53.9375" id="Error" style="stroke:#A80036;stroke-width:1.5;" width="69" x="989" y="671"/><ellipse cx="1004" cy="689.9688" fill="#EB937F" rx="11" ry="11" style="stroke:#A80036;stroke-width:1.0;"/><path d="M1002.7969,690.8438 L1004.25,690.8438 L1004.25,690.9531 C1004.25,691.3594 1004.2813,691.5156 1004.3594,691.6719 C1004.5156,691.9219 1004.7969,692.0781 1005.0938,692.0781 C1005.3438,692.0781 1005.6094,691.9375 1005.7656,691.7188 C1005.8906,691.5625 1005.9219,691.4063 1005.9219,690.9531 L1005.9219,689.0313 C1005.9219,688.875 1005.9219,688.8281 1005.9063,688.6719 C1005.8438,688.2031 1005.5313,687.8906 1005.0781,687.8906 C1004.8281,687.8906 1004.5625,688.0313 1004.3906,688.25 C1004.2813,688.4219 1004.25,688.5781 1004.25,689.0313 L1004.25,689.1563 L1002.7969,689.1563 L1002.7969,686.75 L1006.7813,686.75 L1006.7813,687.6094 C1006.7813,688.0156 1006.8125,688.1875 1006.8906,688.3438 C1007.0625,688.5938 1007.3438,688.75 1007.625,688.75 C1007.8906,688.75 1008.1563,688.6094 1008.3281,688.3906 C1008.4375,688.2188 1008.4688,688.0781 1008.4688,687.6094 L1008.4688,685.0625 L1000.8438,685.0625 C1000.4063,685.0625 1000.2813,685.0781 1000.125,685.1719 C999.875,685.3281 999.7188,685.625 999.7188,685.9063 C999.7188,686.1875 999.8594,686.4375 1000.0781,686.6094 C1000.2344,686.7188 1000.4219,686.75 1000.8438,686.75 L1001.0938,686.75 L1001.0938,693.2656 L1000.8438,693.2656 C1000.4375,693.2656 1000.2813,693.2813 1000.125,693.3906 C999.875,693.5625 999.7188,693.8281 999.7188,694.125 C999.7188,694.3906 999.8594,694.6406 1000.0781,694.7969 C1000.2188,694.9219 1000.4531,694.9688 1000.8438,694.9688 L1008.8438,694.9688 L1008.8438,692.3906 C1008.8438,691.9531 1008.8125,691.8125 1008.7344,691.6563 C1008.5625,691.4063 1008.2813,691.25 1008,691.25 C1007.7344,691.25 1007.4688,691.3594 1007.2969,691.6094 C1007.1875,691.7656 1007.1563,691.9063 1007.1563,692.3906 L1007.1563,693.2656 L1002.7969,693.2656 L1002.7969,690.8438 Z " fill="#000000"/><text fill="#000000" font-family="sans-serif" font-size="12" lengthAdjust="spacing" textLength="37" x="1018" y="687.1387">types.</text><text fill="#000000" font-family="sans-serif" font-size="12" lengthAdjust="spacing" textLength="30" x="1021.5" y="701.1074">Error</text><line style="stroke:#A80036;stroke-width:1.5;" x1="990" x2="1057" y1="708.9375" y2="708.9375"/><line style="stroke:#A80036;stroke-width:1.5;" x1="990" x2="1057" y1="716.9375" y2="716.9375"/><!--MD5=[dc0500422e092c4f25e7b64adb8c025b]
link PlayerView to StartView--><path codeLine="39" d="M671.5,101.038 C671.5,101.038 671.5,124.562 671.5,135.634 " fill="none" id="PlayerView-StartView" style="stroke:#A80036;stroke-width:1.0;"/><polygon fill="#A80036" points="671.5,148.65,675.5,139.65,671.5,143.65,667.5,139.65,671.5,148.65" style="stroke:#A80036;stroke-width:1.0;"/><line style="stroke:#A80036;stroke-width:1.0;" x1="671.5" x2="671.5" y1="143.65" y2="135.65"/><polygon fill="#A80036" points="671.5,89.038,667.5,95.038,671.5,101.038,675.5,95.038,671.5,89.038" style="stroke:#A80036;stroke-width:1.0;"/><!--MD5=[6aa5591338f4cd689301f7e2cc176561]
link PlayerView to ProposeView--><path codeLine="40" d="M722.0434,95.0118 C722.0434,95.0118 778.162,127.222 804.465,142.319 " fill="none" id="PlayerView-ProposeView" style="stroke:#A80036;stroke-width:1.0;"/><polygon fill="#A80036" points="815.858,148.859,810.0437,140.9095,811.5216,146.3699,806.0612,147.8478,815.858,148.859" style="stroke:#A80036;stroke-width:1.0;"/><line style="stroke:#A80036;stroke-width:1.0;" x1="811.5216" x2="804.583" y1="146.3699" y2="142.387"/><polygon fill="#A80036" points="711.636,89.038,714.8484,95.494,722.0434,95.0118,718.831,88.5558,711.636,89.038" style="stroke:#A80036;stroke-width:1.0;"/><!--MD5=[b95630b4bb6f21f358e9b1d68800b78a]
link PlayerView to ResumeView--><path codeLine="41" d="M633.1633,97.2115 C633.1633,97.2115 597.633,130.47 583.5,149 C557.712,182.81 535.668,226.084 521.29,257.544 " fill="none" id="PlayerView-ResumeView" style="stroke:#A80036;stroke-width:1.0;"/><polygon fill="#A80036" points="515.794,269.819,523.1229,263.2398,517.8375,265.2556,515.8216,259.9702,515.794,269.819" style="stroke:#A80036;stroke-width:1.0;"/><line style="stroke:#A80036;stroke-width:1.0;" x1="517.8375" x2="521.1065" y1="265.2556" y2="257.9545"/><polygon fill="#A80036" points="642.22,89.339,635.0675,90.2564,633.1633,97.2115,640.3158,96.2942,642.22,89.339" style="stroke:#A80036;stroke-width:1.0;"/><!--MD5=[2b5890793a76472eff4c2a6a4af43287]
link StartView to BoardView--><path codeLine="42" d="M691.481,210.222 C702.744,226.976 716.861,247.975 728.574,265.397 " fill="none" id="StartView-to-BoardView" style="stroke:#A80036;stroke-width:1.0;stroke-dasharray:7.0,7.0;"/><polygon fill="#A80036" points="731.496,269.745,729.7927,260.0446,728.7057,265.596,723.1543,264.509,731.496,269.745" style="stroke:#A80036;stroke-width:1.0;"/><!--MD5=[29c306805319960c0560bedfd82b8e40]
link ProposeView to BoardView--><path codeLine="43" d="M838.528,210.222 C822.057,227.118 801.379,248.331 784.312,265.839 " fill="none" id="ProposeView-to-BoardView" style="stroke:#A80036;stroke-width:1.0;stroke-dasharray:7.0,7.0;"/><polygon fill="#A80036" points="780.505,269.745,789.6516,266.0927,783.9952,266.1647,783.9232,260.5084,780.505,269.745" style="stroke:#A80036;stroke-width:1.0;"/><!--MD5=[b92bc89b5449472b10f1cf1477809057]
link BoardView to ProposedCombinationView--><path codeLine="44" d="M804.066,331.083 C834.504,348.213 873.166,369.971 905.97,388.433 " fill="none" id="BoardView-to-ProposedCombinationView" style="stroke:#A80036;stroke-width:1.0;stroke-dasharray:7.0,7.0;"/><polygon fill="#A80036" points="910.351,390.898,904.4686,382.9988,905.9934,388.4463,900.5459,389.971,910.351,390.898" style="stroke:#A80036;stroke-width:1.0;"/><!--MD5=[15f682a315f16673a58b132a229e1ff0]
link BoardView to ResultView--><path codeLine="45" d="M692.615,330.911 C658.32,348.173 614.32,370.548 575.5,391 C571.345,393.189 567.054,395.474 562.747,397.785 " fill="none" id="BoardView-to-ResultView" style="stroke:#A80036;stroke-width:1.0;stroke-dasharray:7.0,7.0;"/><polygon fill="#A80036" points="558.073,400.299,567.8938,399.5566,562.476,397.9297,564.1029,392.5119,558.073,400.299" style="stroke:#A80036;stroke-width:1.0;"/><!--MD5=[02a16ebf8539d2e5d44c3be387606aac]
link BoardView to Message--><path codeLine="46" d="M766.685,331.206 C781.553,364.331 800.016,419.265 785.5,465 C779.213,484.808 767.537,504.086 755.389,520.452 " fill="none" id="BoardView-to-Message" style="stroke:#A80036;stroke-width:1.0;stroke-dasharray:7.0,7.0;"/><polygon fill="#A80036" points="752.294,524.549,760.9115,519.7805,755.3086,520.56,754.5291,514.9571,752.294,524.549" style="stroke:#A80036;stroke-width:1.0;"/><!--MD5=[5418e21908cb409c36d98acf7a0f9cb6]
link BoardView to SecretCombinationView--><path codeLine="47" d="M734.674,331.242 C724.24,349.685 710.798,373.445 699.914,392.684 " fill="none" id="BoardView-to-SecretCombinationView" style="stroke:#A80036;stroke-width:1.0;stroke-dasharray:7.0,7.0;"/><polygon fill="#A80036" points="697.205,397.472,705.1192,391.6098,699.6678,393.1206,698.157,387.6693,697.205,397.472" style="stroke:#A80036;stroke-width:1.0;"/><!--MD5=[54923e7f1f8105ab44ef05f41a7d666e]
link ProposedCombinationView to ColorView--><path codeLine="48" d="M940.607,465.258 C922.831,484.274 901.017,507.609 882.767,527.133 " fill="none" id="ProposedCombinationView-to-ColorView" style="stroke:#A80036;stroke-width:1.0;stroke-dasharray:7.0,7.0;"/><polygon fill="#A80036" points="879.167,530.984,888.2349,527.1403,882.5812,527.3312,882.3904,521.6776,879.167,530.984" style="stroke:#A80036;stroke-width:1.0;"/><!--MD5=[058408ce5819f71d62d41402f2a6cc02]
link ProposedCombinationView to ErrorView--><path codeLine="49" d="M974.5,465.258 C974.5,486.018 974.5,511.927 974.5,532.403 " fill="none" id="ProposedCombinationView-to-ErrorView" style="stroke:#A80036;stroke-width:1.0;stroke-dasharray:7.0,7.0;"/><polygon fill="#A80036" points="974.5,537.485,978.5,528.485,974.5,532.485,970.5,528.485,974.5,537.485" style="stroke:#A80036;stroke-width:1.0;"/><!--MD5=[7bf6310e2078d439bcd0e6b6dd4bf7dc]
link ProposedCombinationView to Message--><path codeLine="50" d="M896.152,465.161 C860.145,482.391 817.163,503.829 779.5,525 C775.238,527.396 770.869,529.948 766.508,532.566 " fill="none" id="ProposedCombinationView-to-Message" style="stroke:#A80036;stroke-width:1.0;stroke-dasharray:7.0,7.0;"/><polygon fill="#A80036" points="762.154,535.203,771.9245,533.9628,766.431,532.6131,767.7806,527.1196,762.154,535.203" style="stroke:#A80036;stroke-width:1.0;"/><!--MD5=[0e5df9184d8007a1cb9785d3f6966635]
link ResultView to Message--><path codeLine="51" d="M553.263,458.604 C584.635,479.827 627.061,508.527 660.377,531.064 " fill="none" id="ResultView-to-Message" style="stroke:#A80036;stroke-width:1.0;stroke-dasharray:7.0,7.0;"/><polygon fill="#A80036" points="664.807,534.061,659.5935,525.7052,660.6655,531.2595,655.1112,532.3316,664.807,534.061" style="stroke:#A80036;stroke-width:1.0;"/><!--MD5=[97e9ace985d716348ec86012fc7f7728]
link StartView to Message--><path codeLine="52" d="M673.044,210.215 C673.122,243.798 667.969,298.064 637.5,331 C576.211,397.25 497.066,318.364 443.5,391 C423.98,417.47 424.8,437.945 443.5,465 C492.066,535.263 595.663,557.179 659.474,563.98 " fill="none" id="StartView-to-Message" style="stroke:#A80036;stroke-width:1.0;stroke-dasharray:7.0,7.0;"/><polygon fill="#A80036" points="664.759,564.519,656.2111,559.6268,659.7848,564.0119,655.3997,567.5855,664.759,564.519" style="stroke:#A80036;stroke-width:1.0;"/><!--MD5=[91198d1c12ec6e73a40fb6837ae56756]
link ResumeView to Message--><path codeLine="53" d="M462.383,331.135 C444.368,346.682 425.157,367.404 415.5,391 C403.042,421.438 396.377,438.242 415.5,465 C471.123,542.83 589.888,561.92 659.521,566.206 " fill="none" id="ResumeView-to-Message" style="stroke:#A80036;stroke-width:1.0;stroke-dasharray:7.0,7.0;"/><polygon fill="#A80036" points="664.861,566.512,656.1043,562.0042,659.8692,566.2263,655.6471,569.9911,664.861,566.512" style="stroke:#A80036;stroke-width:1.0;"/><!--MD5=[314f1b143affbca542acc1caaa9c190a]
link ProposeView to ProposedCombinationView--><path codeLine="54" d="M880.407,210.234 C899.468,254.147 935.208,336.482 956.733,386.069 " fill="none" id="ProposeView-to-ProposedCombinationView" style="stroke:#A80036;stroke-width:1.0;stroke-dasharray:7.0,7.0;"/><polygon fill="#A80036" points="958.77,390.763,958.854,380.9145,956.7784,386.1768,951.5161,384.1011,958.77,390.763" style="stroke:#A80036;stroke-width:1.0;"/><!--MD5=[2af68b46eeb5c2e46543eeb7557d9936]
link ProposeView to Message--><path codeLine="55" d="M864.584,210.255 C858.409,263.746 840.845,378.621 797.5,465 C787.541,484.847 773.104,504.268 758.999,520.748 " fill="none" id="ProposeView-to-Message" style="stroke:#A80036;stroke-width:1.0;stroke-dasharray:7.0,7.0;"/><polygon fill="#A80036" points="755.423,524.872,764.3415,520.6935,758.6989,521.0946,758.2977,515.452,755.423,524.872" style="stroke:#A80036;stroke-width:1.0;"/><!--MD5=[4b21c71922f6b938a01287b262bac1e8]
link ResumeView to ResumeController--><path codeLine="64" d="M386.687,328.117 C320.552,344.212 236.675,366.355 163.5,391 C156.326,393.416 148.9,396.137 141.548,398.972 " fill="none" id="ResumeView-to-ResumeController" style="stroke:#A80036;stroke-width:1.0;"/><polygon fill="#A80036" points="136.475,400.951,146.3133,401.407,141.1332,399.134,143.4061,393.9539,136.475,400.951" style="stroke:#A80036;stroke-width:1.0;"/><!--MD5=[3ad0bd69ff7a093d2131bc46b011fe78]
link StartView to StartController--><path codeLine="65" d="M742.323,205.207 C748.105,206.929 753.883,208.553 759.5,210 C903.009,246.979 944.896,229.673 1087.5,270 C1091.23,271.056 1095.04,272.224 1098.86,273.469 " fill="none" id="StartView-to-StartController" style="stroke:#A80036;stroke-width:1.0;"/><polygon fill="#A80036" points="1103.7,275.083,1096.4148,268.4554,1098.9537,273.5104,1093.8987,276.0494,1103.7,275.083" style="stroke:#A80036;stroke-width:1.0;"/><!--MD5=[29fcc52e6d71b3dd4a5f09442a1139e9]
link ProposeView to ProposeController--><path codeLine="66" d="M957.588,189.437 C1056.5,201.329 1205.92,226.137 1240.5,270 C1302.14,348.181 1269.1,477.369 1249.13,536.157 " fill="none" id="ProposeView-to-ProposeController" style="stroke:#A80036;stroke-width:1.0;"/><polygon fill="#A80036" points="1247.48,540.946,1254.1947,533.7409,1249.1095,536.219,1246.6314,531.1338,1247.48,540.946" style="stroke:#A80036;stroke-width:1.0;"/><!--MD5=[e3472d34888c576c4bdcfb4b35a51dcb]
link BoardView to Controller--><path codeLine="67" d="M692.824,317.563 C675.11,322.174 655.569,327.025 637.5,331 C491.91,363.028 449.529,345.724 307.5,391 C300.048,393.375 292.382,396.31 284.909,399.471 " fill="none" id="BoardView-to-Controller" style="stroke:#A80036;stroke-width:1.0;"/><polygon fill="#A80036" points="280.284,401.466,290.1323,401.574,284.8751,399.4855,286.9635,394.2283,280.284,401.466" style="stroke:#A80036;stroke-width:1.0;"/><!--MD5=[84218aafa7a878c97f717d9c345cf5ad]
link ProposedCombinationView to ProposeController--><path codeLine="68" d="M1043.26,465.078 C1086.84,487.946 1142.43,517.117 1182.97,538.386 " fill="none" id="ProposedCombinationView-to-ProposeController" style="stroke:#A80036;stroke-width:1.0;stroke-dasharray:7.0,7.0;"/><polygon fill="#A80036" points="1187.83,540.94,1181.7267,533.2102,1183.4048,538.6124,1178.0026,540.2906,1187.83,540.94" style="stroke:#A80036;stroke-width:1.0;"/><!--MD5=[12f03c7f5abb6c3e068862197d6139ed]
link BoardView to Color--><path codeLine="69" d="M692.872,316.604 C605.671,339.343 451.158,380.8 443.5,391 C373.217,484.613 504.629,611.161 573.388,667.6538 " fill="none" id="BoardView-to-Color" style="stroke:#A80036;stroke-width:1.0;stroke-dasharray:7.0,7.0;"/><polygon fill="#A80036" points="577.42,670.9456,572.9789,662.1549,573.5472,667.7831,567.9189,668.3514,577.42,670.9456" style="stroke:#A80036;stroke-width:1.0;"/><!--MD5=[644d3bda32b13afd96f2f5d418a902c1]
link ProposedCombinationView to Color--><path codeLine="70" d="M877.72,446.064 C793.025,462.958 678.765,491.154 647.5,525 C612.083,563.34 607.926,627.2551 609.065,665.4374 " fill="none" id="ProposedCombinationView-to-Color" style="stroke:#A80036;stroke-width:1.0;stroke-dasharray:7.0,7.0;"/><polygon fill="#A80036" points="609.268,670.878,612.9288,661.7348,609.0811,665.8815,604.9344,662.0338,609.268,670.878" style="stroke:#A80036;stroke-width:1.0;"/><!--MD5=[3c978e882819d5791a3d8cfa6d73d565]
link ColorView to Color--><path codeLine="71" d="M814.739,605.315 C804.373,615.942 792.192,626.8744 779.5,635 C739.321,660.7234 686.946,677.8855 651.434,687.5074 " fill="none" id="ColorView-to-Color" style="stroke:#A80036;stroke-width:1.0;stroke-dasharray:7.0,7.0;"/><polygon fill="#A80036" points="646.32,688.8725,656.0473,690.4151,651.1507,687.5825,653.9833,682.686,646.32,688.8725" style="stroke:#A80036;stroke-width:1.0;"/><!--MD5=[974176bb14ab9e9584f1ed513689e2fc]
link ProposedCombinationView to Error--><path codeLine="72" d="M1005.474,465.195 C1018.02,482.183 1031.05,503.416 1037.5,525 C1051.73,572.606 1041.64,630.7164 1032.78,665.7414 " fill="none" id="ProposedCombinationView-to-Error" style="stroke:#A80036;stroke-width:1.0;stroke-dasharray:7.0,7.0;"/><polygon fill="#A80036" points="1031.48,670.7375,1037.6107,663.0294,1032.7348,665.8975,1029.8667,661.0217,1031.48,670.7375" style="stroke:#A80036;stroke-width:1.0;"/><!--MD5=[86870cdabd6f68629f04aeac36e6c4ff]
link ErrorView to Error--><path codeLine="73" d="M985.865,598.688 C993.612,618.925 1003.847,645.6623 1011.69,666.1442 " fill="none" id="ErrorView-to-Error" style="stroke:#A80036;stroke-width:1.0;stroke-dasharray:7.0,7.0;"/><polygon fill="#A80036" points="1013.53,670.943,1014.0493,661.1078,1011.7431,666.2732,1006.5777,663.9669,1013.53,670.943" style="stroke:#A80036;stroke-width:1.0;"/><!--MD5=[1fa48a9cd3330fe2793d1613eef8158b]
@startuml
package views {
    class PlayerView
    class StartView {
        ~ start(StartController)
    }
    class ProposeView {
        ~ propose(ProposeController)
    }
    class ResumeView {
        ~ resume(ResumeController): boolean
    }
    class BoardView {
        ~ write(Controller)
    }
    class ProposedCombinationView {
        ~ write(ProposeController)
        ~ read(): List<Color>
    }
    class SecretCombinationView {
        ~ write()
    }
    class ResultView {
        ~ write(int, int)
    }
    class ColorView {
        ~ write(Color)
        ~ read(): Color
    }
    enum Message {
        ~ write()
        ~ write(int)
        ~ write(int, int)
    }
    class ErrorView {
        ~ write(Error)
    }
}

PlayerView *-down-> StartView
PlayerView *-down-> ProposeView
PlayerView *-down-> ResumeView
StartView .down.> BoardView
ProposeView .down.> BoardView
BoardView .down.> ProposedCombinationView
BoardView .down.> ResultView
BoardView .down.> Message
BoardView .down.> SecretCombinationView
ProposedCombinationView .down.> ColorView
ProposedCombinationView .down.> ErrorView
ProposedCombinationView .down.> Message
ResultView .down.> Message
StartView .down.> Message
ResumeView .down.> Message
ProposeView .down.> ProposedCombinationView
ProposeView .down.> Message

class "controllers.\nProposeController" as ProposeController
class "controllers.\nStartController" as StartController
class "controllers.\nResumeController" as ResumeController
abstract class "controllers.\nController" as Controller
enum "types.\nColor" as Color
enum "types.\nError" as Error

ResumeView -down-> ResumeController
StartView -down-> StartController
ProposeView -down-> ProposeController
BoardView -down-> Controller
ProposedCombinationView .down.> ProposeController
BoardView .down.> Color
ProposedCombinationView .down.> Color
ColorView .down.> Color
ProposedCombinationView .down.> Error
ErrorView .down.> Error
@enduml

PlantUML version 1.2021.4beta2(Unknown compile time)
(GPL source distribution)
Java Runtime: Java(TM) SE Runtime Environment
JVM: Java HotSpot(TM) 64-Bit Server VM
Default Encoding: UTF-8
Language: en
Country: US
--></g></svg>