<?xml version="1.0" encoding="UTF-8" standalone="no"?><svg xmlns="http://www.w3.org/2000/svg" xmlns:xlink="http://www.w3.org/1999/xlink" contentScriptType="application/ecmascript" contentStyleType="text/css" height="500px" preserveAspectRatio="none" style="width:595px;height:500px;" version="1.1" viewBox="0 0 595 500" width="595px" zoomAndPan="magnify"><defs><filter height="300%" id="f1b2ygz1q31f9h" width="300%" x="-1" y="-1"><feGaussianBlur result="blurOut" stdDeviation="2.0"/><feColorMatrix in="blurOut" result="blurOut2" type="matrix" values="0 0 0 0 0 0 0 0 0 0 0 0 0 0 0 0 0 0 .4 0"/><feOffset dx="4.0" dy="4.0" in="blurOut2" result="blurOut3"/><feBlend in="SourceGraphic" in2="blurOut3" mode="normal"/></filter></defs><g><g id="State0"><rect fill="#FEFECE" filter="url(#f1b2ygz1q31f9h)" height="50" rx="12.5" ry="12.5" style="stroke: #A80036; stroke-width: 1.5;" width="50" x="396" y="87"/><line style="stroke: #A80036; stroke-width: 1.5;" x1="396" x2="446" y1="113.2969" y2="113.2969"/><text fill="#000000" font-family="sans-serif" font-size="14" lengthAdjust="spacingAndGlyphs" textLength="0" x="423" y="104.9951"/></g><g id="State1"><rect fill="#FEFECE" filter="url(#f1b2ygz1q31f9h)" height="50" rx="12.5" ry="12.5" style="stroke: #A80036; stroke-width: 1.5;" width="50" x="7" y="214"/><line style="stroke: #A80036; stroke-width: 1.5;" x1="7" x2="57" y1="240.2969" y2="240.2969"/><text fill="#000000" font-family="sans-serif" font-size="14" lengthAdjust="spacingAndGlyphs" textLength="0" x="34" y="231.9951"/></g><g id="State2"><rect fill="#FEFECE" filter="url(#f1b2ygz1q31f9h)" height="50" rx="12.5" ry="12.5" style="stroke: #A80036; stroke-width: 1.5;" width="50" x="343" y="341"/><line style="stroke: #A80036; stroke-width: 1.5;" x1="343" x2="393" y1="367.2969" y2="367.2969"/><text fill="#000000" font-family="sans-serif" font-size="14" lengthAdjust="spacingAndGlyphs" textLength="0" x="370" y="358.9951"/></g><ellipse cx="421" cy="16" fill="#000000" filter="url(#f1b2ygz1q31f9h)" rx="10" ry="10" style="stroke: none; stroke-width: 1.0;"/><ellipse cx="368" cy="478" fill="none" filter="url(#f1b2ygz1q31f9h)" rx="10" ry="10" style="stroke: #000000; stroke-width: 1.0;"/><ellipse cx="368.5" cy="478.5" fill="#000000" rx="6" ry="6" style="stroke: none; stroke-width: 1.0;"/><!--MD5=[6bf52256a5a3d79cde37855053ede169]
link *start to State0--><path d="M421,26.013 C421,38.698 421,62.409 421,81.57 " fill="none" id="*start-to-State0" style="stroke: #A80036; stroke-width: 1.0;"/><polygon fill="#A80036" points="421,86.84,425,77.84,421,81.84,417,77.84,421,86.84" style="stroke: #A80036; stroke-width: 1.0;"/><!--MD5=[a9c2f088fcd292d29c9f53cd9a680591]
link State0 to State1--><path d="M395.776,121.105 C327.051,143.189 136.68,204.363 62.3168,228.258 " fill="none" id="State0-to-State1" style="stroke: #A80036; stroke-width: 1.0;"/><polygon fill="#A80036" points="57.1665,229.913,66.9587,230.9676,61.9267,228.3832,64.5111,223.3512,57.1665,229.913" style="stroke: #A80036; stroke-width: 1.0;"/><text fill="#000000" font-family="sans-serif" font-size="13" lengthAdjust="spacingAndGlyphs" textLength="31" x="251" y="180.0669">Start</text><!--MD5=[dcf63a51bdeb3e817e699e6130214cc7]
link State1 to State1--><path d="M57.2777,235.503 C74.7734,234.444 92,235.609 92,239 C92,242.046 78.0949,243.296 62.5823,242.751 " fill="none" id="State1-to-State1" style="stroke: #A80036; stroke-width: 1.0;"/><polygon fill="#A80036" points="57.2777,242.497,66.0761,246.9229,62.272,242.7361,66.4587,238.932,57.2777,242.497" style="stroke: #A80036; stroke-width: 1.0;"/><text fill="#000000" font-family="sans-serif" font-size="13" lengthAdjust="spacingAndGlyphs" textLength="133" x="98" y="243.5669">ProposeCombination</text><!--MD5=[dcf63a51bdeb3e817e699e6130214cc7]
link State1 to State1--><path d="M57.2272,234.789 C115.309,228.938 237,230.342 237,239 C237,247.405 122.335,248.973 62.4912,243.706 " fill="none" id="State1-to-State1-1" style="stroke: #A80036; stroke-width: 1.0;"/><polygon fill="#A80036" points="57.2272,243.211,65.8125,248.0372,62.2052,243.6798,66.5626,240.0725,57.2272,243.211" style="stroke: #A80036; stroke-width: 1.0;"/><text fill="#000000" font-family="sans-serif" font-size="13" lengthAdjust="spacingAndGlyphs" textLength="102" x="243" y="243.5669">[undoable]Undo</text><!--MD5=[dcf63a51bdeb3e817e699e6130214cc7]
link State1 to State1--><path d="M57.0607,234.051 C138.054,223.727 351,225.377 351,239 C351,252.344 146.699,254.2 62.2072,244.569 " fill="none" id="State1-to-State1-2" style="stroke: #A80036; stroke-width: 1.0;"/><polygon fill="#A80036" points="57.0607,243.949,65.5176,248.9969,62.0248,244.5471,66.4746,241.0543,57.0607,243.949" style="stroke: #A80036; stroke-width: 1.0;"/><text fill="#000000" font-family="sans-serif" font-size="13" lengthAdjust="spacingAndGlyphs" textLength="99" x="357" y="243.5669">[redoable]Redo</text><!--MD5=[dc702cd49c4e27e6abb2620dc4bb28d8]
link State1 to State2--><path d="M57.2546,249.395 C118.091,272.028 272.552,329.491 337.981,353.832 " fill="none" id="State1-to-State2" style="stroke: #A80036; stroke-width: 1.0;"/><polygon fill="#A80036" points="342.911,355.666,335.8719,348.7775,338.2251,353.9217,333.081,356.2749,342.911,355.666" style="stroke: #A80036; stroke-width: 1.0;"/><text fill="#000000" font-family="sans-serif" font-size="13" lengthAdjust="spacingAndGlyphs" textLength="189" x="222" y="307.0669">[isWinner || isLooser]Resume</text><!--MD5=[5e39cec6328142e5e49f463209477919]
link State2 to State0--><path d="M393.196,354.223 C424.658,339.21 477.014,308.712 499,264 C520.957,219.346 480.135,167.995 449.719,138.149 " fill="none" id="State2-to-State0" style="stroke: #A80036; stroke-width: 1.0;"/><polygon fill="#A80036" points="446.066,134.618,449.7552,143.7498,449.6603,138.0938,455.3164,137.9989,446.066,134.618" style="stroke: #A80036; stroke-width: 1.0;"/><text fill="#000000" font-family="sans-serif" font-size="13" lengthAdjust="spacingAndGlyphs" textLength="81" x="506" y="243.5669">[isResumed]</text><!--MD5=[37ebb224bae70bf8df0e6bab9d19d55b]
link State2 to *end--><path d="M368,391.14 C368,413.0338 368,444.5738 368,462.7062 " fill="none" id="State2-to-*end" style="stroke: #A80036; stroke-width: 1.0;"/><polygon fill="#A80036" points="368,467.8775,372,458.8775,368,462.8775,364,458.8775,368,467.8775" style="stroke: #A80036; stroke-width: 1.0;"/><text fill="#000000" font-family="sans-serif" font-size="13" lengthAdjust="spacingAndGlyphs" textLength="36" x="369" y="434.0669">[else]</text><!--MD5=[d00e7425cb0a7f2d40202099a7f7ce63]
@startuml
state State0 as " "
state State1 as " "
state State2 as " "
[*] - -> State0
State0 - -> State1 : Start
State1 - -> State1 : ProposeCombination
State1 - -> State1 : [undoable]Undo
State1 - -> State1 : [redoable]Redo
State1 - -> State2 : [isWinner || isLooser]Resume
State2 - -> State0 : [isResumed]
State2 - -> [*] : [else]
@enduml

PlantUML version 1.2020.20beta11(Unknown compile time)
(GPL source distribution)
Java Runtime: Java(TM) SE Runtime Environment
JVM: Java HotSpot(TM) 64-Bit Server VM
Default Encoding: UTF-8
Language: en
Country: US
--></g></svg>