<?xml version="1.0" encoding="UTF-8" standalone="no"?><svg xmlns="http://www.w3.org/2000/svg" xmlns:xlink="http://www.w3.org/1999/xlink" contentScriptType="application/ecmascript" contentStyleType="text/css" height="315px" preserveAspectRatio="none" style="width:300px;height:315px;" version="1.1" viewBox="0 0 300 315" width="300px" zoomAndPan="magnify"><defs><filter height="300%" id="f1e3bomp53pwl2" width="300%" x="-1" y="-1"><feGaussianBlur result="blurOut" stdDeviation="2.0"/><feColorMatrix in="blurOut" result="blurOut2" type="matrix" values="0 0 0 0 0 0 0 0 0 0 0 0 0 0 0 0 0 0 .4 0"/><feOffset dx="4.0" dy="4.0" in="blurOut2" result="blurOut3"/><feBlend in="SourceGraphic" in2="blurOut3" mode="normal"/></filter></defs><g><!--MD5=[de2effd8dc5bf946a609466312d0f75f]
entity Player--><ellipse cx="28" cy="129.5" fill="#FEFECE" filter="url(#f1e3bomp53pwl2)" rx="8" ry="8" style="stroke: #A80036; stroke-width: 1.5;"/><path d="M28,137.5 L28,164.5 M15,145.5 L41,145.5 M28,164.5 L15,179.5 M28,164.5 L41,179.5 " fill="none" filter="url(#f1e3bomp53pwl2)" style="stroke: #A80036; stroke-width: 1.5;"/><text fill="#000000" font-family="sans-serif" font-size="14" lengthAdjust="spacingAndGlyphs" textLength="44" x="6" y="197.9951">Player</text><ellipse cx="199.163" cy="20.5236" fill="#FEFECE" filter="url(#f1e3bomp53pwl2)" rx="29.163" ry="14.5236" style="stroke: #A80036; stroke-width: 1.5;"/><text fill="#000000" font-family="sans-serif" font-size="14" lengthAdjust="spacingAndGlyphs" textLength="37" x="180.663" y="25.1721">Start</text><ellipse cx="199.2318" cy="90.7464" fill="#FEFECE" filter="url(#f1e3bomp53pwl2)" rx="89.2318" ry="20.2464" style="stroke: #A80036; stroke-width: 1.5;"/><text fill="#000000" font-family="sans-serif" font-size="14" lengthAdjust="spacingAndGlyphs" textLength="152" x="123.2318" y="95.3948">ProposeCombination</text><ellipse cx="198.9558" cy="160.5236" fill="#FEFECE" filter="url(#f1e3bomp53pwl2)" rx="28.4558" ry="14.5236" style="stroke: #A80036; stroke-width: 1.5;"/><text fill="#000000" font-family="sans-serif" font-size="14" lengthAdjust="spacingAndGlyphs" textLength="36" x="180.9558" y="165.1721">Undo</text><ellipse cx="199.163" cy="224.5236" fill="#FEFECE" filter="url(#f1e3bomp53pwl2)" rx="29.163" ry="14.5236" style="stroke: #A80036; stroke-width: 1.5;"/><text fill="#000000" font-family="sans-serif" font-size="14" lengthAdjust="spacingAndGlyphs" textLength="37" x="180.663" y="229.1721">Redo</text><ellipse cx="198.8051" cy="288.5236" fill="#FEFECE" filter="url(#f1e3bomp53pwl2)" rx="43.3051" ry="14.5236" style="stroke: #A80036; stroke-width: 1.5;"/><text fill="#000000" font-family="sans-serif" font-size="14" lengthAdjust="spacingAndGlyphs" textLength="57" x="170.3051" y="293.1721">Resume</text><!--MD5=[39353cd92ba960c69c4d2a9385fee2c7]
link Player to Start--><path d="M50.1105,122 C64.3901,99.065 85.1489,70.927 110,52.5 C126.83,40.021 149.018,31.996 166.904,27.104 " fill="none" id="Player-to-Start" style="stroke: #A80036; stroke-width: 1.0;"/><polygon fill="#A80036" points="171.827,25.806,162.1048,24.2314,166.9921,27.0801,164.1434,31.9673,171.827,25.806" style="stroke: #A80036; stroke-width: 1.0;"/><!--MD5=[8dee72b7ea4194df32cfadea21530293]
link Player to ProposeCombination--><path d="M50.0623,151.776 C75.1099,141.401 117.683,123.768 150.745,110.073 " fill="none" id="Player-to-ProposeCombination" style="stroke: #A80036; stroke-width: 1.0;"/><polygon fill="#A80036" points="155.551,108.082,145.7054,107.8292,150.9313,109.9947,148.7658,115.2207,155.551,108.082" style="stroke: #A80036; stroke-width: 1.0;"/><!--MD5=[0380c48cc03698e9c08b2a5affc527cb]
link Player to Undo--><path d="M50.0623,160.5 C78.8708,160.5 130.862,160.5 164.903,160.5 " fill="none" id="Player-to-Undo" style="stroke: #A80036; stroke-width: 1.0;"/><polygon fill="#A80036" points="170.206,160.5,161.206,156.5,165.206,160.5,161.206,164.5,170.206,160.5" style="stroke: #A80036; stroke-width: 1.0;"/><!--MD5=[714833a1def7c2d3f9278f33fd9da27b]
link Player to Redo--><path d="M50.2559,169.082 C66.5579,175.619 89.642,184.779 110,192.5 C130.007,200.088 152.704,208.3327 170.036,214.5527 " fill="none" id="Player-to-Redo" style="stroke: #A80036; stroke-width: 1.0;"/><polygon fill="#A80036" points="174.776,216.2512,167.6535,209.449,170.0692,214.5641,164.9541,216.9798,174.776,216.2512" style="stroke: #A80036; stroke-width: 1.0;"/><!--MD5=[5fec2ab2a197ce562aec9d83f689b0ce]
link Player to Resume--><path d="M50.0018,193.274 C64.6543,213.8755 85.8595,239.6509 110,256.5 C124.376,266.5341 142.257,273.793 158.138,278.8342 " fill="none" id="Player-to-Resume" style="stroke: #A80036; stroke-width: 1.0;"/><polygon fill="#A80036" points="162.997,280.3281,155.5707,273.8589,158.218,278.8581,153.2188,281.5054,162.997,280.3281" style="stroke: #A80036; stroke-width: 1.0;"/><!--MD5=[5bb03862df32da47a426f9aa339109ce]
@startuml
left to right direction
actor Player
usecase Start
usecase ProposeCombination
usecase Undo
usecase Redo
usecase Resume

Player - -> Start
Player - -> ProposeCombination
Player - -> Undo
Player - -> Redo
Player - -> Resume
@enduml

PlantUML version 1.2020.20beta11(Unknown compile time)
(GPL source distribution)
Java Runtime: Java(TM) SE Runtime Environment
JVM: Java HotSpot(TM) 64-Bit Server VM
Default Encoding: UTF-8
Language: en
Country: US
--></g></svg>