<?xml version="1.0" encoding="UTF-8" standalone="no"?><svg xmlns="http://www.w3.org/2000/svg" xmlns:xlink="http://www.w3.org/1999/xlink" contentScriptType="application/ecmascript" contentStyleType="text/css" height="294px" preserveAspectRatio="none" style="width:751px;height:294px;" version="1.1" viewBox="0 0 751 294" width="751px" zoomAndPan="magnify"><defs><filter height="300%" id="f18fjcpiew05u4" width="300%" x="-1" y="-1"><feGaussianBlur result="blurOut" stdDeviation="2.0"/><feColorMatrix in="blurOut" result="blurOut2" type="matrix" values="0 0 0 0 0 0 0 0 0 0 0 0 0 0 0 0 0 0 .4 0"/><feOffset dx="4.0" dy="4.0" in="blurOut2" result="blurOut3"/><feBlend in="SourceGraphic" in2="blurOut3" mode="normal"/></filter></defs><g><ellipse cx="394.9221" cy="16" fill="#000000" filter="url(#f18fjcpiew05u4)" rx="10" ry="10" style="stroke: none; stroke-width: 1.0;"/><g id="A"><rect fill="#FEFECE" filter="url(#f18fjcpiew05u4)" height="50" rx="12.5" ry="12.5" style="stroke: #A80036; stroke-width: 1.5;" width="50" x="369.9221" y="103"/><line style="stroke: #A80036; stroke-width: 1.5;" x1="369.9221" x2="419.9221" y1="129.2969" y2="129.2969"/><text fill="#000000" font-family="sans-serif" font-size="14" lengthAdjust="spacingAndGlyphs" textLength="10" x="389.9221" y="120.9951">A</text></g><g id="B"><rect fill="#FEFECE" filter="url(#f18fjcpiew05u4)" height="50" rx="12.5" ry="12.5" style="stroke: #A80036; stroke-width: 1.5;" width="50" x="197.9221" y="230"/><line style="stroke: #A80036; stroke-width: 1.5;" x1="197.9221" x2="247.9221" y1="256.2969" y2="256.2969"/><text fill="#000000" font-family="sans-serif" font-size="14" lengthAdjust="spacingAndGlyphs" textLength="10" x="217.9221" y="247.9951">B</text></g><ellipse cx="602.9221" cy="255" fill="none" filter="url(#f18fjcpiew05u4)" rx="10" ry="10" style="stroke: #000000; stroke-width: 1.0;"/><ellipse cx="603.4221" cy="255.5" fill="#000000" rx="6" ry="6" style="stroke: none; stroke-width: 1.0;"/><!--MD5=[ba0fdac9700f9825b754e67fda8ee1b2]
link *start to A--><path d="M394.9221,26.002 C394.9221,41.458 394.9221,73.685 394.9221,97.6 " fill="none" id="*start-to-A" style="stroke: #A80036; stroke-width: 1.0;"/><polygon fill="#A80036" points="394.9221,102.873,398.9221,93.873,394.9221,97.873,390.9221,93.873,394.9221,102.873" style="stroke: #A80036; stroke-width: 1.0;"/><text fill="#000000" font-family="sans-serif" font-size="13" lengthAdjust="spacingAndGlyphs" textLength="258" x="395.9221" y="69.0669">makerPlayer make a secretCombination</text><!--MD5=[5e2eec62a50b26b6b0db6c12e4ee289c]
link A to B--><path d="M369.8901,128.892 C297.3731,129.165 89.6625,134.262 47.9223,183 C6,231.9509 131.6336,247.5889 192.2271,252.2116 " fill="none" id="A-to-B" style="stroke: #A80036; stroke-width: 1.0;"/><polygon fill="#A80036" points="197.5291,252.6007,188.8471,247.9506,192.5426,252.2336,188.2597,255.9291,197.5291,252.6007" style="stroke: #A80036; stroke-width: 1.0;"/><text fill="#000000" font-family="sans-serif" font-size="13" lengthAdjust="spacingAndGlyphs" textLength="302" x="48.9223" y="196.0669">breakerPlayer propose a proposedCombination</text><!--MD5=[2c777c0c38089c390787dfc0786ecb92]
link B to A--><path d="M248.1771,249.1094 C277.1391,242.3882 324.6431,227.8289 355.9221,200 C368.6661,188.6619 378.0891,172.13 384.4771,157.871 " fill="none" id="B-to-A" style="stroke: #A80036; stroke-width: 1.0;"/><polygon fill="#A80036" points="386.5271,153.133,379.2817,159.8041,384.5413,157.7218,386.6237,162.9814,386.5271,153.133" style="stroke: #A80036; stroke-width: 1.0;"/><text fill="#000000" font-family="sans-serif" font-size="13" lengthAdjust="spacingAndGlyphs" textLength="166" x="371.9221" y="196.0669">makerPlayer show results</text><!--MD5=[6b8dc95a046e31f2dba110a903aa35ee]
link A to *end--><path d="M420.0801,133.444 C451.9781,140.031 507.5521,154.765 546.9221,183 C568.8891,198.7539 586.6401,225.4359 595.9091,241.2183 " fill="none" id="A-to-*end" style="stroke: #A80036; stroke-width: 1.0;"/><polygon fill="#A80036" points="598.5081,245.7421,597.4929,235.9457,596.0173,241.4067,590.5563,239.931,598.5081,245.7421" style="stroke: #A80036; stroke-width: 1.0;"/><text fill="#000000" font-family="sans-serif" font-size="13" lengthAdjust="spacingAndGlyphs" textLength="178" x="565.9221" y="196.0669">[isWinner || 10 propositons]</text><!--MD5=[1886ae9c77de517ecf8bf3a0e7f2fc15]
@startuml
[*] - -> A : makerPlayer make a secretCombination
A - -> B : breakerPlayer propose a proposedCombination
B - -> A : makerPlayer show results
A - -> [*] : [isWinner || 10 propositons]
@enduml

PlantUML version 1.2020.20beta8(Unknown compile time)
(GPL source distribution)
Java Runtime: Java(TM) SE Runtime Environment
JVM: Java HotSpot(TM) 64-Bit Server VM
Default Encoding: UTF-8
Language: en
Country: US
--></g></svg>