<?xml version="1.0" encoding="UTF-8" standalone="no"?><svg xmlns="http://www.w3.org/2000/svg" xmlns:xlink="http://www.w3.org/1999/xlink" contentScriptType="application/ecmascript" contentStyleType="text/css" height="1041px" preserveAspectRatio="none" style="width:898px;height:1041px;" version="1.1" viewBox="0 0 898 1041" width="898px" zoomAndPan="magnify"><defs><filter height="300%" id="f1xsbr4tu17a5g" width="300%" x="-1" y="-1"><feGaussianBlur result="blurOut" stdDeviation="2.0"/><feColorMatrix in="blurOut" result="blurOut2" type="matrix" values="0 0 0 0 0 0 0 0 0 0 0 0 0 0 0 0 0 0 .4 0"/><feOffset dx="4.0" dy="4.0" in="blurOut2" result="blurOut3"/><feBlend in="SourceGraphic" in2="blurOut3" mode="normal"/></filter></defs><g><!--MD5=[7283a9eed84464550b6d5ebf39c68b05]
class Mastermind--><rect fill="#FEFECE" filter="url(#f1xsbr4tu17a5g)" height="48" id="Mastermind" style="stroke: #A80036; stroke-width: 1.5;" width="102" x="406.5" y="7"/><ellipse cx="421.5" cy="23" fill="#ADD1B2" rx="11" ry="11" style="stroke: #A80036; stroke-width: 1.0;"/><path d="M423.8438,18.6719 C422.9063,18.2344 422.3125,18.0938 421.4375,18.0938 C418.8125,18.0938 416.8125,20.1719 416.8125,22.8906 L416.8125,24.0156 C416.8125,26.5938 418.9219,28.4844 421.8125,28.4844 C423.0313,28.4844 424.1875,28.1875 424.9375,27.6406 C425.5156,27.2344 425.8438,26.7813 425.8438,26.3906 C425.8438,25.9375 425.4531,25.5469 424.9844,25.5469 C424.7656,25.5469 424.5625,25.625 424.375,25.8125 C423.9219,26.2969 423.9219,26.2969 423.7344,26.3906 C423.3125,26.6563 422.625,26.7813 421.8594,26.7813 C419.8125,26.7813 418.5156,25.6875 418.5156,23.9844 L418.5156,22.8906 C418.5156,21.1094 419.7656,19.7969 421.5,19.7969 C422.0781,19.7969 422.6875,19.9531 423.1563,20.2031 C423.6406,20.4844 423.8125,20.7031 423.9063,21.1094 C423.9688,21.5156 424,21.6406 424.1406,21.7656 C424.2813,21.9063 424.5156,22.0156 424.7344,22.0156 C425,22.0156 425.2656,21.875 425.4375,21.6563 C425.5469,21.5 425.5781,21.3125 425.5781,20.8906 L425.5781,19.4688 C425.5781,19.0313 425.5625,18.9063 425.4688,18.75 C425.3125,18.4844 425.0313,18.3438 424.7344,18.3438 C424.4375,18.3438 424.2344,18.4375 424.0156,18.75 L423.8438,18.6719 Z " fill="#000000"/><text fill="#000000" font-family="sans-serif" font-size="12" lengthAdjust="spacingAndGlyphs" textLength="70" x="435.5" y="27.1543">Mastermind</text><line style="stroke: #A80036; stroke-width: 1.5;" x1="407.5" x2="507.5" y1="39" y2="39"/><line style="stroke: #A80036; stroke-width: 1.5;" x1="407.5" x2="507.5" y1="47" y2="47"/><!--MD5=[9563755d011c5cec7ec66dc53565a59e]
class Board--><rect fill="#FEFECE" filter="url(#f1xsbr4tu17a5g)" height="48" id="Board" style="stroke: #A80036; stroke-width: 1.5;" width="68" x="494.5" y="223"/><ellipse cx="509.5" cy="239" fill="#ADD1B2" rx="11" ry="11" style="stroke: #A80036; stroke-width: 1.0;"/><path d="M511.8438,234.6719 C510.9063,234.2344 510.3125,234.0938 509.4375,234.0938 C506.8125,234.0938 504.8125,236.1719 504.8125,238.8906 L504.8125,240.0156 C504.8125,242.5938 506.9219,244.4844 509.8125,244.4844 C511.0313,244.4844 512.1875,244.1875 512.9375,243.6406 C513.5156,243.2344 513.8438,242.7813 513.8438,242.3906 C513.8438,241.9375 513.4531,241.5469 512.9844,241.5469 C512.7656,241.5469 512.5625,241.625 512.375,241.8125 C511.9219,242.2969 511.9219,242.2969 511.7344,242.3906 C511.3125,242.6563 510.625,242.7813 509.8594,242.7813 C507.8125,242.7813 506.5156,241.6875 506.5156,239.9844 L506.5156,238.8906 C506.5156,237.1094 507.7656,235.7969 509.5,235.7969 C510.0781,235.7969 510.6875,235.9531 511.1563,236.2031 C511.6406,236.4844 511.8125,236.7031 511.9063,237.1094 C511.9688,237.5156 512,237.6406 512.1406,237.7656 C512.2813,237.9063 512.5156,238.0156 512.7344,238.0156 C513,238.0156 513.2656,237.875 513.4375,237.6563 C513.5469,237.5 513.5781,237.3125 513.5781,236.8906 L513.5781,235.4688 C513.5781,235.0313 513.5625,234.9063 513.4688,234.75 C513.3125,234.4844 513.0313,234.3438 512.7344,234.3438 C512.4375,234.3438 512.2344,234.4375 512.0156,234.75 L511.8438,234.6719 Z " fill="#000000"/><text fill="#000000" font-family="sans-serif" font-size="12" lengthAdjust="spacingAndGlyphs" textLength="36" x="523.5" y="243.1543">Board</text><line style="stroke: #A80036; stroke-width: 1.5;" x1="495.5" x2="561.5" y1="255" y2="255"/><line style="stroke: #A80036; stroke-width: 1.5;" x1="495.5" x2="561.5" y1="263" y2="263"/><!--MD5=[dd91eae41778c45e12552e5329e240e8]
class Turn--><rect fill="#FEFECE" filter="url(#f1xsbr4tu17a5g)" height="48" id="Turn" style="stroke: #A80036; stroke-width: 1.5;" width="58" x="346.5" y="115"/><ellipse cx="361.5" cy="131" fill="#ADD1B2" rx="11" ry="11" style="stroke: #A80036; stroke-width: 1.0;"/><path d="M363.8438,126.6719 C362.9063,126.2344 362.3125,126.0938 361.4375,126.0938 C358.8125,126.0938 356.8125,128.1719 356.8125,130.8906 L356.8125,132.0156 C356.8125,134.5938 358.9219,136.4844 361.8125,136.4844 C363.0313,136.4844 364.1875,136.1875 364.9375,135.6406 C365.5156,135.2344 365.8438,134.7813 365.8438,134.3906 C365.8438,133.9375 365.4531,133.5469 364.9844,133.5469 C364.7656,133.5469 364.5625,133.625 364.375,133.8125 C363.9219,134.2969 363.9219,134.2969 363.7344,134.3906 C363.3125,134.6563 362.625,134.7813 361.8594,134.7813 C359.8125,134.7813 358.5156,133.6875 358.5156,131.9844 L358.5156,130.8906 C358.5156,129.1094 359.7656,127.7969 361.5,127.7969 C362.0781,127.7969 362.6875,127.9531 363.1563,128.2031 C363.6406,128.4844 363.8125,128.7031 363.9063,129.1094 C363.9688,129.5156 364,129.6406 364.1406,129.7656 C364.2813,129.9063 364.5156,130.0156 364.7344,130.0156 C365,130.0156 365.2656,129.875 365.4375,129.6563 C365.5469,129.5 365.5781,129.3125 365.5781,128.8906 L365.5781,127.4688 C365.5781,127.0313 365.5625,126.9063 365.4688,126.75 C365.3125,126.4844 365.0313,126.3438 364.7344,126.3438 C364.4375,126.3438 364.2344,126.4375 364.0156,126.75 L363.8438,126.6719 Z " fill="#000000"/><text fill="#000000" font-family="sans-serif" font-size="12" lengthAdjust="spacingAndGlyphs" textLength="26" x="375.5" y="135.1543">Turn</text><line style="stroke: #A80036; stroke-width: 1.5;" x1="347.5" x2="403.5" y1="147" y2="147"/><line style="stroke: #A80036; stroke-width: 1.5;" x1="347.5" x2="403.5" y1="155" y2="155"/><!--MD5=[2cb47ba637a0d19583e6199456f6ad0b]
class Player--><rect fill="#FEFECE" filter="url(#f1xsbr4tu17a5g)" height="48" id="Player" style="stroke: #A80036; stroke-width: 1.5;" width="68" x="362.5" y="223"/><ellipse cx="377.5" cy="239" fill="#ADD1B2" rx="11" ry="11" style="stroke: #A80036; stroke-width: 1.0;"/><path d="M379.8438,234.6719 C378.9063,234.2344 378.3125,234.0938 377.4375,234.0938 C374.8125,234.0938 372.8125,236.1719 372.8125,238.8906 L372.8125,240.0156 C372.8125,242.5938 374.9219,244.4844 377.8125,244.4844 C379.0313,244.4844 380.1875,244.1875 380.9375,243.6406 C381.5156,243.2344 381.8438,242.7813 381.8438,242.3906 C381.8438,241.9375 381.4531,241.5469 380.9844,241.5469 C380.7656,241.5469 380.5625,241.625 380.375,241.8125 C379.9219,242.2969 379.9219,242.2969 379.7344,242.3906 C379.3125,242.6563 378.625,242.7813 377.8594,242.7813 C375.8125,242.7813 374.5156,241.6875 374.5156,239.9844 L374.5156,238.8906 C374.5156,237.1094 375.7656,235.7969 377.5,235.7969 C378.0781,235.7969 378.6875,235.9531 379.1563,236.2031 C379.6406,236.4844 379.8125,236.7031 379.9063,237.1094 C379.9688,237.5156 380,237.6406 380.1406,237.7656 C380.2813,237.9063 380.5156,238.0156 380.7344,238.0156 C381,238.0156 381.2656,237.875 381.4375,237.6563 C381.5469,237.5 381.5781,237.3125 381.5781,236.8906 L381.5781,235.4688 C381.5781,235.0313 381.5625,234.9063 381.4688,234.75 C381.3125,234.4844 381.0313,234.3438 380.7344,234.3438 C380.4375,234.3438 380.2344,234.4375 380.0156,234.75 L379.8438,234.6719 Z " fill="#000000"/><text fill="#000000" font-family="sans-serif" font-size="12" lengthAdjust="spacingAndGlyphs" textLength="36" x="391.5" y="243.1543">Player</text><line style="stroke: #A80036; stroke-width: 1.5;" x1="363.5" x2="429.5" y1="255" y2="255"/><line style="stroke: #A80036; stroke-width: 1.5;" x1="363.5" x2="429.5" y1="263" y2="263"/><!--MD5=[f988dfb2c51f82beb248a68b00ebb2ba]
class MakerPlayer--><rect fill="#FEFECE" filter="url(#f1xsbr4tu17a5g)" height="48" id="MakerPlayer" style="stroke: #A80036; stroke-width: 1.5;" width="105" x="7" y="331"/><ellipse cx="22" cy="347" fill="#ADD1B2" rx="11" ry="11" style="stroke: #A80036; stroke-width: 1.0;"/><path d="M24.3438,342.6719 C23.4063,342.2344 22.8125,342.0938 21.9375,342.0938 C19.3125,342.0938 17.3125,344.1719 17.3125,346.8906 L17.3125,348.0156 C17.3125,350.5938 19.4219,352.4844 22.3125,352.4844 C23.5313,352.4844 24.6875,352.1875 25.4375,351.6406 C26.0156,351.2344 26.3438,350.7813 26.3438,350.3906 C26.3438,349.9375 25.9531,349.5469 25.4844,349.5469 C25.2656,349.5469 25.0625,349.625 24.875,349.8125 C24.4219,350.2969 24.4219,350.2969 24.2344,350.3906 C23.8125,350.6563 23.125,350.7813 22.3594,350.7813 C20.3125,350.7813 19.0156,349.6875 19.0156,347.9844 L19.0156,346.8906 C19.0156,345.1094 20.2656,343.7969 22,343.7969 C22.5781,343.7969 23.1875,343.9531 23.6563,344.2031 C24.1406,344.4844 24.3125,344.7031 24.4063,345.1094 C24.4688,345.5156 24.5,345.6406 24.6406,345.7656 C24.7813,345.9063 25.0156,346.0156 25.2344,346.0156 C25.5,346.0156 25.7656,345.875 25.9375,345.6563 C26.0469,345.5 26.0781,345.3125 26.0781,344.8906 L26.0781,343.4688 C26.0781,343.0313 26.0625,342.9063 25.9688,342.75 C25.8125,342.4844 25.5313,342.3438 25.2344,342.3438 C24.9375,342.3438 24.7344,342.4375 24.5156,342.75 L24.3438,342.6719 Z " fill="#000000"/><text fill="#000000" font-family="sans-serif" font-size="12" lengthAdjust="spacingAndGlyphs" textLength="73" x="36" y="351.1543">MakerPlayer</text><line style="stroke: #A80036; stroke-width: 1.5;" x1="8" x2="111" y1="363" y2="363"/><line style="stroke: #A80036; stroke-width: 1.5;" x1="8" x2="111" y1="371" y2="371"/><!--MD5=[d35e1b11918d6cec274121250b83576e]
class BreakerPlayer--><rect fill="#FEFECE" filter="url(#f1xsbr4tu17a5g)" height="48" id="BreakerPlayer" style="stroke: #A80036; stroke-width: 1.5;" width="116" x="359.5" y="331"/><ellipse cx="374.5" cy="347" fill="#ADD1B2" rx="11" ry="11" style="stroke: #A80036; stroke-width: 1.0;"/><path d="M376.8438,342.6719 C375.9063,342.2344 375.3125,342.0938 374.4375,342.0938 C371.8125,342.0938 369.8125,344.1719 369.8125,346.8906 L369.8125,348.0156 C369.8125,350.5938 371.9219,352.4844 374.8125,352.4844 C376.0313,352.4844 377.1875,352.1875 377.9375,351.6406 C378.5156,351.2344 378.8438,350.7813 378.8438,350.3906 C378.8438,349.9375 378.4531,349.5469 377.9844,349.5469 C377.7656,349.5469 377.5625,349.625 377.375,349.8125 C376.9219,350.2969 376.9219,350.2969 376.7344,350.3906 C376.3125,350.6563 375.625,350.7813 374.8594,350.7813 C372.8125,350.7813 371.5156,349.6875 371.5156,347.9844 L371.5156,346.8906 C371.5156,345.1094 372.7656,343.7969 374.5,343.7969 C375.0781,343.7969 375.6875,343.9531 376.1563,344.2031 C376.6406,344.4844 376.8125,344.7031 376.9063,345.1094 C376.9688,345.5156 377,345.6406 377.1406,345.7656 C377.2813,345.9063 377.5156,346.0156 377.7344,346.0156 C378,346.0156 378.2656,345.875 378.4375,345.6563 C378.5469,345.5 378.5781,345.3125 378.5781,344.8906 L378.5781,343.4688 C378.5781,343.0313 378.5625,342.9063 378.4688,342.75 C378.3125,342.4844 378.0313,342.3438 377.7344,342.3438 C377.4375,342.3438 377.2344,342.4375 377.0156,342.75 L376.8438,342.6719 Z " fill="#000000"/><text fill="#000000" font-family="sans-serif" font-size="12" lengthAdjust="spacingAndGlyphs" textLength="84" x="388.5" y="351.1543">BreakerPlayer</text><line style="stroke: #A80036; stroke-width: 1.5;" x1="360.5" x2="474.5" y1="363" y2="363"/><line style="stroke: #A80036; stroke-width: 1.5;" x1="360.5" x2="474.5" y1="371" y2="371"/><!--MD5=[0992d3fdc9d3d7c02b735131bb70871d]
class Goal--><rect fill="#FEFECE" filter="url(#f1xsbr4tu17a5g)" height="48" id="Goal" style="stroke: #A80036; stroke-width: 1.5;" width="59" x="335" y="439"/><ellipse cx="350" cy="455" fill="#ADD1B2" rx="11" ry="11" style="stroke: #A80036; stroke-width: 1.0;"/><path d="M352.3438,450.6719 C351.4063,450.2344 350.8125,450.0938 349.9375,450.0938 C347.3125,450.0938 345.3125,452.1719 345.3125,454.8906 L345.3125,456.0156 C345.3125,458.5938 347.4219,460.4844 350.3125,460.4844 C351.5313,460.4844 352.6875,460.1875 353.4375,459.6406 C354.0156,459.2344 354.3438,458.7813 354.3438,458.3906 C354.3438,457.9375 353.9531,457.5469 353.4844,457.5469 C353.2656,457.5469 353.0625,457.625 352.875,457.8125 C352.4219,458.2969 352.4219,458.2969 352.2344,458.3906 C351.8125,458.6563 351.125,458.7813 350.3594,458.7813 C348.3125,458.7813 347.0156,457.6875 347.0156,455.9844 L347.0156,454.8906 C347.0156,453.1094 348.2656,451.7969 350,451.7969 C350.5781,451.7969 351.1875,451.9531 351.6563,452.2031 C352.1406,452.4844 352.3125,452.7031 352.4063,453.1094 C352.4688,453.5156 352.5,453.6406 352.6406,453.7656 C352.7813,453.9063 353.0156,454.0156 353.2344,454.0156 C353.5,454.0156 353.7656,453.875 353.9375,453.6563 C354.0469,453.5 354.0781,453.3125 354.0781,452.8906 L354.0781,451.4688 C354.0781,451.0313 354.0625,450.9063 353.9688,450.75 C353.8125,450.4844 353.5313,450.3438 353.2344,450.3438 C352.9375,450.3438 352.7344,450.4375 352.5156,450.75 L352.3438,450.6719 Z " fill="#000000"/><text fill="#000000" font-family="sans-serif" font-size="12" lengthAdjust="spacingAndGlyphs" textLength="27" x="364" y="459.1543">Goal</text><line style="stroke: #A80036; stroke-width: 1.5;" x1="336" x2="393" y1="471" y2="471"/><line style="stroke: #A80036; stroke-width: 1.5;" x1="336" x2="393" y1="479" y2="479"/><!--MD5=[4ed713a1bbe23a946f17d07c51bf0ba1]
class WinnerResult--><rect fill="#FEFECE" filter="url(#f1xsbr4tu17a5g)" height="48" id="WinnerResult" style="stroke: #A80036; stroke-width: 1.5;" width="110" x="432.5" y="547"/><ellipse cx="447.5" cy="563" fill="#ADD1B2" rx="11" ry="11" style="stroke: #A80036; stroke-width: 1.0;"/><path d="M449.8438,558.6719 C448.9063,558.2344 448.3125,558.0938 447.4375,558.0938 C444.8125,558.0938 442.8125,560.1719 442.8125,562.8906 L442.8125,564.0156 C442.8125,566.5938 444.9219,568.4844 447.8125,568.4844 C449.0313,568.4844 450.1875,568.1875 450.9375,567.6406 C451.5156,567.2344 451.8438,566.7813 451.8438,566.3906 C451.8438,565.9375 451.4531,565.5469 450.9844,565.5469 C450.7656,565.5469 450.5625,565.625 450.375,565.8125 C449.9219,566.2969 449.9219,566.2969 449.7344,566.3906 C449.3125,566.6563 448.625,566.7813 447.8594,566.7813 C445.8125,566.7813 444.5156,565.6875 444.5156,563.9844 L444.5156,562.8906 C444.5156,561.1094 445.7656,559.7969 447.5,559.7969 C448.0781,559.7969 448.6875,559.9531 449.1563,560.2031 C449.6406,560.4844 449.8125,560.7031 449.9063,561.1094 C449.9688,561.5156 450,561.6406 450.1406,561.7656 C450.2813,561.9063 450.5156,562.0156 450.7344,562.0156 C451,562.0156 451.2656,561.875 451.4375,561.6563 C451.5469,561.5 451.5781,561.3125 451.5781,560.8906 L451.5781,559.4688 C451.5781,559.0313 451.5625,558.9063 451.4688,558.75 C451.3125,558.4844 451.0313,558.3438 450.7344,558.3438 C450.4375,558.3438 450.2344,558.4375 450.0156,558.75 L449.8438,558.6719 Z " fill="#000000"/><text fill="#000000" font-family="sans-serif" font-size="12" lengthAdjust="spacingAndGlyphs" textLength="78" x="461.5" y="567.1543">WinnerResult</text><line style="stroke: #A80036; stroke-width: 1.5;" x1="433.5" x2="541.5" y1="579" y2="579"/><line style="stroke: #A80036; stroke-width: 1.5;" x1="433.5" x2="541.5" y1="587" y2="587"/><!--MD5=[2741598bdf59a7d7e0d5c97658fd3022]
class Result--><rect fill="#FEFECE" filter="url(#f1xsbr4tu17a5g)" height="48" id="Result" style="stroke: #A80036; stroke-width: 1.5;" width="68" x="581.5" y="331"/><ellipse cx="596.5" cy="347" fill="#ADD1B2" rx="11" ry="11" style="stroke: #A80036; stroke-width: 1.0;"/><path d="M598.8438,342.6719 C597.9063,342.2344 597.3125,342.0938 596.4375,342.0938 C593.8125,342.0938 591.8125,344.1719 591.8125,346.8906 L591.8125,348.0156 C591.8125,350.5938 593.9219,352.4844 596.8125,352.4844 C598.0313,352.4844 599.1875,352.1875 599.9375,351.6406 C600.5156,351.2344 600.8438,350.7813 600.8438,350.3906 C600.8438,349.9375 600.4531,349.5469 599.9844,349.5469 C599.7656,349.5469 599.5625,349.625 599.375,349.8125 C598.9219,350.2969 598.9219,350.2969 598.7344,350.3906 C598.3125,350.6563 597.625,350.7813 596.8594,350.7813 C594.8125,350.7813 593.5156,349.6875 593.5156,347.9844 L593.5156,346.8906 C593.5156,345.1094 594.7656,343.7969 596.5,343.7969 C597.0781,343.7969 597.6875,343.9531 598.1563,344.2031 C598.6406,344.4844 598.8125,344.7031 598.9063,345.1094 C598.9688,345.5156 599,345.6406 599.1406,345.7656 C599.2813,345.9063 599.5156,346.0156 599.7344,346.0156 C600,346.0156 600.2656,345.875 600.4375,345.6563 C600.5469,345.5 600.5781,345.3125 600.5781,344.8906 L600.5781,343.4688 C600.5781,343.0313 600.5625,342.9063 600.4688,342.75 C600.3125,342.4844 600.0313,342.3438 599.7344,342.3438 C599.4375,342.3438 599.2344,342.4375 599.0156,342.75 L598.8438,342.6719 Z " fill="#000000"/><text fill="#000000" font-family="sans-serif" font-size="12" lengthAdjust="spacingAndGlyphs" textLength="36" x="610.5" y="351.1543">Result</text><line style="stroke: #A80036; stroke-width: 1.5;" x1="582.5" x2="648.5" y1="363" y2="363"/><line style="stroke: #A80036; stroke-width: 1.5;" x1="582.5" x2="648.5" y1="371" y2="371"/><!--MD5=[e370ee5c0c15ce04544d5f5a73174d72]
class SecretCombination--><rect fill="#FEFECE" filter="url(#f1xsbr4tu17a5g)" height="48" id="SecretCombination" style="stroke: #A80036; stroke-width: 1.5;" width="146" x="82.5" y="439"/><ellipse cx="97.5" cy="455" fill="#ADD1B2" rx="11" ry="11" style="stroke: #A80036; stroke-width: 1.0;"/><path d="M99.8438,450.6719 C98.9063,450.2344 98.3125,450.0938 97.4375,450.0938 C94.8125,450.0938 92.8125,452.1719 92.8125,454.8906 L92.8125,456.0156 C92.8125,458.5938 94.9219,460.4844 97.8125,460.4844 C99.0313,460.4844 100.1875,460.1875 100.9375,459.6406 C101.5156,459.2344 101.8438,458.7813 101.8438,458.3906 C101.8438,457.9375 101.4531,457.5469 100.9844,457.5469 C100.7656,457.5469 100.5625,457.625 100.375,457.8125 C99.9219,458.2969 99.9219,458.2969 99.7344,458.3906 C99.3125,458.6563 98.625,458.7813 97.8594,458.7813 C95.8125,458.7813 94.5156,457.6875 94.5156,455.9844 L94.5156,454.8906 C94.5156,453.1094 95.7656,451.7969 97.5,451.7969 C98.0781,451.7969 98.6875,451.9531 99.1563,452.2031 C99.6406,452.4844 99.8125,452.7031 99.9063,453.1094 C99.9688,453.5156 100,453.6406 100.1406,453.7656 C100.2813,453.9063 100.5156,454.0156 100.7344,454.0156 C101,454.0156 101.2656,453.875 101.4375,453.6563 C101.5469,453.5 101.5781,453.3125 101.5781,452.8906 L101.5781,451.4688 C101.5781,451.0313 101.5625,450.9063 101.4688,450.75 C101.3125,450.4844 101.0313,450.3438 100.7344,450.3438 C100.4375,450.3438 100.2344,450.4375 100.0156,450.75 L99.8438,450.6719 Z " fill="#000000"/><text fill="#000000" font-family="sans-serif" font-size="12" lengthAdjust="spacingAndGlyphs" textLength="114" x="111.5" y="459.1543">SecretCombination</text><line style="stroke: #A80036; stroke-width: 1.5;" x1="83.5" x2="227.5" y1="471" y2="471"/><line style="stroke: #A80036; stroke-width: 1.5;" x1="83.5" x2="227.5" y1="479" y2="479"/><!--MD5=[cf489b19c51ee25e76ddca093e62e620]
class ProposedCombination--><rect fill="#FEFECE" filter="url(#f1xsbr4tu17a5g)" height="48" id="ProposedCombination" style="stroke: #A80036; stroke-width: 1.5;" width="164" x="429.5" y="439"/><ellipse cx="444.5" cy="455" fill="#ADD1B2" rx="11" ry="11" style="stroke: #A80036; stroke-width: 1.0;"/><path d="M446.8438,450.6719 C445.9063,450.2344 445.3125,450.0938 444.4375,450.0938 C441.8125,450.0938 439.8125,452.1719 439.8125,454.8906 L439.8125,456.0156 C439.8125,458.5938 441.9219,460.4844 444.8125,460.4844 C446.0313,460.4844 447.1875,460.1875 447.9375,459.6406 C448.5156,459.2344 448.8438,458.7813 448.8438,458.3906 C448.8438,457.9375 448.4531,457.5469 447.9844,457.5469 C447.7656,457.5469 447.5625,457.625 447.375,457.8125 C446.9219,458.2969 446.9219,458.2969 446.7344,458.3906 C446.3125,458.6563 445.625,458.7813 444.8594,458.7813 C442.8125,458.7813 441.5156,457.6875 441.5156,455.9844 L441.5156,454.8906 C441.5156,453.1094 442.7656,451.7969 444.5,451.7969 C445.0781,451.7969 445.6875,451.9531 446.1563,452.2031 C446.6406,452.4844 446.8125,452.7031 446.9063,453.1094 C446.9688,453.5156 447,453.6406 447.1406,453.7656 C447.2813,453.9063 447.5156,454.0156 447.7344,454.0156 C448,454.0156 448.2656,453.875 448.4375,453.6563 C448.5469,453.5 448.5781,453.3125 448.5781,452.8906 L448.5781,451.4688 C448.5781,451.0313 448.5625,450.9063 448.4688,450.75 C448.3125,450.4844 448.0313,450.3438 447.7344,450.3438 C447.4375,450.3438 447.2344,450.4375 447.0156,450.75 L446.8438,450.6719 Z " fill="#000000"/><text fill="#000000" font-family="sans-serif" font-size="12" lengthAdjust="spacingAndGlyphs" textLength="132" x="458.5" y="459.1543">ProposedCombination</text><line style="stroke: #A80036; stroke-width: 1.5;" x1="430.5" x2="592.5" y1="471" y2="471"/><line style="stroke: #A80036; stroke-width: 1.5;" x1="430.5" x2="592.5" y1="479" y2="479"/><!--MD5=[365150d8163e865a226452c70cc7ad9f]
class Black--><rect fill="#FEFECE" filter="url(#f1xsbr4tu17a5g)" height="48" id="Black" style="stroke: #A80036; stroke-width: 1.5;" width="64" x="455.5" y="655"/><ellipse cx="470.5" cy="671" fill="#ADD1B2" rx="11" ry="11" style="stroke: #A80036; stroke-width: 1.0;"/><path d="M472.8438,666.6719 C471.9063,666.2344 471.3125,666.0938 470.4375,666.0938 C467.8125,666.0938 465.8125,668.1719 465.8125,670.8906 L465.8125,672.0156 C465.8125,674.5938 467.9219,676.4844 470.8125,676.4844 C472.0313,676.4844 473.1875,676.1875 473.9375,675.6406 C474.5156,675.2344 474.8438,674.7813 474.8438,674.3906 C474.8438,673.9375 474.4531,673.5469 473.9844,673.5469 C473.7656,673.5469 473.5625,673.625 473.375,673.8125 C472.9219,674.2969 472.9219,674.2969 472.7344,674.3906 C472.3125,674.6563 471.625,674.7813 470.8594,674.7813 C468.8125,674.7813 467.5156,673.6875 467.5156,671.9844 L467.5156,670.8906 C467.5156,669.1094 468.7656,667.7969 470.5,667.7969 C471.0781,667.7969 471.6875,667.9531 472.1563,668.2031 C472.6406,668.4844 472.8125,668.7031 472.9063,669.1094 C472.9688,669.5156 473,669.6406 473.1406,669.7656 C473.2813,669.9063 473.5156,670.0156 473.7344,670.0156 C474,670.0156 474.2656,669.875 474.4375,669.6563 C474.5469,669.5 474.5781,669.3125 474.5781,668.8906 L474.5781,667.4688 C474.5781,667.0313 474.5625,666.9063 474.4688,666.75 C474.3125,666.4844 474.0313,666.3438 473.7344,666.3438 C473.4375,666.3438 473.2344,666.4375 473.0156,666.75 L472.8438,666.6719 Z " fill="#000000"/><text fill="#000000" font-family="sans-serif" font-size="12" lengthAdjust="spacingAndGlyphs" textLength="32" x="484.5" y="675.1543">Black</text><line style="stroke: #A80036; stroke-width: 1.5;" x1="456.5" x2="518.5" y1="687" y2="687"/><line style="stroke: #A80036; stroke-width: 1.5;" x1="456.5" x2="518.5" y1="695" y2="695"/><!--MD5=[62b2edce616dbe77035d94d16f9f0d8e]
class Success--><rect fill="#FEFECE" filter="url(#f1xsbr4tu17a5g)" height="48" id="Success" style="stroke: #A80036; stroke-width: 1.5;" width="83" x="605" y="547"/><ellipse cx="620" cy="563" fill="#ADD1B2" rx="11" ry="11" style="stroke: #A80036; stroke-width: 1.0;"/><path d="M622.3438,558.6719 C621.4063,558.2344 620.8125,558.0938 619.9375,558.0938 C617.3125,558.0938 615.3125,560.1719 615.3125,562.8906 L615.3125,564.0156 C615.3125,566.5938 617.4219,568.4844 620.3125,568.4844 C621.5313,568.4844 622.6875,568.1875 623.4375,567.6406 C624.0156,567.2344 624.3438,566.7813 624.3438,566.3906 C624.3438,565.9375 623.9531,565.5469 623.4844,565.5469 C623.2656,565.5469 623.0625,565.625 622.875,565.8125 C622.4219,566.2969 622.4219,566.2969 622.2344,566.3906 C621.8125,566.6563 621.125,566.7813 620.3594,566.7813 C618.3125,566.7813 617.0156,565.6875 617.0156,563.9844 L617.0156,562.8906 C617.0156,561.1094 618.2656,559.7969 620,559.7969 C620.5781,559.7969 621.1875,559.9531 621.6563,560.2031 C622.1406,560.4844 622.3125,560.7031 622.4063,561.1094 C622.4688,561.5156 622.5,561.6406 622.6406,561.7656 C622.7813,561.9063 623.0156,562.0156 623.2344,562.0156 C623.5,562.0156 623.7656,561.875 623.9375,561.6563 C624.0469,561.5 624.0781,561.3125 624.0781,560.8906 L624.0781,559.4688 C624.0781,559.0313 624.0625,558.9063 623.9688,558.75 C623.8125,558.4844 623.5313,558.3438 623.2344,558.3438 C622.9375,558.3438 622.7344,558.4375 622.5156,558.75 L622.3438,558.6719 Z " fill="#000000"/><text fill="#000000" font-family="sans-serif" font-size="12" lengthAdjust="spacingAndGlyphs" textLength="51" x="634" y="567.1543">Success</text><line style="stroke: #A80036; stroke-width: 1.5;" x1="606" x2="687" y1="579" y2="579"/><line style="stroke: #A80036; stroke-width: 1.5;" x1="606" x2="687" y1="587" y2="587"/><!--MD5=[602b15352a41052f4d1a7dc34102cb35]
class White--><rect fill="#FEFECE" filter="url(#f1xsbr4tu17a5g)" height="48" id="White" style="stroke: #A80036; stroke-width: 1.5;" width="66" x="554.5" y="655"/><ellipse cx="569.5" cy="671" fill="#ADD1B2" rx="11" ry="11" style="stroke: #A80036; stroke-width: 1.0;"/><path d="M571.8438,666.6719 C570.9063,666.2344 570.3125,666.0938 569.4375,666.0938 C566.8125,666.0938 564.8125,668.1719 564.8125,670.8906 L564.8125,672.0156 C564.8125,674.5938 566.9219,676.4844 569.8125,676.4844 C571.0313,676.4844 572.1875,676.1875 572.9375,675.6406 C573.5156,675.2344 573.8438,674.7813 573.8438,674.3906 C573.8438,673.9375 573.4531,673.5469 572.9844,673.5469 C572.7656,673.5469 572.5625,673.625 572.375,673.8125 C571.9219,674.2969 571.9219,674.2969 571.7344,674.3906 C571.3125,674.6563 570.625,674.7813 569.8594,674.7813 C567.8125,674.7813 566.5156,673.6875 566.5156,671.9844 L566.5156,670.8906 C566.5156,669.1094 567.7656,667.7969 569.5,667.7969 C570.0781,667.7969 570.6875,667.9531 571.1563,668.2031 C571.6406,668.4844 571.8125,668.7031 571.9063,669.1094 C571.9688,669.5156 572,669.6406 572.1406,669.7656 C572.2813,669.9063 572.5156,670.0156 572.7344,670.0156 C573,670.0156 573.2656,669.875 573.4375,669.6563 C573.5469,669.5 573.5781,669.3125 573.5781,668.8906 L573.5781,667.4688 C573.5781,667.0313 573.5625,666.9063 573.4688,666.75 C573.3125,666.4844 573.0313,666.3438 572.7344,666.3438 C572.4375,666.3438 572.2344,666.4375 572.0156,666.75 L571.8438,666.6719 Z " fill="#000000"/><text fill="#000000" font-family="sans-serif" font-size="12" lengthAdjust="spacingAndGlyphs" textLength="34" x="583.5" y="675.1543">White</text><line style="stroke: #A80036; stroke-width: 1.5;" x1="555.5" x2="619.5" y1="687" y2="687"/><line style="stroke: #A80036; stroke-width: 1.5;" x1="555.5" x2="619.5" y1="695" y2="695"/><!--MD5=[a64a835c3d62471a77f615251fdde58a]
class Position--><rect fill="#FEFECE" filter="url(#f1xsbr4tu17a5g)" height="48" id="Position" style="stroke: #A80036; stroke-width: 1.5;" width="78" x="448.5" y="763"/><ellipse cx="463.5" cy="779" fill="#ADD1B2" rx="11" ry="11" style="stroke: #A80036; stroke-width: 1.0;"/><path d="M465.8438,774.6719 C464.9063,774.2344 464.3125,774.0938 463.4375,774.0938 C460.8125,774.0938 458.8125,776.1719 458.8125,778.8906 L458.8125,780.0156 C458.8125,782.5938 460.9219,784.4844 463.8125,784.4844 C465.0313,784.4844 466.1875,784.1875 466.9375,783.6406 C467.5156,783.2344 467.8438,782.7813 467.8438,782.3906 C467.8438,781.9375 467.4531,781.5469 466.9844,781.5469 C466.7656,781.5469 466.5625,781.625 466.375,781.8125 C465.9219,782.2969 465.9219,782.2969 465.7344,782.3906 C465.3125,782.6563 464.625,782.7813 463.8594,782.7813 C461.8125,782.7813 460.5156,781.6875 460.5156,779.9844 L460.5156,778.8906 C460.5156,777.1094 461.7656,775.7969 463.5,775.7969 C464.0781,775.7969 464.6875,775.9531 465.1563,776.2031 C465.6406,776.4844 465.8125,776.7031 465.9063,777.1094 C465.9688,777.5156 466,777.6406 466.1406,777.7656 C466.2813,777.9063 466.5156,778.0156 466.7344,778.0156 C467,778.0156 467.2656,777.875 467.4375,777.6563 C467.5469,777.5 467.5781,777.3125 467.5781,776.8906 L467.5781,775.4688 C467.5781,775.0313 467.5625,774.9063 467.4688,774.75 C467.3125,774.4844 467.0313,774.3438 466.7344,774.3438 C466.4375,774.3438 466.2344,774.4375 466.0156,774.75 L465.8438,774.6719 Z " fill="#000000"/><text fill="#000000" font-family="sans-serif" font-size="12" lengthAdjust="spacingAndGlyphs" textLength="46" x="477.5" y="783.1543">Position</text><line style="stroke: #A80036; stroke-width: 1.5;" x1="449.5" x2="525.5" y1="795" y2="795"/><line style="stroke: #A80036; stroke-width: 1.5;" x1="449.5" x2="525.5" y1="803" y2="803"/><!--MD5=[18eee71c88ab61f27581b8cbdd3ef5ee]
class Color--><rect fill="#FEFECE" filter="url(#f1xsbr4tu17a5g)" height="48" id="Color" style="stroke: #A80036; stroke-width: 1.5;" width="64" x="548.5" y="871"/><ellipse cx="563.5" cy="887" fill="#ADD1B2" rx="11" ry="11" style="stroke: #A80036; stroke-width: 1.0;"/><path d="M565.8438,882.6719 C564.9063,882.2344 564.3125,882.0938 563.4375,882.0938 C560.8125,882.0938 558.8125,884.1719 558.8125,886.8906 L558.8125,888.0156 C558.8125,890.5938 560.9219,892.4844 563.8125,892.4844 C565.0313,892.4844 566.1875,892.1875 566.9375,891.6406 C567.5156,891.2344 567.8438,890.7813 567.8438,890.3906 C567.8438,889.9375 567.4531,889.5469 566.9844,889.5469 C566.7656,889.5469 566.5625,889.625 566.375,889.8125 C565.9219,890.2969 565.9219,890.2969 565.7344,890.3906 C565.3125,890.6563 564.625,890.7813 563.8594,890.7813 C561.8125,890.7813 560.5156,889.6875 560.5156,887.9844 L560.5156,886.8906 C560.5156,885.1094 561.7656,883.7969 563.5,883.7969 C564.0781,883.7969 564.6875,883.9531 565.1563,884.2031 C565.6406,884.4844 565.8125,884.7031 565.9063,885.1094 C565.9688,885.5156 566,885.6406 566.1406,885.7656 C566.2813,885.9063 566.5156,886.0156 566.7344,886.0156 C567,886.0156 567.2656,885.875 567.4375,885.6563 C567.5469,885.5 567.5781,885.3125 567.5781,884.8906 L567.5781,883.4688 C567.5781,883.0313 567.5625,882.9063 567.4688,882.75 C567.3125,882.4844 567.0313,882.3438 566.7344,882.3438 C566.4375,882.3438 566.2344,882.4375 566.0156,882.75 L565.8438,882.6719 Z " fill="#000000"/><text fill="#000000" font-family="sans-serif" font-size="12" lengthAdjust="spacingAndGlyphs" textLength="32" x="577.5" y="891.1543">Color</text><line style="stroke: #A80036; stroke-width: 1.5;" x1="549.5" x2="611.5" y1="903" y2="903"/><line style="stroke: #A80036; stroke-width: 1.5;" x1="549.5" x2="611.5" y1="911" y2="911"/><!--MD5=[28491d17d5ee38c9c116625a5ffc259a]
class Combination--><rect fill="#FEFECE" filter="url(#f1xsbr4tu17a5g)" height="48" id="Combination" style="stroke: #A80036; stroke-width: 1.5;" width="106" x="218.5" y="331"/><ellipse cx="233.5" cy="347" fill="#ADD1B2" rx="11" ry="11" style="stroke: #A80036; stroke-width: 1.0;"/><path d="M235.8438,342.6719 C234.9063,342.2344 234.3125,342.0938 233.4375,342.0938 C230.8125,342.0938 228.8125,344.1719 228.8125,346.8906 L228.8125,348.0156 C228.8125,350.5938 230.9219,352.4844 233.8125,352.4844 C235.0313,352.4844 236.1875,352.1875 236.9375,351.6406 C237.5156,351.2344 237.8438,350.7813 237.8438,350.3906 C237.8438,349.9375 237.4531,349.5469 236.9844,349.5469 C236.7656,349.5469 236.5625,349.625 236.375,349.8125 C235.9219,350.2969 235.9219,350.2969 235.7344,350.3906 C235.3125,350.6563 234.625,350.7813 233.8594,350.7813 C231.8125,350.7813 230.5156,349.6875 230.5156,347.9844 L230.5156,346.8906 C230.5156,345.1094 231.7656,343.7969 233.5,343.7969 C234.0781,343.7969 234.6875,343.9531 235.1563,344.2031 C235.6406,344.4844 235.8125,344.7031 235.9063,345.1094 C235.9688,345.5156 236,345.6406 236.1406,345.7656 C236.2813,345.9063 236.5156,346.0156 236.7344,346.0156 C237,346.0156 237.2656,345.875 237.4375,345.6563 C237.5469,345.5 237.5781,345.3125 237.5781,344.8906 L237.5781,343.4688 C237.5781,343.0313 237.5625,342.9063 237.4688,342.75 C237.3125,342.4844 237.0313,342.3438 236.7344,342.3438 C236.4375,342.3438 236.2344,342.4375 236.0156,342.75 L235.8438,342.6719 Z " fill="#000000"/><text fill="#000000" font-family="sans-serif" font-size="12" lengthAdjust="spacingAndGlyphs" textLength="74" x="247.5" y="351.1543">Combination</text><line style="stroke: #A80036; stroke-width: 1.5;" x1="219.5" x2="323.5" y1="363" y2="363"/><line style="stroke: #A80036; stroke-width: 1.5;" x1="219.5" x2="323.5" y1="371" y2="371"/><!--MD5=[08be530975453a47bdc5b5370100f2fc]
class Red--><rect fill="#FEFECE" filter="url(#f1xsbr4tu17a5g)" height="48" id="Red" style="stroke: #A80036; stroke-width: 1.5;" width="55" x="309" y="979"/><ellipse cx="324" cy="995" fill="#ADD1B2" rx="11" ry="11" style="stroke: #A80036; stroke-width: 1.0;"/><path d="M326.3438,990.6719 C325.4063,990.2344 324.8125,990.0938 323.9375,990.0938 C321.3125,990.0938 319.3125,992.1719 319.3125,994.8906 L319.3125,996.0156 C319.3125,998.5938 321.4219,1000.4844 324.3125,1000.4844 C325.5313,1000.4844 326.6875,1000.1875 327.4375,999.6406 C328.0156,999.2344 328.3438,998.7813 328.3438,998.3906 C328.3438,997.9375 327.9531,997.5469 327.4844,997.5469 C327.2656,997.5469 327.0625,997.625 326.875,997.8125 C326.4219,998.2969 326.4219,998.2969 326.2344,998.3906 C325.8125,998.6563 325.125,998.7813 324.3594,998.7813 C322.3125,998.7813 321.0156,997.6875 321.0156,995.9844 L321.0156,994.8906 C321.0156,993.1094 322.2656,991.7969 324,991.7969 C324.5781,991.7969 325.1875,991.9531 325.6563,992.2031 C326.1406,992.4844 326.3125,992.7031 326.4063,993.1094 C326.4688,993.5156 326.5,993.6406 326.6406,993.7656 C326.7813,993.9063 327.0156,994.0156 327.2344,994.0156 C327.5,994.0156 327.7656,993.875 327.9375,993.6563 C328.0469,993.5 328.0781,993.3125 328.0781,992.8906 L328.0781,991.4688 C328.0781,991.0313 328.0625,990.9063 327.9688,990.75 C327.8125,990.4844 327.5313,990.3438 327.2344,990.3438 C326.9375,990.3438 326.7344,990.4375 326.5156,990.75 L326.3438,990.6719 Z " fill="#000000"/><text fill="#000000" font-family="sans-serif" font-size="12" lengthAdjust="spacingAndGlyphs" textLength="23" x="338" y="999.1543">Red</text><line style="stroke: #A80036; stroke-width: 1.5;" x1="310" x2="363" y1="1011" y2="1011"/><line style="stroke: #A80036; stroke-width: 1.5;" x1="310" x2="363" y1="1019" y2="1019"/><!--MD5=[e5fcaaf7dd279fcaa419853012f8d36f]
class Blue--><rect fill="#FEFECE" filter="url(#f1xsbr4tu17a5g)" height="48" id="Blue" style="stroke: #A80036; stroke-width: 1.5;" width="58" x="399.5" y="979"/><ellipse cx="414.5" cy="995" fill="#ADD1B2" rx="11" ry="11" style="stroke: #A80036; stroke-width: 1.0;"/><path d="M416.8438,990.6719 C415.9063,990.2344 415.3125,990.0938 414.4375,990.0938 C411.8125,990.0938 409.8125,992.1719 409.8125,994.8906 L409.8125,996.0156 C409.8125,998.5938 411.9219,1000.4844 414.8125,1000.4844 C416.0313,1000.4844 417.1875,1000.1875 417.9375,999.6406 C418.5156,999.2344 418.8438,998.7813 418.8438,998.3906 C418.8438,997.9375 418.4531,997.5469 417.9844,997.5469 C417.7656,997.5469 417.5625,997.625 417.375,997.8125 C416.9219,998.2969 416.9219,998.2969 416.7344,998.3906 C416.3125,998.6563 415.625,998.7813 414.8594,998.7813 C412.8125,998.7813 411.5156,997.6875 411.5156,995.9844 L411.5156,994.8906 C411.5156,993.1094 412.7656,991.7969 414.5,991.7969 C415.0781,991.7969 415.6875,991.9531 416.1563,992.2031 C416.6406,992.4844 416.8125,992.7031 416.9063,993.1094 C416.9688,993.5156 417,993.6406 417.1406,993.7656 C417.2813,993.9063 417.5156,994.0156 417.7344,994.0156 C418,994.0156 418.2656,993.875 418.4375,993.6563 C418.5469,993.5 418.5781,993.3125 418.5781,992.8906 L418.5781,991.4688 C418.5781,991.0313 418.5625,990.9063 418.4688,990.75 C418.3125,990.4844 418.0313,990.3438 417.7344,990.3438 C417.4375,990.3438 417.2344,990.4375 417.0156,990.75 L416.8438,990.6719 Z " fill="#000000"/><text fill="#000000" font-family="sans-serif" font-size="12" lengthAdjust="spacingAndGlyphs" textLength="26" x="428.5" y="999.1543">Blue</text><line style="stroke: #A80036; stroke-width: 1.5;" x1="400.5" x2="456.5" y1="1011" y2="1011"/><line style="stroke: #A80036; stroke-width: 1.5;" x1="400.5" x2="456.5" y1="1019" y2="1019"/><!--MD5=[59a197a4e33151d5112197f2c5528c04]
class Yellow--><rect fill="#FEFECE" filter="url(#f1xsbr4tu17a5g)" height="48" id="Yellow" style="stroke: #A80036; stroke-width: 1.5;" width="71" x="493" y="979"/><ellipse cx="508" cy="995" fill="#ADD1B2" rx="11" ry="11" style="stroke: #A80036; stroke-width: 1.0;"/><path d="M510.3438,990.6719 C509.4063,990.2344 508.8125,990.0938 507.9375,990.0938 C505.3125,990.0938 503.3125,992.1719 503.3125,994.8906 L503.3125,996.0156 C503.3125,998.5938 505.4219,1000.4844 508.3125,1000.4844 C509.5313,1000.4844 510.6875,1000.1875 511.4375,999.6406 C512.0156,999.2344 512.3438,998.7813 512.3438,998.3906 C512.3438,997.9375 511.9531,997.5469 511.4844,997.5469 C511.2656,997.5469 511.0625,997.625 510.875,997.8125 C510.4219,998.2969 510.4219,998.2969 510.2344,998.3906 C509.8125,998.6563 509.125,998.7813 508.3594,998.7813 C506.3125,998.7813 505.0156,997.6875 505.0156,995.9844 L505.0156,994.8906 C505.0156,993.1094 506.2656,991.7969 508,991.7969 C508.5781,991.7969 509.1875,991.9531 509.6563,992.2031 C510.1406,992.4844 510.3125,992.7031 510.4063,993.1094 C510.4688,993.5156 510.5,993.6406 510.6406,993.7656 C510.7813,993.9063 511.0156,994.0156 511.2344,994.0156 C511.5,994.0156 511.7656,993.875 511.9375,993.6563 C512.0469,993.5 512.0781,993.3125 512.0781,992.8906 L512.0781,991.4688 C512.0781,991.0313 512.0625,990.9063 511.9688,990.75 C511.8125,990.4844 511.5313,990.3438 511.2344,990.3438 C510.9375,990.3438 510.7344,990.4375 510.5156,990.75 L510.3438,990.6719 Z " fill="#000000"/><text fill="#000000" font-family="sans-serif" font-size="12" lengthAdjust="spacingAndGlyphs" textLength="39" x="522" y="999.1543">Yellow</text><line style="stroke: #A80036; stroke-width: 1.5;" x1="494" x2="563" y1="1011" y2="1011"/><line style="stroke: #A80036; stroke-width: 1.5;" x1="494" x2="563" y1="1019" y2="1019"/><!--MD5=[3778656fef14cf416db6e1fe750da04b]
class Green--><rect fill="#FEFECE" filter="url(#f1xsbr4tu17a5g)" height="48" id="Green" style="stroke: #A80036; stroke-width: 1.5;" width="69" x="599" y="979"/><ellipse cx="614" cy="995" fill="#ADD1B2" rx="11" ry="11" style="stroke: #A80036; stroke-width: 1.0;"/><path d="M616.3438,990.6719 C615.4063,990.2344 614.8125,990.0938 613.9375,990.0938 C611.3125,990.0938 609.3125,992.1719 609.3125,994.8906 L609.3125,996.0156 C609.3125,998.5938 611.4219,1000.4844 614.3125,1000.4844 C615.5313,1000.4844 616.6875,1000.1875 617.4375,999.6406 C618.0156,999.2344 618.3438,998.7813 618.3438,998.3906 C618.3438,997.9375 617.9531,997.5469 617.4844,997.5469 C617.2656,997.5469 617.0625,997.625 616.875,997.8125 C616.4219,998.2969 616.4219,998.2969 616.2344,998.3906 C615.8125,998.6563 615.125,998.7813 614.3594,998.7813 C612.3125,998.7813 611.0156,997.6875 611.0156,995.9844 L611.0156,994.8906 C611.0156,993.1094 612.2656,991.7969 614,991.7969 C614.5781,991.7969 615.1875,991.9531 615.6563,992.2031 C616.1406,992.4844 616.3125,992.7031 616.4063,993.1094 C616.4688,993.5156 616.5,993.6406 616.6406,993.7656 C616.7813,993.9063 617.0156,994.0156 617.2344,994.0156 C617.5,994.0156 617.7656,993.875 617.9375,993.6563 C618.0469,993.5 618.0781,993.3125 618.0781,992.8906 L618.0781,991.4688 C618.0781,991.0313 618.0625,990.9063 617.9688,990.75 C617.8125,990.4844 617.5313,990.3438 617.2344,990.3438 C616.9375,990.3438 616.7344,990.4375 616.5156,990.75 L616.3438,990.6719 Z " fill="#000000"/><text fill="#000000" font-family="sans-serif" font-size="12" lengthAdjust="spacingAndGlyphs" textLength="37" x="628" y="999.1543">Green</text><line style="stroke: #A80036; stroke-width: 1.5;" x1="600" x2="667" y1="1011" y2="1011"/><line style="stroke: #A80036; stroke-width: 1.5;" x1="600" x2="667" y1="1019" y2="1019"/><!--MD5=[8691ac77a468677548132a10c9750c1a]
class Orange--><rect fill="#FEFECE" filter="url(#f1xsbr4tu17a5g)" height="48" id="Orange" style="stroke: #A80036; stroke-width: 1.5;" width="77" x="703" y="979"/><ellipse cx="718" cy="995" fill="#ADD1B2" rx="11" ry="11" style="stroke: #A80036; stroke-width: 1.0;"/><path d="M720.3438,990.6719 C719.4063,990.2344 718.8125,990.0938 717.9375,990.0938 C715.3125,990.0938 713.3125,992.1719 713.3125,994.8906 L713.3125,996.0156 C713.3125,998.5938 715.4219,1000.4844 718.3125,1000.4844 C719.5313,1000.4844 720.6875,1000.1875 721.4375,999.6406 C722.0156,999.2344 722.3438,998.7813 722.3438,998.3906 C722.3438,997.9375 721.9531,997.5469 721.4844,997.5469 C721.2656,997.5469 721.0625,997.625 720.875,997.8125 C720.4219,998.2969 720.4219,998.2969 720.2344,998.3906 C719.8125,998.6563 719.125,998.7813 718.3594,998.7813 C716.3125,998.7813 715.0156,997.6875 715.0156,995.9844 L715.0156,994.8906 C715.0156,993.1094 716.2656,991.7969 718,991.7969 C718.5781,991.7969 719.1875,991.9531 719.6563,992.2031 C720.1406,992.4844 720.3125,992.7031 720.4063,993.1094 C720.4688,993.5156 720.5,993.6406 720.6406,993.7656 C720.7813,993.9063 721.0156,994.0156 721.2344,994.0156 C721.5,994.0156 721.7656,993.875 721.9375,993.6563 C722.0469,993.5 722.0781,993.3125 722.0781,992.8906 L722.0781,991.4688 C722.0781,991.0313 722.0625,990.9063 721.9688,990.75 C721.8125,990.4844 721.5313,990.3438 721.2344,990.3438 C720.9375,990.3438 720.7344,990.4375 720.5156,990.75 L720.3438,990.6719 Z " fill="#000000"/><text fill="#000000" font-family="sans-serif" font-size="12" lengthAdjust="spacingAndGlyphs" textLength="45" x="732" y="999.1543">Orange</text><line style="stroke: #A80036; stroke-width: 1.5;" x1="704" x2="779" y1="1011" y2="1011"/><line style="stroke: #A80036; stroke-width: 1.5;" x1="704" x2="779" y1="1019" y2="1019"/><!--MD5=[c74a9845023ab95f6e4a7adc6caf2156]
class Purple--><rect fill="#FEFECE" filter="url(#f1xsbr4tu17a5g)" height="48" id="Purple" style="stroke: #A80036; stroke-width: 1.5;" width="69" x="815" y="979"/><ellipse cx="830" cy="995" fill="#ADD1B2" rx="11" ry="11" style="stroke: #A80036; stroke-width: 1.0;"/><path d="M832.3438,990.6719 C831.4063,990.2344 830.8125,990.0938 829.9375,990.0938 C827.3125,990.0938 825.3125,992.1719 825.3125,994.8906 L825.3125,996.0156 C825.3125,998.5938 827.4219,1000.4844 830.3125,1000.4844 C831.5313,1000.4844 832.6875,1000.1875 833.4375,999.6406 C834.0156,999.2344 834.3438,998.7813 834.3438,998.3906 C834.3438,997.9375 833.9531,997.5469 833.4844,997.5469 C833.2656,997.5469 833.0625,997.625 832.875,997.8125 C832.4219,998.2969 832.4219,998.2969 832.2344,998.3906 C831.8125,998.6563 831.125,998.7813 830.3594,998.7813 C828.3125,998.7813 827.0156,997.6875 827.0156,995.9844 L827.0156,994.8906 C827.0156,993.1094 828.2656,991.7969 830,991.7969 C830.5781,991.7969 831.1875,991.9531 831.6563,992.2031 C832.1406,992.4844 832.3125,992.7031 832.4063,993.1094 C832.4688,993.5156 832.5,993.6406 832.6406,993.7656 C832.7813,993.9063 833.0156,994.0156 833.2344,994.0156 C833.5,994.0156 833.7656,993.875 833.9375,993.6563 C834.0469,993.5 834.0781,993.3125 834.0781,992.8906 L834.0781,991.4688 C834.0781,991.0313 834.0625,990.9063 833.9688,990.75 C833.8125,990.4844 833.5313,990.3438 833.2344,990.3438 C832.9375,990.3438 832.7344,990.4375 832.5156,990.75 L832.3438,990.6719 Z " fill="#000000"/><text fill="#000000" font-family="sans-serif" font-size="12" lengthAdjust="spacingAndGlyphs" textLength="37" x="844" y="999.1543">Purple</text><line style="stroke: #A80036; stroke-width: 1.5;" x1="816" x2="883" y1="1011" y2="1011"/><line style="stroke: #A80036; stroke-width: 1.5;" x1="816" x2="883" y1="1019" y2="1019"/><!--MD5=[ba28573f2062cf9f5d1d4aa517f0cc38]
link Mastermind to Board--><path codeLine="1" d="M469.0123,66.6983 C469.0123,66.6983 503.518,170.702 516.649,210.281 " fill="none" id="Mastermind-Board" style="stroke: #A80036; stroke-width: 1.0;"/><polygon fill="#A80036" points="520.776,222.72,521.738,212.9182,519.2013,217.9744,514.1451,215.4378,520.776,222.72" style="stroke: #A80036; stroke-width: 1.0;"/><line style="stroke: #A80036; stroke-width: 1.0;" x1="519.2013" x2="516.6825" y1="217.9744" y2="210.381"/><polygon fill="#A80036" points="465.233,55.309,463.3262,62.2634,469.0123,66.6983,470.9191,59.7439,465.233,55.309" style="stroke: #A80036; stroke-width: 1.0;"/><!--MD5=[f95f66ed9d6e0f523703ae56e87204e4]
link Mastermind to Turn--><path codeLine="2" d="M432.3648,64.4916 C432.3648,64.4916 411.147,91.919 401.57,104.3 " fill="none" id="Mastermind-Turn" style="stroke: #A80036; stroke-width: 1.0;"/><polygon fill="#A80036" points="393.541,114.678,402.2119,110.0073,396.6005,110.7234,395.8844,105.112,393.541,114.678" style="stroke: #A80036; stroke-width: 1.0;"/><line style="stroke: #A80036; stroke-width: 1.0;" x1="396.6005" x2="401.4955" y1="110.7234" y2="104.396"/><polygon fill="#A80036" points="439.707,55,432.872,57.2984,432.3648,64.4916,439.1998,62.1932,439.707,55" style="stroke: #A80036; stroke-width: 1.0;"/><!--MD5=[af4d99cd4784731f062880949247790a]
link Mastermind to Player--><path codeLine="3" d="M448.177,66.8253 C448.177,66.8253 430.726,130.961 421.5,163 C417.036,178.501 411.928,195.572 407.497,210.181 " fill="none" id="Mastermind-Player" style="stroke: #A80036; stroke-width: 1.0;"/><polygon fill="#A80036" points="403.656,222.79,410.1052,215.3464,405.1131,218.007,402.4525,213.015,403.656,222.79" style="stroke: #A80036; stroke-width: 1.0;"/><line style="stroke: #A80036; stroke-width: 1.0;" x1="405.1131" x2="407.4445" y1="218.007" y2="210.354"/><polygon fill="#A80036" points="451.297,55.238,445.8746,59.9916,448.177,66.8253,453.5994,62.0717,451.297,55.238" style="stroke: #A80036; stroke-width: 1.0;"/><text fill="#000000" font-family="sans-serif" font-size="13" lengthAdjust="spacingAndGlyphs" textLength="8" x="396.4647" y="211.7482">2</text><!--MD5=[d81713d91ad05be3b975338c4816ee0b]
link Turn to Player--><path codeLine="5" d="M380.057,163 C383.227,179.003 387.475,200.446 390.859,217.528 " fill="none" id="Turn-to-Player" style="stroke: #A80036; stroke-width: 1.0;"/><polygon fill="#A80036" points="391.88,222.678,394.0556,213.0724,390.9088,217.7732,386.208,214.6264,391.88,222.678" style="stroke: #A80036; stroke-width: 1.0;"/><text fill="#000000" font-family="sans-serif" font-size="13" lengthAdjust="spacingAndGlyphs" textLength="8" x="381.7789" y="212.0045">2</text><!--MD5=[b705679762bcdc77b2fe4a6d7b34f9c2]
reverse link Player to MakerPlayer--><path codeLine="6" d="M342.963,264.84 C279.69,284.741 175.081,317.645 112.183,337.429 " fill="none" id="Player-backto-MakerPlayer" style="stroke: #A80036; stroke-width: 1.0;"/><polygon fill="none" points="341.153,258.071,362.332,258.747,345.354,271.426,341.153,258.071" style="stroke: #A80036; stroke-width: 1.0;"/><!--MD5=[38b091ad0e7663b1475f5ae6aa4e536c]
reverse link Player to BreakerPlayer--><path codeLine="7" d="M405.024,291.024 C407.709,304.579 410.574,319.038 412.88,330.678 " fill="none" id="Player-backto-BreakerPlayer" style="stroke: #A80036; stroke-width: 1.0;"/><polygon fill="none" points="398.077,291.98,401.057,271,411.81,289.259,398.077,291.98" style="stroke: #A80036; stroke-width: 1.0;"/><!--MD5=[ca29af50766e9d1afef91adab29147e5]
link BreakerPlayer to Goal--><path codeLine="9" d="M406,379 C397.93,395.141 387.092,416.816 378.516,433.969 " fill="none" id="BreakerPlayer-to-Goal" style="stroke: #A80036; stroke-width: 1.0;"/><polygon fill="#A80036" points="376.161,438.678,383.7636,432.417,378.3971,434.2059,376.6082,428.8393,376.161,438.678" style="stroke: #A80036; stroke-width: 1.0;"/><!--MD5=[04c5f5ff642ea73f8ba665d00ea2159d]
reverse link Goal to WinnerResult--><path codeLine="11" d="M406.394,500.104 C424.263,515.503 444.599,533.029 460.438,546.678 " fill="none" id="Goal-backto-WinnerResult" style="stroke: #A80036; stroke-width: 1.0;"/><polygon fill="none" points="401.77,505.359,391.189,487,410.909,494.754,401.77,505.359" style="stroke: #A80036; stroke-width: 1.0;"/><!--MD5=[da9ad8fb5fd564fe8f50205ad94d24cc]
reverse link Result to WinnerResult--><path codeLine="13" d="M623.356,399.531 C625.987,426.381 625.181,460.609 610.5,487 C595.597,513.79 567.971,533.608 542.671,547.147 " fill="none" id="Result-backto-WinnerResult" style="stroke: #A80036; stroke-width: 1.0;"/><polygon fill="none" points="616.385,400.218,620.639,379.459,630.259,398.34,616.385,400.218" style="stroke: #A80036; stroke-width: 1.0;"/><!--MD5=[ca1f03a6b09a7e090560224866d0d466]
link Result to SecretCombination--><path codeLine="15" d="M581.301,363.881 C508.202,380.725 335.151,420.602 233.588,444.006 " fill="none" id="Result-to-SecretCombination" style="stroke: #A80036; stroke-width: 1.0;"/><polygon fill="#A80036" points="228.506,445.177,238.1745,447.0533,233.3782,444.054,236.3776,439.2577,228.506,445.177" style="stroke: #A80036; stroke-width: 1.0;"/><!--MD5=[9b5cddcdba0f3590f5210c2fb5637c7f]
link Result to ProposedCombination--><path codeLine="16" d="M592.934,379 C576.827,395.417 555.103,417.559 538.143,434.844 " fill="none" id="Result-to-ProposedCombination" style="stroke: #A80036; stroke-width: 1.0;"/><polygon fill="#A80036" points="534.382,438.678,543.5404,435.0553,537.8838,435.1091,537.8301,429.4525,534.382,438.678" style="stroke: #A80036; stroke-width: 1.0;"/><!--MD5=[a7ac14b573b51ac52b64ab7c9a98a373]
link WinnerResult to Black--><path codeLine="18" d="M487.5,607 C487.5,607 487.5,630.677 487.5,641.364 " fill="none" id="WinnerResult-Black" style="stroke: #A80036; stroke-width: 1.0;"/><polygon fill="#A80036" points="487.5,654.678,491.5,645.678,487.5,649.678,483.5,645.678,487.5,654.678" style="stroke: #A80036; stroke-width: 1.0;"/><line style="stroke: #A80036; stroke-width: 1.0;" x1="487.5" x2="487.5" y1="649.678" y2="641.678"/><polygon fill="#A80036" points="487.5,595,483.5,601,487.5,607,491.5,601,487.5,595" style="stroke: #A80036; stroke-width: 1.0;"/><text fill="#000000" font-family="sans-serif" font-size="13" lengthAdjust="spacingAndGlyphs" textLength="8" x="478.525" y="644.0045">4</text><!--MD5=[18b13c26e1d2c193878da5bba7416a2f]
link MakerPlayer to SecretCombination--><path codeLine="20" d="M80.3306,379 C95.1982,395.417 115.251,417.559 130.906,434.844 " fill="none" id="MakerPlayer-to-SecretCombination" style="stroke: #A80036; stroke-width: 1.0;"/><polygon fill="#A80036" points="134.379,438.678,131.3029,429.3219,131.0228,434.9718,125.3729,434.6917,134.379,438.678" style="stroke: #A80036; stroke-width: 1.0;"/><!--MD5=[b80df01695e05b8bb04c2472d8ebb237]
link BreakerPlayer to ProposedCombination--><path codeLine="21" d="M437.897,379 C452.455,395.417 472.09,417.559 487.419,434.844 " fill="none" id="BreakerPlayer-to-ProposedCombination" style="stroke: #A80036; stroke-width: 1.0;"/><polygon fill="#A80036" points="490.819,438.678,487.8376,429.2912,487.5005,434.938,481.8537,434.6009,490.819,438.678" style="stroke: #A80036; stroke-width: 1.0;"/><text fill="#000000" font-family="sans-serif" font-size="13" lengthAdjust="spacingAndGlyphs" textLength="32" x="449.878" y="428.0045">0..10</text><!--MD5=[5e915b8ab835b2366405aaf6901e131b]
link Board to SecretCombination--><path codeLine="23" d="M482.7512,261.3194 C482.7512,261.3194 458.575,268.084 447.5,271 C338.254,299.768 283.993,254.9 200.5,331 C173.803,355.333 162.943,396.212 158.526,425.843 " fill="none" id="Board-SecretCombination" style="stroke: #A80036; stroke-width: 1.0;"/><polygon fill="#A80036" points="156.875,438.964,161.9672,430.5337,157.4992,434.0031,154.0298,429.5351,156.875,438.964" style="stroke: #A80036; stroke-width: 1.0;"/><line style="stroke: #A80036; stroke-width: 1.0;" x1="157.4992" x2="158.4975" y1="434.0031" y2="426.066"/><polygon fill="#A80036" points="494.291,258.028,487.424,255.8271,482.7512,261.3194,489.6183,263.5203,494.291,258.028" style="stroke: #A80036; stroke-width: 1.0;"/><!--MD5=[e0b5d9907fda64872c10fd6493e0c51f]
link Board to ProposedCombination--><path codeLine="24" d="M525.6972,283.2713 C525.6972,283.2713 517.517,386.26 514.392,425.596 " fill="none" id="Board-ProposedCombination" style="stroke: #A80036; stroke-width: 1.0;"/><polygon fill="#A80036" points="513.349,438.72,518.0495,430.0652,513.7451,433.7357,510.0746,429.4314,513.349,438.72" style="stroke: #A80036; stroke-width: 1.0;"/><line style="stroke: #A80036; stroke-width: 1.0;" x1="513.7451" x2="514.379" y1="433.7357" y2="425.7605"/><polygon fill="#FFFFFF" points="526.648,271.309,522.1852,276.9732,525.6972,283.2713,530.16,277.6071,526.648,271.309" style="stroke: #A80036; stroke-width: 1.0;"/><text fill="#000000" font-family="sans-serif" font-size="13" lengthAdjust="spacingAndGlyphs" textLength="32" x="517.6997" y="428.0567">0..10</text><!--MD5=[8dd95aff79c51151a18c835e3410b3cd]
link Board to Result--><path codeLine="25" d="M554.991,280.2759 C554.991,280.2759 577.723,307.973 588.065,320.574 " fill="none" id="Board-Result" style="stroke: #A80036; stroke-width: 1.0;"/><polygon fill="#A80036" points="596.359,330.678,593.7412,321.1834,593.1869,326.813,587.5573,326.2587,596.359,330.678" style="stroke: #A80036; stroke-width: 1.0;"/><line style="stroke: #A80036; stroke-width: 1.0;" x1="593.1869" x2="588.111" y1="326.813" y2="320.6295"/><polygon fill="#FFFFFF" points="547.378,271,548.0925,278.1756,554.991,280.2759,554.2765,273.1003,547.378,271" style="stroke: #A80036; stroke-width: 1.0;"/><text fill="#000000" font-family="sans-serif" font-size="13" lengthAdjust="spacingAndGlyphs" textLength="32" x="555.7934" y="320.0045">0..10</text><!--MD5=[4995906f1b64b7c93424b81ebdb4e0cf]
link Result to Success--><path codeLine="27" d="M644.7344,388.7363 C644.7344,388.7363 666.968,421.173 672.5,439 C682.362,470.782 672.995,508.1 662.86,534.759 " fill="none" id="Result-Success" style="stroke: #A80036; stroke-width: 1.0;"/><polygon fill="#A80036" points="657.904,546.919,665.0053,540.0946,659.7913,542.2889,657.5971,537.0749,657.904,546.919" style="stroke: #A80036; stroke-width: 1.0;"/><line style="stroke: #A80036; stroke-width: 1.0;" x1="659.7913" x2="662.8105" y1="542.2889" y2="534.8805"/><polygon fill="#A80036" points="637.268,379.342,637.8698,386.528,644.7344,388.7363,644.1326,381.5504,637.268,379.342" style="stroke: #A80036; stroke-width: 1.0;"/><text fill="#000000" font-family="sans-serif" font-size="13" lengthAdjust="spacingAndGlyphs" textLength="24" x="633.7513" y="535.9103">0..4</text><!--MD5=[fda509434d84535b42fd5ff2b224cdda]
reverse link Success to Black--><path codeLine="28" d="M595.25,606.167 C570.451,622.699 541.435,642.043 519.766,656.489 " fill="none" id="Success-backto-Black" style="stroke: #A80036; stroke-width: 1.0;"/><polygon fill="none" points="591.475,600.27,611.999,595,599.241,611.919,591.475,600.27" style="stroke: #A80036; stroke-width: 1.0;"/><!--MD5=[4857d16976a5dbb478aa112d62628504]
reverse link Success to White--><path codeLine="29" d="M623.894,612.613 C615.971,626.848 607.346,642.345 600.481,654.678 " fill="none" id="Success-backto-White" style="stroke: #A80036; stroke-width: 1.0;"/><polygon fill="none" points="617.855,609.071,633.698,595,630.087,615.88,617.855,609.071" style="stroke: #A80036; stroke-width: 1.0;"/><!--MD5=[d3ad87e094e0fe043e100cbcfcce330f]
link Black to Position--><path codeLine="31" d="M487.5,703 C487.5,719.003 487.5,740.446 487.5,757.528 " fill="none" id="Black-to-Position" style="stroke: #A80036; stroke-width: 1.0;"/><polygon fill="#A80036" points="487.5,762.678,491.5,753.678,487.5,757.678,483.5,753.678,487.5,762.678" style="stroke: #A80036; stroke-width: 1.0;"/><!--MD5=[fb83b20deec7e834fb585dbade867f40]
link Success to Color--><path codeLine="32" d="M646.448,595.382 C646.03,621.737 644.249,665.764 637.5,703 C626.75,762.308 604.242,829.331 590.952,866.114 " fill="none" id="Success-to-Color" style="stroke: #A80036; stroke-width: 1.0;"/><polygon fill="#A80036" points="589.219,870.883,596.052,863.79,590.9265,866.1836,588.5329,861.0581,589.219,870.883" style="stroke: #A80036; stroke-width: 1.0;"/><!--MD5=[28e886d1c90b0b4ab000be4943562f5d]
link Combination to Position--><path codeLine="34" d="M281.8973,390.6355 C281.8973,390.6355 303.383,455.59 317.5,487 C362.52,587.168 382.491,607.95 437.5,703 C446.809,719.084 457.394,736.742 466.421,751.621 " fill="none" id="Combination-Position" style="stroke: #A80036; stroke-width: 1.0;"/><polygon fill="#A80036" points="473.272,762.875,472.0078,753.1076,470.6716,758.6044,465.1748,757.2682,473.272,762.875" style="stroke: #A80036; stroke-width: 1.0;"/><line style="stroke: #A80036; stroke-width: 1.0;" x1="470.6716" x2="466.5115" y1="758.6044" y2="751.7705"/><polygon fill="#A80036" points="278.33,379.178,276.2945,386.0958,281.8973,390.6355,283.9328,383.7177,278.33,379.178" style="stroke: #A80036; stroke-width: 1.0;"/><text fill="#000000" font-family="sans-serif" font-size="13" lengthAdjust="spacingAndGlyphs" textLength="8" x="460.6011" y="751.855">4</text><!--MD5=[e7ac7b8f5c4a475da30b48afbd7f3f65]
link Position to Color--><path codeLine="35" d="M515.594,820.0205 C515.594,820.0205 540.117,847.973 551.173,860.574 " fill="none" id="Position-Color" style="stroke: #A80036; stroke-width: 1.0;"/><polygon fill="#A80036" points="560.039,870.678,557.1103,861.2747,556.7415,866.9195,551.0967,866.5507,560.039,870.678" style="stroke: #A80036; stroke-width: 1.0;"/><line style="stroke: #A80036; stroke-width: 1.0;" x1="556.7415" x2="551.465" y1="866.9195" y2="860.9065"/><polygon fill="#FFFFFF" points="507.68,811,508.6302,818.1482,515.594,820.0205,514.6438,812.8722,507.68,811" style="stroke: #A80036; stroke-width: 1.0;"/><!--MD5=[ed81d3472c9069d2de3c2f5cd308846f]
reverse link Combination to SecretCombination--><path codeLine="36" d="M231.476,392.573 C214.749,407.859 195.807,425.167 181.022,438.678 " fill="none" id="Combination-backto-SecretCombination" style="stroke: #A80036; stroke-width: 1.0;"/><polygon fill="none" points="226.843,387.324,246.33,379,236.288,397.659,226.843,387.324" style="stroke: #A80036; stroke-width: 1.0;"/><!--MD5=[2f10888865b2f559cc24db01ac34cee3]
reverse link Combination to ProposedCombination--><path codeLine="37" d="M342.084,387.175 C379.55,403.722 424.803,423.709 459.111,438.862 " fill="none" id="Combination-backto-ProposedCombination" style="stroke: #A80036; stroke-width: 1.0;"/><polygon fill="none" points="339.043,393.484,323.576,379,344.7,380.678,339.043,393.484" style="stroke: #A80036; stroke-width: 1.0;"/><!--MD5=[fab54b5999e935266d298ad54749f91a]
reverse link Color to Red--><path codeLine="39" d="M529.831,915.874 C489.332,932.0599 431.3,955.9298 381.5,979 C375.927,981.5816 370.038,984.4711 364.421,987.307 " fill="none" id="Color-backto-Red" style="stroke: #A80036; stroke-width: 1.0;"/><polygon fill="none" points="527.29,909.351,548.462,908.476,532.457,922.363,527.29,909.351" style="stroke: #A80036; stroke-width: 1.0;"/><!--MD5=[43364a787a1aa71eb994c83faab9e0a3]
reverse link Color to Blue--><path codeLine="40" d="M531.799,929.9623 C507.358,947.0069 478.573,967.081 457.605,981.7032 " fill="none" id="Color-backto-Blue" style="stroke: #A80036; stroke-width: 1.0;"/><polygon fill="none" points="527.856,924.178,548.265,918.48,535.864,935.6619,527.856,924.178" style="stroke: #A80036; stroke-width: 1.0;"/><!--MD5=[6083f140c68c81feb5a8fefe89deab0b]
reverse link Color to Yellow--><path codeLine="41" d="M560.341,937.0936 C553.423,951.1958 545.923,966.4838 539.941,978.6784 " fill="none" id="Color-backto-Yellow" style="stroke: #A80036; stroke-width: 1.0;"/><polygon fill="none" points="554.124,933.8732,569.217,919,566.693,940.0392,554.124,933.8732" style="stroke: #A80036; stroke-width: 1.0;"/><!--MD5=[9b9d24ea93eb20378c733f632b2003b3]
reverse link Color to Green--><path codeLine="42" d="M601.047,937.0936 C608.098,951.1958 615.742,966.4838 621.839,978.6784 " fill="none" id="Color-backto-Green" style="stroke: #A80036; stroke-width: 1.0;"/><polygon fill="none" points="594.684,940.0195,592,919,607.206,933.7585,594.684,940.0195" style="stroke: #A80036; stroke-width: 1.0;"/><!--MD5=[fb4153a096dd56f720ff3e3ae4a8e359]
reverse link Color to Orange--><path codeLine="43" d="M629.713,928.401 C654.447,944.6855 683.848,964.0425 706.288,978.8172 " fill="none" id="Color-backto-Orange" style="stroke: #A80036; stroke-width: 1.0;"/><polygon fill="none" points="625.549,934.0406,612.694,917.196,633.248,922.347,625.549,934.0406" style="stroke: #A80036; stroke-width: 1.0;"/><!--MD5=[e23fe5562a5e214831d2b959e7e5f28b]
reverse link Color to Purple--><path codeLine="44" d="M631.665,914.729 C675.823,931.0927 741.194,955.7971 797.5,979 C803.159,981.3318 809.126,983.8833 814.922,986.4111 " fill="none" id="Color-backto-Purple" style="stroke: #A80036; stroke-width: 1.0;"/><polygon fill="none" points="629.03,921.218,612.69,907.727,633.877,908.084,629.03,921.218" style="stroke: #A80036; stroke-width: 1.0;"/><!--MD5=[0bcb9695fae46a79c0f08f3ce3bc998a]
@startuml
Mastermind *-down-> Board
Mastermind *-down-> Turn
Mastermind *-down-> "2" Player

Turn -down-> "2" Player
Player <|-down- MakerPlayer
Player <|-down- BreakerPlayer

BreakerPlayer -down-> Goal

Goal <|-down- WinnerResult

Result <|-down- WinnerResult

Result - -> SecretCombination
Result - -> ProposedCombination

WinnerResult *-down-> "4" Black

MakerPlayer -down-> SecretCombination
BreakerPlayer -down-> "0..10" ProposedCombination

Board *-down-> SecretCombination
Board o-down-> "0..10" ProposedCombination
Board o-down-> "0..10" Result

Result *-down-> "0..4" Success
Success <|-down- Black
Success <|-down- White

Black - -> Position
Success - -> Color

Combination *-down-> "4" Position
Position o-down-> Color
Combination <|-down- SecretCombination
Combination <|-down- ProposedCombination

Color <|-down- Red
Color <|-down- Blue
Color <|-down- Yellow
Color <|-down- Green
Color <|-down- Orange
Color <|-down- Purple
@enduml

PlantUML version 1.2020.20beta8(Unknown compile time)
(GPL source distribution)
Java Runtime: Java(TM) SE Runtime Environment
JVM: Java HotSpot(TM) 64-Bit Server VM
Default Encoding: UTF-8
Language: en
Country: US
--></g></svg>